solid FLA Mould
facet normal 0.5947483402297838 0.8039119428108513 -1.2296507967579109e-15
  outer loop
    vertex 772.0010186051063 337.26765107390713 29.19183710864403
    vertex 841.1986604766264 286.07400602491845 -8.053944
    vertex 772.0010186051064 337.267651073907 -8.053944
  endloop
endfacet
facet normal 0.5947483402297838 0.8039119428108513 -1.2296507967579109e-15
  outer loop
    vertex 841.1986604766264 286.07400602491845 -8.053944
    vertex 772.0010186051063 337.26765107390713 29.19183710864403
    vertex 841.1986604766264 286.07400602491856 14.985465318835523
  endloop
endfacet
facet normal -0.9930690179986182 0.11753265712668981 2.0676100651336515e-16
  outer loop
    vertex 7.902501666944442 66.77063006977927 1.4700914033888521
    vertex 7.219114195322617e-13 1.4438228390645235e-12 -8.053944
    vertex 7.219114195322617e-13 1.4438228390645235e-12 0.0
  endloop
endfacet
facet normal -0.9930690179986182 0.11753265712668981 2.0676100651336515e-16
  outer loop
    vertex 7.219114195322617e-13 1.4438228390645235e-12 -8.053944
    vertex 7.902501666944442 66.77063006977927 1.4700914033888521
    vertex 7.902501666944439 66.77063006977927 -8.053944
  endloop
endfacet
facet normal 0.7046390968848381 0.49751292423021193 0.5059294746950639
  outer loop
    vertex 696.8825666600211 426.0529553724028 46.27682529510729
    vertex 747.523665279536 311.31172476684685 88.57826895922956
    vertex 771.1218543627986 334.9983444223844 32.419046231935305
  endloop
endfacet
facet normal 0.3918288916356134 0.4655033412947253 0.7935847521991924
  outer loop
    vertex 747.523665279536 311.31172476684685 88.57826895922956
    vertex 696.8825666600211 426.0529553724028 46.27682529510729
    vertex 683.2936243330719 350.0404899548333 97.57392586260804
  endloop
endfacet
facet normal 0.3405744570556503 0.19083372480515856 0.9206473421882224
  outer loop
    vertex 837.0575056423315 286.1735836347101 18.148014242556236
    vertex 771.1218543627986 334.9983444223844 32.419046231935305
    vertex 812.7546020327054 260.7978637878583 32.39830394472204
  endloop
endfacet
facet normal -0.7719013064322934 0.058195266620554194 0.6330732059336278
  outer loop
    vertex 9.154996652295562 66.63038980611437 5.037617366522727
    vertex 7.219114195322617e-13 1.4438228390645235e-12 0.0
    vertex 2.759485373264282 -0.08382237767844292 3.3723247332388713
  endloop
endfacet
facet normal -0.9371841766620554 0.10358463157922411 0.33310065012674744
  outer loop
    vertex 7.902501666944442 66.77063006977927 1.4700914033888521
    vertex 7.219114195322617e-13 1.4438228390645235e-12 0.0
    vertex 9.154996652295562 66.63038980611437 5.037617366522727
  endloop
endfacet
facet normal -0.12062050816024072 -0.05338094727831832 0.9912624110087271
  outer loop
    vertex 93.75833235833166 -2.848011597277548 90.27157727166144
    vertex 78.45361909970995 56.61799006309584 91.61157482854587
    vertex 71.700045574383 -2.177967079669299 87.62352553399444
  endloop
endfacet
facet normal -0.6524909603710956 0.757796507404201 -4.837820551740494e-16
  outer loop
    vertex 160.11795822981145 318.1287318038656 10.544407903613477
    vertex 212.74546388972442 363.4429703553186 -8.053944
    vertex 160.11795822981148 318.1287318038656 -8.053944
  endloop
endfacet
facet normal -0.6524909603710956 0.757796507404201 -4.837820551740494e-16
  outer loop
    vertex 212.74546388972442 363.4429703553186 -8.053944
    vertex 160.11795822981145 318.1287318038656 10.544407903613477
    vertex 212.74546388972442 363.4429703553186 15.241785775029813
  endloop
endfacet
facet normal -0.7760242086416854 0.058718042951091114 0.6279638676182251
  outer loop
    vertex 9.154996652295562 66.63038980611437 5.037617366522727
    vertex 2.759485373264282 -0.08382237767844292 3.3723247332388713
    vertex 78.45361909970995 56.61799006309584 91.61157482854587
  endloop
endfacet
facet normal -0.7725527889548126 0.045783237689237546 0.6332977841622625
  outer loop
    vertex 78.45361909970995 56.61799006309584 91.61157482854587
    vertex 2.759485373264282 -0.08382237767844292 3.3723247332388713
    vertex 71.700045574383 -2.177967079669299 87.62352553399444
  endloop
endfacet
facet normal -0.5925080882677203 0.8055645010409357 -1.0739365878990004e-15
  outer loop
    vertex 212.74546388972442 363.4429703553186 15.241785775029813
    vertex 270.87629429703867 406.19930724646287 -8.053943999999998
    vertex 212.74546388972442 363.4429703553186 -8.053944
  endloop
endfacet
facet normal -0.5925080882677203 0.8055645010409357 -1.0739365878990004e-15
  outer loop
    vertex 270.87629429703867 406.19930724646287 -8.053943999999998
    vertex 212.74546388972442 363.4429703553186 15.241785775029813
    vertex 270.87629429703856 406.19930724646287 22.51451133196299
  endloop
endfacet
facet normal -0.9613911050851555 0.2751856519936015 6.582344406260418e-16
  outer loop
    vertex 27.7820904664063 136.2221429160867 3.4862366452537
    vertex 7.902501666944439 66.77063006977927 -8.053944
    vertex 7.902501666944442 66.77063006977927 1.4700914033888521
  endloop
endfacet
facet normal -0.9613911050851555 0.2751856519936015 6.582344406260418e-16
  outer loop
    vertex 7.902501666944439 66.77063006977927 -8.053944
    vertex 27.7820904664063 136.2221429160867 3.4862366452537
    vertex 27.782090466406288 136.2221429160867 -8.053944
  endloop
endfacet
facet normal -0.030362086166804754 -0.9995389655854341 -4.45895397400683e-18
  outer loop
    vertex 93.75833235833166 -2.848011597277548 90.27157727166144
    vertex 7.219114195322617e-13 1.4438228390645235e-12 -8.053944
    vertex 93.75833235833166 -2.848011597277548 -8.053944
  endloop
endfacet
facet normal -0.030362086166804754 -0.9995389655854341 -4.45895397400683e-18
  outer loop
    vertex 7.219114195322617e-13 1.4438228390645235e-12 -8.053944
    vertex 93.75833235833166 -2.848011597277548 90.27157727166144
    vertex 7.219114195322617e-13 1.4438228390645235e-12 0.0
  endloop
endfacet
facet normal -0.030362086166804754 -0.9995389655854341 -4.45895397400683e-18
  outer loop
    vertex 7.219114195322617e-13 1.4438228390645235e-12 0.0
    vertex 93.75833235833166 -2.848011597277548 90.27157727166144
    vertex 2.759485373264282 -0.08382237767844292 3.3723247332388713
  endloop
endfacet
facet normal -0.030362086166804754 -0.9995389655854341 -4.45895397400683e-18
  outer loop
    vertex 2.759485373264282 -0.08382237767844292 3.3723247332388713
    vertex 93.75833235833166 -2.848011597277548 90.27157727166144
    vertex 71.700045574383 -2.177967079669299 87.62352553399444
  endloop
endfacet
facet normal -0.4783877357629968 0.8781487199054344 -1.6768282531972937e-15
  outer loop
    vertex 270.87629429703856 406.19930724646287 22.51451133196299
    vertex 336.55358769497855 441.97822597342514 -8.053943999999998
    vertex 270.87629429703867 406.19930724646287 -8.053943999999998
  endloop
endfacet
facet normal -0.4783877357629968 0.8781487199054344 -1.6768282531972937e-15
  outer loop
    vertex 336.55358769497855 441.97822597342514 -8.053943999999998
    vertex 270.87629429703856 406.19930724646287 22.51451133196299
    vertex 336.5535876949784 441.97822597342514 27.034305688769358
  endloop
endfacet
facet normal 0.9628190053163821 -0.27014729871233717 -3.972317347554957e-17
  outer loop
    vertex 100.77814673270373 53.40416672756834 -8.053944
    vertex 117.60839997006642 113.38806350706375 95.03315127422978
    vertex 100.77814673270373 53.404166727568324 93.08963273977666
  endloop
endfacet
facet normal 0.9628190053163821 -0.27014729871233717 -3.972317347554957e-17
  outer loop
    vertex 117.60839997006642 113.38806350706375 95.03315127422978
    vertex 100.77814673270373 53.40416672756834 -8.053944
    vertex 117.60839997006642 113.38806350706376 -8.053944
  endloop
endfacet
facet normal -0.277620001401243 0.9606909673885634 4.532172328275617e-16
  outer loop
    vertex 336.55358769497855 441.97822597342514 -8.053943999999998
    vertex 432.1565799396899 469.6055314669771 36.96637531487342
    vertex 432.15657993969 469.60553146697714 -8.053944
  endloop
endfacet
facet normal -0.277620001401243 0.9606909673885634 4.532172328275617e-16
  outer loop
    vertex 432.1565799396899 469.6055314669771 36.96637531487342
    vertex 336.55358769497855 441.97822597342514 -8.053943999999998
    vertex 336.5535876949784 441.97822597342514 27.034305688769358
  endloop
endfacet
facet normal 0.8247707355335554 -0.5654672703237899 2.626014738132214e-16
  outer loop
    vertex 181.7807002887287 225.21010578533566 -8.053944
    vertex 144.4032374190504 170.69264887620193 97.46804091857548
    vertex 144.4032374190504 170.69264887620193 -8.053944
  endloop
endfacet
facet normal 0.8247707355335554 -0.5654672703237899 2.626014738132214e-16
  outer loop
    vertex 144.4032374190504 170.69264887620193 97.46804091857548
    vertex 181.7807002887287 225.21010578533566 -8.053944
    vertex 181.78070028872864 225.21010578533566 99.06567379216877
  endloop
endfacet
facet normal 0.9923032750436094 -0.12383137864744553 -6.3725163493732396e-18
  outer loop
    vertex 100.77814673270373 53.40416672756834 -8.053944
    vertex 93.75833235833166 -2.848011597277548 90.27157727166144
    vertex 93.75833235833166 -2.848011597277548 -8.053944
  endloop
endfacet
facet normal 0.9923032750436094 -0.12383137864744553 -6.3725163493732396e-18
  outer loop
    vertex 93.75833235833166 -2.848011597277548 90.27157727166144
    vertex 100.77814673270373 53.40416672756834 -8.053944
    vertex 100.77814673270373 53.404166727568324 93.08963273977666
  endloop
endfacet
facet normal 0.4281933863752365 0.9036871271986272 7.439663418983712e-16
  outer loop
    vertex 639.3725999666719 456.4814454683505 44.83341782575214
    vertex 697.3305461130601 429.0192757850141 -8.053944
    vertex 639.3725999666719 456.4814454683506 -8.053944
  endloop
endfacet
facet normal 0.4281933863752365 0.9036871271986272 7.439663418983712e-16
  outer loop
    vertex 697.3305461130601 429.0192757850141 -8.053944
    vertex 639.3725999666719 456.4814454683505 44.83341782575214
    vertex 697.3305461130598 429.0192757850143 43.02154003252948
  endloop
endfacet
facet normal -0.07576184412431355 0.9971259413809689 1.820769533825895e-15
  outer loop
    vertex 432.1565799396899 469.6055314669771 36.96637531487342
    vertex 506.833544160146 475.27950331762577 -8.053944
    vertex 432.15657993969 469.60553146697714 -8.053944
  endloop
endfacet
facet normal -0.07576184412431355 0.9971259413809689 1.820769533825895e-15
  outer loop
    vertex 506.833544160146 475.27950331762577 -8.053944
    vertex 432.1565799396899 469.6055314669771 36.96637531487342
    vertex 506.833544160146 475.2795033176257 41.85371185871087
  endloop
endfacet
facet normal 0.7756078685261677 0.6312150459869402 1.2956059953545384e-15
  outer loop
    vertex 697.3305461130601 429.0192757850141 -8.053944
    vertex 772.0010186051063 337.26765107390713 29.19183710864403
    vertex 772.0010186051064 337.267651073907 -8.053944
  endloop
endfacet
facet normal 0.7756078685261677 0.6312150459869402 1.2956059953545384e-15
  outer loop
    vertex 772.0010186051063 337.26765107390713 29.19183710864403
    vertex 697.3305461130601 429.0192757850141 -8.053944
    vertex 697.3305461130598 429.0192757850143 43.02154003252948
  endloop
endfacet
facet normal -0.42199234659969226 -0.9065993930128595 -1.4225777155923616e-16
  outer loop
    vertex 665.5352983209234 329.8453205668968 96.90404310127043
    vertex 608.656627757729 356.3204802100854 -8.053944
    vertex 665.5352983209236 329.84532056689676 -8.053944
  endloop
endfacet
facet normal -0.42199234659969226 -0.9065993930128595 -1.4225777155923616e-16
  outer loop
    vertex 608.656627757729 356.3204802100854 -8.053944
    vertex 665.5352983209234 329.8453205668968 96.90404310127043
    vertex 608.6566277577289 356.3204802100854 101.97105146759849
  endloop
endfacet
facet normal -0.6084924485326809 -0.7935596638430553 3.170618448858401e-19
  outer loop
    vertex 787.9186564960434 238.15393390226598 30.501346941537978
    vertex 785.8110103767225 239.7700527729948 -8.053943999999996
    vertex 787.9186564960434 238.15393390226598 -8.053943999999996
  endloop
endfacet
facet normal -0.6084924485326809 -0.7935596638430553 3.170618448858401e-19
  outer loop
    vertex 785.8110103767225 239.7700527729948 -8.053943999999996
    vertex 787.9186564960434 238.15393390226598 30.501346941537978
    vertex 785.8110103767225 239.7700527729948 33.077468074418924
  endloop
endfacet
facet normal 0.096078262099911 -0.9953737828332937 -3.5493997872132625e-16
  outer loop
    vertex 495.12499015457496 376.6024208140709 104.93134390582152
    vertex 427.37608897117804 370.06297121519646 -8.053944
    vertex 495.12499015457496 376.602420814071 -8.053944
  endloop
endfacet
facet normal 0.096078262099911 -0.9953737828332937 -3.5493997872132625e-16
  outer loop
    vertex 427.37608897117804 370.06297121519646 -8.053944
    vertex 495.12499015457496 376.6024208140709 104.93134390582152
    vertex 427.3760889711779 370.06297121519646 105.2281156591123
  endloop
endfacet
facet normal -0.5434349039026297 -0.839451312001083 1.4516032901723924e-16
  outer loop
    vertex 725.2400922221727 291.1942773528387 87.20973119463928
    vertex 665.5352983209236 329.84532056689676 -8.053944
    vertex 725.2400922221728 291.1942773528385 -8.053944
  endloop
endfacet
facet normal -0.5434349039026297 -0.839451312001083 1.4516032901723924e-16
  outer loop
    vertex 665.5352983209236 329.84532056689676 -8.053944
    vertex 725.2400922221727 291.1942773528387 87.20973119463928
    vertex 665.5352983209234 329.8453205668968 96.90404310127043
  endloop
endfacet
facet normal -0.8828576413296143 0.4696406979233278 1.2416001584981659e-15
  outer loop
    vertex 66.32965672481362 208.68607880660545 4.128739369931867
    vertex 27.782090466406288 136.2221429160867 -8.053944
    vertex 27.7820904664063 136.2221429160867 3.4862366452537
  endloop
endfacet
facet normal -0.8828576413296143 0.4696406979233278 1.2416001584981659e-15
  outer loop
    vertex 27.782090466406288 136.2221429160867 -8.053944
    vertex 66.32965672481362 208.68607880660545 4.128739369931867
    vertex 66.32965672481359 208.68607880660545 -8.053944
  endloop
endfacet
facet normal 0.7246656153792843 -0.6891006790643609 1.3089238752112868e-15
  outer loop
    vertex 841.1986604766264 286.07400602491845 -8.053944
    vertex 817.0147585136978 260.6419570795697 30.501346941537978
    vertex 817.0147585136978 260.64195707956964 -8.053944
  endloop
endfacet
facet normal 0.7246656153792843 -0.6891006790643609 1.3089238752112868e-15
  outer loop
    vertex 817.0147585136978 260.6419570795697 30.501346941537978
    vertex 841.1986604766264 286.07400602491845 -8.053944
    vertex 841.1986604766264 286.07400602491856 14.985465318835523
  endloop
endfacet
facet normal 0.04325842576856329 0.9990639161735478 1.8068743697591096e-15
  outer loop
    vertex 506.833544160146 475.2795033176257 41.85371185871087
    vertex 580.3120755494289 472.09795953025696 -8.053944
    vertex 506.833544160146 475.27950331762577 -8.053944
  endloop
endfacet
facet normal 0.04325842576856329 0.9990639161735478 1.8068743697591096e-15
  outer loop
    vertex 580.3120755494289 472.09795953025696 -8.053944
    vertex 506.833544160146 475.2795033176257 41.85371185871087
    vertex 580.3120755494288 472.09795953025684 43.812389961484485
  endloop
endfacet
facet normal 0.42260470201083195 -0.9063141099190368 -9.124328372496916e-18
  outer loop
    vertex 356.8382199064442 351.7844211639654 104.31018832836992
    vertex 307.9294138808016 328.978761216755 -8.053944
    vertex 356.8382199064441 351.7844211639654 -8.053944
  endloop
endfacet
facet normal 0.42260470201083195 -0.9063141099190368 -9.124328372496916e-18
  outer loop
    vertex 307.9294138808016 328.978761216755 -8.053944
    vertex 356.8382199064442 351.7844211639654 104.31018832836992
    vertex 307.9294138808015 328.978761216755 102.94064508220703
  endloop
endfacet
facet normal 0.7262604879154214 -0.6874195979842691 1.5493880072853997e-16
  outer loop
    vertex 217.35887325482102 262.7985326111952 -8.053944
    vertex 181.78070028872864 225.21010578533566 99.06567379216877
    vertex 181.7807002887287 225.21010578533566 -8.053944
  endloop
endfacet
facet normal 0.7262604879154214 -0.6874195979842691 1.5493880072853997e-16
  outer loop
    vertex 181.78070028872864 225.21010578533566 99.06567379216877
    vertex 217.35887325482102 262.7985326111952 -8.053944
    vertex 217.35887325482096 262.7985326111952 99.90880876288169
  endloop
endfacet
facet normal 0.2508458376091309 -0.9680270480488516 4.8734194817881706e-17
  outer loop
    vertex 427.3760889711779 370.06297121519646 105.2281156591123
    vertex 356.8382199064441 351.7844211639654 -8.053944
    vertex 427.37608897117804 370.06297121519646 -8.053944
  endloop
endfacet
facet normal 0.2508458376091309 -0.9680270480488516 4.8734194817881706e-17
  outer loop
    vertex 356.8382199064441 351.7844211639654 -8.053944
    vertex 427.3760889711779 370.06297121519646 105.2281156591123
    vertex 356.8382199064442 351.7844211639654 104.31018832836992
  endloop
endfacet
facet normal 0.5355941050270145 -0.8444755500666147 1.1200422879620523e-16
  outer loop
    vertex 307.9294138808015 328.978761216755 102.94064508220703
    vertex 260.87908522510145 299.13789884295534 -8.053944
    vertex 307.9294138808016 328.978761216755 -8.053944
  endloop
endfacet
facet normal 0.5355941050270145 -0.8444755500666147 1.1200422879620523e-16
  outer loop
    vertex 260.87908522510145 299.13789884295534 -8.053944
    vertex 307.9294138808015 328.978761216755 102.94064508220703
    vertex 260.87908522510145 299.13789884295534 101.65494353022503
  endloop
endfacet
facet normal 0.6409389868986172 -0.7675918284305627 -1.8971559242938654e-17
  outer loop
    vertex 260.87908522510145 299.13789884295534 101.65494353022503
    vertex 217.35887325482102 262.7985326111952 -8.053944
    vertex 260.87908522510145 299.13789884295534 -8.053944
  endloop
endfacet
facet normal 0.6409389868986172 -0.7675918284305627 -1.8971559242938654e-17
  outer loop
    vertex 217.35887325482102 262.7985326111952 -8.053944
    vertex 260.87908522510145 299.13789884295534 101.65494353022503
    vertex 217.35887325482096 262.7985326111952 99.90880876288169
  endloop
endfacet
facet normal -1.0784013435566488e-18 1.0080836994684284e-18 1.0
  outer loop
    vertex 93.75833235833166 -2.848011597277548 -8.053944
    vertex 7.902501666944439 66.77063006977927 -8.053944
    vertex 7.219114195322617e-13 1.4438228390645235e-12 -8.053944
  endloop
endfacet
facet normal -1.0784013435566488e-18 1.0080836994684284e-18 1.0
  outer loop
    vertex 7.902501666944439 66.77063006977927 -8.053944
    vertex 93.75833235833166 -2.848011597277548 -8.053944
    vertex 27.782090466406288 136.2221429160867 -8.053944
  endloop
endfacet
facet normal -1.0784013435566488e-18 1.0080836994684284e-18 1.0
  outer loop
    vertex 27.782090466406288 136.2221429160867 -8.053944
    vertex 93.75833235833166 -2.848011597277548 -8.053944
    vertex 66.32965672481359 208.68607880660545 -8.053944
  endloop
endfacet
facet normal -1.0784013435566488e-18 1.0080836994684284e-18 1.0
  outer loop
    vertex 66.32965672481359 208.68607880660545 -8.053944
    vertex 93.75833235833166 -2.848011597277548 -8.053944
    vertex 115.02551314122428 272.6530577674857 -8.053944
  endloop
endfacet
facet normal -1.0784013435566488e-18 1.0080836994684284e-18 1.0
  outer loop
    vertex 115.02551314122428 272.6530577674857 -8.053944
    vertex 93.75833235833166 -2.848011597277548 -8.053944
    vertex 100.77814673270373 53.40416672756834 -8.053944
  endloop
endfacet
facet normal -1.0784013435566488e-18 1.0080836994684284e-18 1.0
  outer loop
    vertex 115.02551314122428 272.6530577674857 -8.053944
    vertex 100.77814673270373 53.40416672756834 -8.053944
    vertex 117.60839997006642 113.38806350706376 -8.053944
  endloop
endfacet
facet normal -1.0784013435566488e-18 1.0080836994684284e-18 1.0
  outer loop
    vertex 115.02551314122428 272.6530577674857 -8.053944
    vertex 117.60839997006642 113.38806350706376 -8.053944
    vertex 160.11795822981148 318.1287318038656 -8.053944
  endloop
endfacet
facet normal -1.0784013435566488e-18 1.0080836994684284e-18 1.0
  outer loop
    vertex 160.11795822981148 318.1287318038656 -8.053944
    vertex 117.60839997006642 113.38806350706376 -8.053944
    vertex 144.4032374190504 170.69264887620193 -8.053944
  endloop
endfacet
facet normal -1.0784013435566488e-18 1.0080836994684284e-18 1.0
  outer loop
    vertex 160.11795822981148 318.1287318038656 -8.053944
    vertex 144.4032374190504 170.69264887620193 -8.053944
    vertex 181.7807002887287 225.21010578533566 -8.053944
  endloop
endfacet
facet normal -1.0784013435566488e-18 1.0080836994684284e-18 1.0
  outer loop
    vertex 160.11795822981148 318.1287318038656 -8.053944
    vertex 181.7807002887287 225.21010578533566 -8.053944
    vertex 212.74546388972442 363.4429703553186 -8.053944
  endloop
endfacet
facet normal -1.0784013435566488e-18 1.0080836994684284e-18 1.0
  outer loop
    vertex 212.74546388972442 363.4429703553186 -8.053944
    vertex 181.7807002887287 225.21010578533566 -8.053944
    vertex 217.35887325482102 262.7985326111952 -8.053944
  endloop
endfacet
facet normal -1.0784013435566488e-18 1.0080836994684284e-18 1.0
  outer loop
    vertex 212.74546388972442 363.4429703553186 -8.053944
    vertex 217.35887325482102 262.7985326111952 -8.053944
    vertex 270.87629429703867 406.19930724646287 -8.053943999999998
  endloop
endfacet
facet normal -1.0784013435566488e-18 1.0080836994684284e-18 1.0
  outer loop
    vertex 270.87629429703867 406.19930724646287 -8.053943999999998
    vertex 217.35887325482102 262.7985326111952 -8.053944
    vertex 260.87908522510145 299.13789884295534 -8.053944
  endloop
endfacet
facet normal -1.0784013435566488e-18 1.0080836994684284e-18 1.0
  outer loop
    vertex 270.87629429703867 406.19930724646287 -8.053943999999998
    vertex 260.87908522510145 299.13789884295534 -8.053944
    vertex 307.9294138808016 328.978761216755 -8.053944
  endloop
endfacet
facet normal -1.0784013435566488e-18 1.0080836994684284e-18 1.0
  outer loop
    vertex 270.87629429703867 406.19930724646287 -8.053943999999998
    vertex 307.9294138808016 328.978761216755 -8.053944
    vertex 336.55358769497855 441.97822597342514 -8.053943999999998
  endloop
endfacet
facet normal -1.0784013435566488e-18 1.0080836994684284e-18 1.0
  outer loop
    vertex 336.55358769497855 441.97822597342514 -8.053943999999998
    vertex 307.9294138808016 328.978761216755 -8.053944
    vertex 356.8382199064441 351.7844211639654 -8.053944
  endloop
endfacet
facet normal -1.0784013435566488e-18 1.0080836994684284e-18 1.0
  outer loop
    vertex 336.55358769497855 441.97822597342514 -8.053943999999998
    vertex 356.8382199064441 351.7844211639654 -8.053944
    vertex 432.15657993969 469.60553146697714 -8.053944
  endloop
endfacet
facet normal -1.0784013435566488e-18 1.0080836994684284e-18 1.0
  outer loop
    vertex 432.15657993969 469.60553146697714 -8.053944
    vertex 356.8382199064441 351.7844211639654 -8.053944
    vertex 427.37608897117804 370.06297121519646 -8.053944
  endloop
endfacet
facet normal -1.0784013435566488e-18 1.0080836994684284e-18 1.0
  outer loop
    vertex 432.15657993969 469.60553146697714 -8.053944
    vertex 427.37608897117804 370.06297121519646 -8.053944
    vertex 495.12499015457496 376.602420814071 -8.053944
  endloop
endfacet
facet normal -1.0784013435566488e-18 1.0080836994684284e-18 1.0
  outer loop
    vertex 432.15657993969 469.60553146697714 -8.053944
    vertex 495.12499015457496 376.602420814071 -8.053944
    vertex 506.833544160146 475.27950331762577 -8.053944
  endloop
endfacet
facet normal -1.0784013435566488e-18 1.0080836994684284e-18 1.0
  outer loop
    vertex 506.833544160146 475.27950331762577 -8.053944
    vertex 495.12499015457496 376.602420814071 -8.053944
    vertex 555.4587732492887 371.2827084006201 -8.053944
  endloop
endfacet
facet normal -1.0784013435566488e-18 1.0080836994684284e-18 1.0
  outer loop
    vertex 506.833544160146 475.27950331762577 -8.053944
    vertex 555.4587732492887 371.2827084006201 -8.053944
    vertex 580.3120755494289 472.09795953025696 -8.053944
  endloop
endfacet
facet normal -1.0784013435566488e-18 1.0080836994684284e-18 1.0
  outer loop
    vertex 580.3120755494289 472.09795953025696 -8.053944
    vertex 555.4587732492887 371.2827084006201 -8.053944
    vertex 608.656627757729 356.3204802100854 -8.053944
  endloop
endfacet
facet normal -1.0784013435566488e-18 1.0080836994684284e-18 1.0
  outer loop
    vertex 580.3120755494289 472.09795953025696 -8.053944
    vertex 608.656627757729 356.3204802100854 -8.053944
    vertex 639.3725999666719 456.4814454683506 -8.053944
  endloop
endfacet
facet normal -1.0784013435566488e-18 1.0080836994684284e-18 1.0
  outer loop
    vertex 639.3725999666719 456.4814454683506 -8.053944
    vertex 608.656627757729 356.3204802100854 -8.053944
    vertex 665.5352983209236 329.84532056689676 -8.053944
  endloop
endfacet
facet normal -1.0784013435566488e-18 1.0080836994684284e-18 1.0
  outer loop
    vertex 639.3725999666719 456.4814454683506 -8.053944
    vertex 665.5352983209236 329.84532056689676 -8.053944
    vertex 697.3305461130601 429.0192757850141 -8.053944
  endloop
endfacet
facet normal -1.0784013435566488e-18 1.0080836994684284e-18 1.0
  outer loop
    vertex 697.3305461130601 429.0192757850141 -8.053944
    vertex 665.5352983209236 329.84532056689676 -8.053944
    vertex 725.2400922221728 291.1942773528385 -8.053944
  endloop
endfacet
facet normal -1.0784013435566488e-18 1.0080836994684284e-18 1.0
  outer loop
    vertex 697.3305461130601 429.0192757850141 -8.053944
    vertex 725.2400922221728 291.1942773528385 -8.053944
    vertex 772.0010186051064 337.267651073907 -8.053944
  endloop
endfacet
facet normal -1.0784013435566488e-18 1.0080836994684284e-18 1.0
  outer loop
    vertex 772.0010186051064 337.267651073907 -8.053944
    vertex 725.2400922221728 291.1942773528385 -8.053944
    vertex 785.8110103767225 239.7700527729948 -8.053943999999996
  endloop
endfacet
facet normal -1.0784013435566488e-18 1.0080836994684284e-18 1.0
  outer loop
    vertex 772.0010186051064 337.267651073907 -8.053944
    vertex 785.8110103767225 239.7700527729948 -8.053943999999996
    vertex 841.1986604766264 286.07400602491845 -8.053944
  endloop
endfacet
facet normal -1.0784013435566488e-18 1.0080836994684284e-18 1.0
  outer loop
    vertex 841.1986604766264 286.07400602491845 -8.053944
    vertex 785.8110103767225 239.7700527729948 -8.053943999999996
    vertex 787.9186564960434 238.15393390226598 -8.053943999999996
  endloop
endfacet
facet normal -1.0784013435566488e-18 1.0080836994684284e-18 1.0
  outer loop
    vertex 841.1986604766264 286.07400602491845 -8.053944
    vertex 787.9186564960434 238.15393390226598 -8.053943999999996
    vertex 817.0147585136978 260.64195707956964 -8.053944
  endloop
endfacet
facet normal 0.7568019657425983 0.42449098797504875 0.49704948020906964
  outer loop
    vertex 771.1218543627986 334.9983444223844 32.419046231935305
    vertex 747.523665279536 311.31172476684685 88.57826895922956
    vertex 812.7546020327054 260.7978637878583 32.39830394472204
  endloop
endfacet
facet normal 1.0784013435566511e-18 -1.00808369946843e-18 -1.0
  outer loop
    vertex 7.902501666944439 66.77063006977927 -8.053944
    vertex 93.75833235833166 -2.848011597277548 -8.053944
    vertex 7.219114195322617e-13 1.4438228390645235e-12 -8.053944
  endloop
endfacet
facet normal 1.0784013435566511e-18 -1.00808369946843e-18 -1.0
  outer loop
    vertex 93.75833235833166 -2.848011597277548 -8.053944
    vertex 7.902501666944439 66.77063006977927 -8.053944
    vertex 27.782090466406288 136.2221429160867 -8.053944
  endloop
endfacet
facet normal 1.0784013435566511e-18 -1.00808369946843e-18 -1.0
  outer loop
    vertex 93.75833235833166 -2.848011597277548 -8.053944
    vertex 27.782090466406288 136.2221429160867 -8.053944
    vertex 66.32965672481359 208.68607880660545 -8.053944
  endloop
endfacet
facet normal 1.0784013435566511e-18 -1.00808369946843e-18 -1.0
  outer loop
    vertex 93.75833235833166 -2.848011597277548 -8.053944
    vertex 66.32965672481359 208.68607880660545 -8.053944
    vertex 115.02551314122428 272.6530577674857 -8.053944
  endloop
endfacet
facet normal 1.0784013435566511e-18 -1.00808369946843e-18 -1.0
  outer loop
    vertex 93.75833235833166 -2.848011597277548 -8.053944
    vertex 115.02551314122428 272.6530577674857 -8.053944
    vertex 100.77814673270373 53.40416672756834 -8.053944
  endloop
endfacet
facet normal 1.0784013435566511e-18 -1.00808369946843e-18 -1.0
  outer loop
    vertex 100.77814673270373 53.40416672756834 -8.053944
    vertex 115.02551314122428 272.6530577674857 -8.053944
    vertex 117.60839997006642 113.38806350706376 -8.053944
  endloop
endfacet
facet normal 1.0784013435566511e-18 -1.00808369946843e-18 -1.0
  outer loop
    vertex 117.60839997006642 113.38806350706376 -8.053944
    vertex 115.02551314122428 272.6530577674857 -8.053944
    vertex 160.11795822981148 318.1287318038656 -8.053944
  endloop
endfacet
facet normal 1.0784013435566511e-18 -1.00808369946843e-18 -1.0
  outer loop
    vertex 117.60839997006642 113.38806350706376 -8.053944
    vertex 160.11795822981148 318.1287318038656 -8.053944
    vertex 144.4032374190504 170.69264887620193 -8.053944
  endloop
endfacet
facet normal 1.0784013435566511e-18 -1.00808369946843e-18 -1.0
  outer loop
    vertex 144.4032374190504 170.69264887620193 -8.053944
    vertex 160.11795822981148 318.1287318038656 -8.053944
    vertex 181.7807002887287 225.21010578533566 -8.053944
  endloop
endfacet
facet normal 1.0784013435566511e-18 -1.00808369946843e-18 -1.0
  outer loop
    vertex 181.7807002887287 225.21010578533566 -8.053944
    vertex 160.11795822981148 318.1287318038656 -8.053944
    vertex 212.74546388972442 363.4429703553186 -8.053944
  endloop
endfacet
facet normal 1.0784013435566511e-18 -1.00808369946843e-18 -1.0
  outer loop
    vertex 181.7807002887287 225.21010578533566 -8.053944
    vertex 212.74546388972442 363.4429703553186 -8.053944
    vertex 217.35887325482102 262.7985326111952 -8.053944
  endloop
endfacet
facet normal 1.0784013435566511e-18 -1.00808369946843e-18 -1.0
  outer loop
    vertex 217.35887325482102 262.7985326111952 -8.053944
    vertex 212.74546388972442 363.4429703553186 -8.053944
    vertex 270.87629429703867 406.19930724646287 -8.053943999999998
  endloop
endfacet
facet normal 1.0784013435566511e-18 -1.00808369946843e-18 -1.0
  outer loop
    vertex 217.35887325482102 262.7985326111952 -8.053944
    vertex 270.87629429703867 406.19930724646287 -8.053943999999998
    vertex 260.87908522510145 299.13789884295534 -8.053944
  endloop
endfacet
facet normal 1.0784013435566511e-18 -1.00808369946843e-18 -1.0
  outer loop
    vertex 260.87908522510145 299.13789884295534 -8.053944
    vertex 270.87629429703867 406.19930724646287 -8.053943999999998
    vertex 307.9294138808016 328.978761216755 -8.053944
  endloop
endfacet
facet normal 1.0784013435566511e-18 -1.00808369946843e-18 -1.0
  outer loop
    vertex 307.9294138808016 328.978761216755 -8.053944
    vertex 270.87629429703867 406.19930724646287 -8.053943999999998
    vertex 336.55358769497855 441.97822597342514 -8.053943999999998
  endloop
endfacet
facet normal 1.0784013435566511e-18 -1.00808369946843e-18 -1.0
  outer loop
    vertex 307.9294138808016 328.978761216755 -8.053944
    vertex 336.55358769497855 441.97822597342514 -8.053943999999998
    vertex 356.8382199064441 351.7844211639654 -8.053944
  endloop
endfacet
facet normal 1.0784013435566511e-18 -1.00808369946843e-18 -1.0
  outer loop
    vertex 356.8382199064441 351.7844211639654 -8.053944
    vertex 336.55358769497855 441.97822597342514 -8.053943999999998
    vertex 432.15657993969 469.60553146697714 -8.053944
  endloop
endfacet
facet normal 1.0784013435566511e-18 -1.00808369946843e-18 -1.0
  outer loop
    vertex 356.8382199064441 351.7844211639654 -8.053944
    vertex 432.15657993969 469.60553146697714 -8.053944
    vertex 427.37608897117804 370.06297121519646 -8.053944
  endloop
endfacet
facet normal 1.0784013435566511e-18 -1.00808369946843e-18 -1.0
  outer loop
    vertex 427.37608897117804 370.06297121519646 -8.053944
    vertex 432.15657993969 469.60553146697714 -8.053944
    vertex 495.12499015457496 376.602420814071 -8.053944
  endloop
endfacet
facet normal 1.0784013435566511e-18 -1.00808369946843e-18 -1.0
  outer loop
    vertex 495.12499015457496 376.602420814071 -8.053944
    vertex 432.15657993969 469.60553146697714 -8.053944
    vertex 506.833544160146 475.27950331762577 -8.053944
  endloop
endfacet
facet normal 1.0784013435566511e-18 -1.00808369946843e-18 -1.0
  outer loop
    vertex 495.12499015457496 376.602420814071 -8.053944
    vertex 506.833544160146 475.27950331762577 -8.053944
    vertex 555.4587732492887 371.2827084006201 -8.053944
  endloop
endfacet
facet normal 1.0784013435566511e-18 -1.00808369946843e-18 -1.0
  outer loop
    vertex 555.4587732492887 371.2827084006201 -8.053944
    vertex 506.833544160146 475.27950331762577 -8.053944
    vertex 580.3120755494289 472.09795953025696 -8.053944
  endloop
endfacet
facet normal 1.0784013435566511e-18 -1.00808369946843e-18 -1.0
  outer loop
    vertex 555.4587732492887 371.2827084006201 -8.053944
    vertex 580.3120755494289 472.09795953025696 -8.053944
    vertex 608.656627757729 356.3204802100854 -8.053944
  endloop
endfacet
facet normal 1.0784013435566511e-18 -1.00808369946843e-18 -1.0
  outer loop
    vertex 608.656627757729 356.3204802100854 -8.053944
    vertex 580.3120755494289 472.09795953025696 -8.053944
    vertex 639.3725999666719 456.4814454683506 -8.053944
  endloop
endfacet
facet normal 1.0784013435566511e-18 -1.00808369946843e-18 -1.0
  outer loop
    vertex 608.656627757729 356.3204802100854 -8.053944
    vertex 639.3725999666719 456.4814454683506 -8.053944
    vertex 665.5352983209236 329.84532056689676 -8.053944
  endloop
endfacet
facet normal 1.0784013435566511e-18 -1.00808369946843e-18 -1.0
  outer loop
    vertex 665.5352983209236 329.84532056689676 -8.053944
    vertex 639.3725999666719 456.4814454683506 -8.053944
    vertex 697.3305461130601 429.0192757850141 -8.053944
  endloop
endfacet
facet normal 1.0784013435566511e-18 -1.00808369946843e-18 -1.0
  outer loop
    vertex 665.5352983209236 329.84532056689676 -8.053944
    vertex 697.3305461130601 429.0192757850141 -8.053944
    vertex 725.2400922221728 291.1942773528385 -8.053944
  endloop
endfacet
facet normal 1.0784013435566511e-18 -1.00808369946843e-18 -1.0
  outer loop
    vertex 725.2400922221728 291.1942773528385 -8.053944
    vertex 697.3305461130601 429.0192757850141 -8.053944
    vertex 772.0010186051064 337.267651073907 -8.053944
  endloop
endfacet
facet normal 1.0784013435566511e-18 -1.00808369946843e-18 -1.0
  outer loop
    vertex 725.2400922221728 291.1942773528385 -8.053944
    vertex 772.0010186051064 337.267651073907 -8.053944
    vertex 785.8110103767225 239.7700527729948 -8.053943999999996
  endloop
endfacet
facet normal 1.0784013435566511e-18 -1.00808369946843e-18 -1.0
  outer loop
    vertex 785.8110103767225 239.7700527729948 -8.053943999999996
    vertex 772.0010186051064 337.267651073907 -8.053944
    vertex 841.1986604766264 286.07400602491845 -8.053944
  endloop
endfacet
facet normal 1.0784013435566511e-18 -1.00808369946843e-18 -1.0
  outer loop
    vertex 785.8110103767225 239.7700527729948 -8.053943999999996
    vertex 841.1986604766264 286.07400602491845 -8.053944
    vertex 787.9186564960434 238.15393390226598 -8.053943999999996
  endloop
endfacet
facet normal 1.0784013435566511e-18 -1.00808369946843e-18 -1.0
  outer loop
    vertex 787.9186564960434 238.15393390226598 -8.053943999999996
    vertex 841.1986604766264 286.07400602491845 -8.053944
    vertex 817.0147585136978 260.64195707956964 -8.053944
  endloop
endfacet
facet normal 0.6115270401858275 -0.791223532967493 4.722321272474323e-16
  outer loop
    vertex 817.0147585136978 260.6419570795697 30.501346941537978
    vertex 787.9186564960434 238.15393390226598 -8.053943999999996
    vertex 817.0147585136978 260.64195707956964 -8.053944
  endloop
endfacet
facet normal 0.6115270401858275 -0.791223532967493 4.722321272474323e-16
  outer loop
    vertex 787.9186564960434 238.15393390226598 -8.053943999999996
    vertex 817.0147585136978 260.6419570795697 30.501346941537978
    vertex 787.9186564960434 238.15393390226598 30.501346941537978
  endloop
endfacet
facet normal 0.1663416167858462 0.5525570475191326 0.8167075215534688
  outer loop
    vertex 638.76498656967 453.61555217557026 48.08189675153373
    vertex 563.0747995472897 393.84175291793224 103.93893359399529
    vertex 622.9662873282679 378.4777377950262 102.135409032297
  endloop
endfacet
facet normal 0.6031103769320618 -0.08997240721745463 0.792567245838713
  outer loop
    vertex 841.1986604766264 286.07400602491856 14.985465318835523
    vertex 837.0575056423315 286.1735836347101 18.148014242556236
    vertex 817.0147585136978 260.6419570795697 30.501346941537978
  endloop
endfacet
facet normal -0.5614391690680773 0.6062727887430392 0.5632223051920842
  outer loop
    vertex 246.80495212840452 316.1954843278592 101.86942048406371
    vertex 213.83752216181293 363.03146511439405 18.590426134355695
    vertex 160.5916694665513 317.3250922124362 14.713134502226726
  endloop
endfacet
facet normal 0.01718929547775082 0.6316296592791852 0.775079674381827
  outer loop
    vertex 580.0514860542349 469.8788754412237 46.3868868549011
    vertex 507.0038468985646 473.5025921870429 45.05385032428746
    vertex 497.7103216480319 399.3988841394312 105.64871633526455
  endloop
endfacet
facet normal 0.07131627695260567 0.5918036231176577 0.8029212042949373
  outer loop
    vertex 580.0514860542349 469.8788754412237 46.3868868549011
    vertex 497.7103216480319 399.3988841394312 105.64871633526455
    vertex 563.0747995472897 393.84175291793224 103.93893359399529
  endloop
endfacet
facet normal -0.5327113145490088 0.6299337206413397 0.5651567596255271
  outer loop
    vertex 246.80495212840452 316.1954843278592 101.86942048406371
    vertex 271.97216830440556 405.7011602125601 25.827186388895836
    vertex 213.83752216181293 363.03146511439405 18.590426134355695
  endloop
endfacet
facet normal 0.33941763965651217 0.6729689640529121 0.6571974127395456
  outer loop
    vertex 638.76498656967 453.61555217557026 48.08189675153373
    vertex 697.3305461130598 429.0192757850143 43.02154003252948
    vertex 639.3725999666719 456.4814454683505 44.83341782575214
  endloop
endfacet
facet normal -0.757602646831327 0.18040035911543342 0.6272909531829629
  outer loop
    vertex 95.86328391922797 119.02833218692956 94.68950861072376
    vertex 9.154996652295562 66.63038980611437 5.037617366522727
    vertex 78.45361909970995 56.61799006309584 91.61157482854587
  endloop
endfacet
facet normal -0.7600543627690542 0.1995745284128492 0.6184556356316238
  outer loop
    vertex 28.974121799932707 136.08702917408456 6.980903866767949
    vertex 9.154996652295562 66.63038980611437 5.037617366522727
    vertex 95.86328391922797 119.02833218692956 94.68950861072376
  endloop
endfacet
facet normal -0.09604130988767341 0.6567451774083175 0.7479718168126239
  outer loop
    vertex 507.0038468985646 473.5025921870429 45.05385032428746
    vertex 431.65809258537456 467.38425358425906 40.75139467656308
    vertex 425.2510393303943 392.5798422039475 105.60957989868346
  endloop
endfacet
facet normal 0.006176501173562491 -0.028267492874321606 0.9995813121901855
  outer loop
    vertex 217.35887325482096 262.7985326111952 99.90880876288169
    vertex 202.33549333673224 278.30279509445563 100.44008975671953
    vertex 181.78070028872864 225.21010578533566 99.06567379216877
  endloop
endfacet
facet normal -0.008424544182167277 -0.049333829511066477 0.9987468149241309
  outer loop
    vertex 356.8382199064442 351.7844211639654 104.31018832836992
    vertex 348.7326501523251 372.55497282453604 105.26779350884884
    vertex 297.0008989185939 348.4081715296919 103.63868132756944
  endloop
endfacet
facet normal -0.01269920904394847 -0.023047402697386254 0.9996537137021815
  outer loop
    vertex 307.9294138808015 328.978761216755 102.94064508220703
    vertex 246.80495212840452 316.1954843278592 101.86942048406371
    vertex 260.87908522510145 299.13789884295534 101.65494353022503
  endloop
endfacet
facet normal 0.08887389605902891 -0.11098340550318271 0.9898404489119471
  outer loop
    vertex 725.2400922221727 291.1942773528387 87.20973119463928
    vertex 683.2936243330719 350.0404899548333 97.57392586260804
    vertex 665.5352983209234 329.8453205668968 96.90404310127043
  endloop
endfacet
facet normal -0.40233411067196845 0.6706306446536011 0.6232028576966666
  outer loop
    vertex 297.0008989185939 348.4081715296919 103.63868132756944
    vertex 337.15229596642445 440.7510495919833 30.189584207275253
    vertex 271.97216830440556 405.7011602125601 25.827186388895836
  endloop
endfacet
facet normal 0.05875132879351399 -0.13238739804737304 0.9894553341122796
  outer loop
    vertex 747.523665279536 311.31172476684685 88.57826895922956
    vertex 683.2936243330719 350.0404899548333 97.57392586260804
    vertex 725.2400922221727 291.1942773528387 87.20973119463928
  endloop
endfacet
facet normal 0.005960506602565427 -0.01637616240680015 0.9998481353014902
  outer loop
    vertex 495.12499015457496 376.6024208140709 104.93134390582152
    vertex 425.2510393303943 392.5798422039475 105.60957989868346
    vertex 427.3760889711779 370.06297121519646 105.2281156591123
  endloop
endfacet
facet normal 0.02387705624240848 -0.026628399751196165 0.9993602025855779
  outer loop
    vertex 563.0747995472897 393.84175291793224 103.93893359399529
    vertex 497.7103216480319 399.3988841394312 105.64871633526455
    vertex 555.4587732492886 371.28270840062 103.51980246783349
  endloop
endfacet
facet normal -0.06030470166616494 0.6363854511865668 0.7690103383407955
  outer loop
    vertex 507.0038468985646 473.5025921870429 45.05385032428746
    vertex 425.2510393303943 392.5798422039475 105.60957989868346
    vertex 497.7103216480319 399.3988841394312 105.64871633526455
  endloop
endfacet
facet normal -0.3342281040852368 0.6714208756298046 0.6614269288501148
  outer loop
    vertex 348.7326501523251 372.55497282453604 105.26779350884884
    vertex 337.15229596642445 440.7510495919833 30.189584207275253
    vertex 297.0008989185939 348.4081715296919 103.63868132756944
  endloop
endfacet
facet normal -0.269797157227758 0.6916932508511039 0.6699029337738808
  outer loop
    vertex 348.7326501523251 372.55497282453604 105.26779350884884
    vertex 431.65809258537456 467.38425358425906 40.75139467656308
    vertex 337.15229596642445 440.7510495919833 30.189584207275253
  endloop
endfacet
facet normal -0.02255170685924153 -0.026053882568274185 0.9994061315205413
  outer loop
    vertex 117.60839997006642 113.38806350706375 95.03315127422978
    vertex 95.86328391922797 119.02833218692956 94.68950861072376
    vertex 100.77814673270373 53.404166727568324 93.08963273977666
  endloop
endfacet
facet normal 0.0024462299448983 -0.03173007021683332 0.9994934810208076
  outer loop
    vertex 497.7103216480319 399.3988841394312 105.64871633526455
    vertex 425.2510393303943 392.5798422039475 105.60957989868346
    vertex 495.12499015457496 376.6024208140709 104.93134390582152
  endloop
endfacet
facet normal 0.018210439965466983 -0.0329189362684849 0.9992921112023329
  outer loop
    vertex 202.33549333673224 278.30279509445563 100.44008975671953
    vertex 165.2130951592495 238.55427045236826 99.80717777934687
    vertex 181.78070028872864 225.21010578533566 99.06567379216877
  endloop
endfacet
facet normal -0.8420654875369934 0.44524175186989023 0.3044429291195922
  outer loop
    vertex 66.32965672481362 208.68607880660545 4.128739369931867
    vertex 27.7820904664063 136.2221429160867 3.4862366452537
    vertex 28.974121799932707 136.08702917408456 6.980903866767949
  endloop
endfacet
facet normal -0.174321680833153 0.6535410285483652 0.7365433290685954
  outer loop
    vertex 431.65809258537456 467.38425358425906 40.75139467656308
    vertex 348.7326501523251 372.55497282453604 105.26779350884884
    vertex 425.2510393303943 392.5798422039475 105.60957989868346
  endloop
endfacet
facet normal -0.008904425427700154 -0.040903789074262384 0.9991234114198161
  outer loop
    vertex 356.8382199064442 351.7844211639654 104.31018832836992
    vertex 297.0008989185939 348.4081715296919 103.63868132756944
    vertex 307.9294138808015 328.978761216755 102.94064508220703
  endloop
endfacet
facet normal -0.00769738790192102 -0.03209002722083885 0.9994553418599819
  outer loop
    vertex 165.2130951592495 238.55427045236826 99.80717777934687
    vertex 124.34174194177437 180.06969166422596 97.61460919391715
    vertex 144.4032374190504 170.69264887620193 97.46804091857548
  endloop
endfacet
facet normal -0.7053361060618027 0.36346343925415725 0.6086011056604423
  outer loop
    vertex 66.8793764513808 207.8951434328623 8.026450012452374
    vertex 28.974121799932707 136.08702917408456 6.980903866767949
    vertex 95.86328391922797 119.02833218692956 94.68950861072376
  endloop
endfacet
facet normal 0.020400867170564056 -0.03375774428477919 0.9992218068674706
  outer loop
    vertex 555.4587732492886 371.28270840062 103.51980246783349
    vertex 497.7103216480319 399.3988841394312 105.64871633526455
    vertex 495.12499015457496 376.6024208140709 104.93134390582152
  endloop
endfacet
facet normal 0.025562060066261754 0.755926525969031 0.6541572199567631
  outer loop
    vertex 580.0514860542349 469.8788754412237 46.3868868549011
    vertex 580.3120755494288 472.09795953025684 43.812389961484485
    vertex 507.0038468985646 473.5025921870429 45.05385032428746
  endloop
endfacet
facet normal -0.6125148933585851 0.5632156270992241 0.5546293021515802
  outer loop
    vertex 160.5916694665513 317.3250922124362 14.713134502226726
    vertex 165.2130951592495 238.55427045236826 99.80717777934687
    vertex 202.33549333673224 278.30279509445563 100.44008975671953
  endloop
endfacet
facet normal 0.4331311797971331 -0.5604062613704319 0.7059335686198517
  outer loop
    vertex 817.0147585136978 260.6419570795697 30.501346941537978
    vertex 785.8110103767225 239.7700527729948 33.077468074418924
    vertex 787.9186564960434 238.15393390226598 30.501346941537978
  endloop
endfacet
facet normal -0.09828291612189925 0.8678049450547369 0.4870883346346133
  outer loop
    vertex 507.0038468985646 473.5025921870429 45.05385032428746
    vertex 506.833544160146 475.2795033176257 41.85371185871087
    vertex 431.65809258537456 467.38425358425906 40.75139467656308
  endloop
endfacet
facet normal 0.06561608097372568 -0.04976893112889587 0.996603021976121
  outer loop
    vertex 665.5352983209234 329.8453205668968 96.90404310127043
    vertex 622.9662873282679 378.4777377950262 102.135409032297
    vertex 608.6566277577289 356.3204802100854 101.97105146759849
  endloop
endfacet
facet normal -0.07027217638887488 -0.029571384743214964 0.9970894415396945
  outer loop
    vertex 100.77814673270373 53.404166727568324 93.08963273977666
    vertex 95.86328391922797 119.02833218692956 94.68950861072376
    vertex 78.45361909970995 56.61799006309584 91.61157482854587
  endloop
endfacet
facet normal 0.021803469902131008 -0.025929570346649205 0.9994259682847275
  outer loop
    vertex 608.6566277577289 356.3204802100854 101.97105146759849
    vertex 563.0747995472897 393.84175291793224 103.93893359399529
    vertex 555.4587732492886 371.28270840062 103.51980246783349
  endloop
endfacet
facet normal -0.0016109327903426037 -0.035805720294142 0.999357471223267
  outer loop
    vertex 246.80495212840452 316.1954843278592 101.86942048406371
    vertex 202.33549333673224 278.30279509445563 100.44008975671953
    vertex 217.35887325482096 262.7985326111952 99.90880876288169
  endloop
endfacet
facet normal 0.01361618013215469 -0.03861572829899506 0.9991613609255249
  outer loop
    vertex 181.78070028872864 225.21010578533566 99.06567379216877
    vertex 165.2130951592495 238.55427045236826 99.80717777934687
    vertex 144.4032374190504 170.69264887620193 97.46804091857548
  endloop
endfacet
facet normal -0.01753035658253896 -0.027031386276211957 0.999480860624192
  outer loop
    vertex 260.87908522510145 299.13789884295534 101.65494353022503
    vertex 246.80495212840452 316.1954843278592 101.86942048406371
    vertex 217.35887325482096 262.7985326111952 99.90880876288169
  endloop
endfacet
facet normal -0.7013141099571611 0.6809216234328701 0.21096033256643257
  outer loop
    vertex 160.11795822981145 318.1287318038656 10.544407903613477
    vertex 115.54172843798146 271.8409682642372 11.759803090273726
    vertex 160.5916694665513 317.3250922124362 14.713134502226726
  endloop
endfacet
facet normal 0.3390107426001227 0.671687563373373 0.6587165806409115
  outer loop
    vertex 638.76498656967 453.61555217557026 48.08189675153373
    vertex 696.8825666600211 426.0529553724028 46.27682529510729
    vertex 697.3305461130598 429.0192757850143 43.02154003252948
  endloop
endfacet
facet normal 0.5601506811983262 0.5980923651639616 0.5731637960353302
  outer loop
    vertex 771.1218543627986 334.9983444223844 32.419046231935305
    vertex 841.1986604766264 286.07400602491856 14.985465318835523
    vertex 772.0010186051063 337.26765107390713 29.19183710864403
  endloop
endfacet
facet normal -0.4552387888593933 0.7972366558672201 0.3964484325350332
  outer loop
    vertex 337.15229596642445 440.7510495919833 30.189584207275253
    vertex 336.5535876949784 441.97822597342514 27.034305688769358
    vertex 271.97216830440556 405.7011602125601 25.827186388895836
  endloop
endfacet
facet normal 0.042258293187725345 -0.07021807594479094 0.9966361715628588
  outer loop
    vertex 683.2936243330719 350.0404899548333 97.57392586260804
    vertex 622.9662873282679 378.4777377950262 102.135409032297
    vertex 665.5352983209234 329.8453205668968 96.90404310127043
  endloop
endfacet
facet normal -0.010295040891146561 -0.03764412089842098 0.999238175959483
  outer loop
    vertex 144.4032374190504 170.69264887620193 97.46804091857548
    vertex 124.34174194177437 180.06969166422596 97.61460919391715
    vertex 117.60839997006642 113.38806350706375 95.03315127422978
  endloop
endfacet
facet normal 0.354621635313923 -0.4275303480756385 0.8315415186517161
  outer loop
    vertex 817.0147585136978 260.6419570795697 30.501346941537978
    vertex 812.7546020327054 260.7978637878583 32.39830394472204
    vertex 785.8110103767225 239.7700527729948 33.077468074418924
  endloop
endfacet
facet normal -0.6079113742584469 0.565947727433559 0.5569083684592975
  outer loop
    vertex 160.5916694665513 317.3250922124362 14.713134502226726
    vertex 115.54172843798146 271.8409682642372 11.759803090273726
    vertex 165.2130951592495 238.55427045236826 99.80717777934687
  endloop
endfacet
facet normal -0.4391189225892885 0.6502111471601281 0.6200000289780097
  outer loop
    vertex 297.0008989185939 348.4081715296919 103.63868132756944
    vertex 271.97216830440556 405.7011602125601 25.827186388895836
    vertex 246.80495212840452 316.1954843278592 101.86942048406371
  endloop
endfacet
facet normal -0.0009673139749405064 -0.04643172548893859 0.9989209974626593
  outer loop
    vertex 427.3760889711779 370.06297121519646 105.2281156591123
    vertex 348.7326501523251 372.55497282453604 105.26779350884884
    vertex 356.8382199064442 351.7844211639654 104.31018832836992
  endloop
endfacet
facet normal -0.008950125822321043 -0.04092944189042208 0.999121952533475
  outer loop
    vertex 307.9294138808015 328.978761216755 102.94064508220703
    vertex 297.0008989185939 348.4081715296919 103.63868132756944
    vertex 246.80495212840452 316.1954843278592 101.86942048406371
  endloop
endfacet
facet normal -0.7804913206035685 0.5820347157878881 0.22818608213519517
  outer loop
    vertex 115.02551314122428 272.6530577674857 7.528117876289717
    vertex 66.32965672481362 208.68607880660545 4.128739369931867
    vertex 66.8793764513808 207.8951434328623 8.026450012452374
  endloop
endfacet
facet normal -0.6346708135953194 0.7143577494981764 0.29476425173713994
  outer loop
    vertex 213.83752216181293 363.03146511439405 18.590426134355695
    vertex 212.74546388972442 363.4429703553186 15.241785775029813
    vertex 160.5916694665513 317.3250922124362 14.713134502226726
  endloop
endfacet
facet normal 0.6946541111361917 0.4856013786594591 0.5307042179271049
  outer loop
    vertex 696.8825666600211 426.0529553724028 46.27682529510729
    vertex 771.1218543627986 334.9983444223844 32.419046231935305
    vertex 772.0010186051063 337.26765107390713 29.19183710864403
  endloop
endfacet
facet normal 0.18317094519801475 0.7353948495897804 0.6524130746943152
  outer loop
    vertex 580.0514860542349 469.8788754412237 46.3868868549011
    vertex 639.3725999666719 456.4814454683505 44.83341782575214
    vertex 580.3120755494288 472.09795953025684 43.812389961484485
  endloop
endfacet
facet normal -0.28824721528780545 0.8419344814119124 0.45613580421677014
  outer loop
    vertex 431.65809258537456 467.38425358425906 40.75139467656308
    vertex 432.1565799396899 469.6055314669771 36.96637531487342
    vertex 337.15229596642445 440.7510495919833 30.189584207275253
  endloop
endfacet
facet normal -0.7004565763577982 0.6802278053049182 0.21598777170748876
  outer loop
    vertex 160.11795822981145 318.1287318038656 10.544407903613477
    vertex 115.02551314122428 272.6530577674857 7.528117876289717
    vertex 115.54172843798146 271.8409682642372 11.759803090273726
  endloop
endfacet
facet normal -0.29269894326243895 0.8711061294416875 0.39433670874288856
  outer loop
    vertex 432.1565799396899 469.6055314669771 36.96637531487342
    vertex 336.5535876949784 441.97822597342514 27.034305688769358
    vertex 337.15229596642445 440.7510495919833 30.189584207275253
  endloop
endfacet
facet normal 0.18028213261072376 0.7206253322733884 0.6694755284154889
  outer loop
    vertex 638.76498656967 453.61555217557026 48.08189675153373
    vertex 639.3725999666719 456.4814454683505 44.83341782575214
    vertex 580.0514860542349 469.8788754412237 46.3868868549011
  endloop
endfacet
facet normal 0.364803389437926 -0.4409476731526956 0.8200509963385355
  outer loop
    vertex 812.7546020327054 260.7978637878583 32.39830394472204
    vertex 747.523665279536 311.31172476684685 88.57826895922956
    vertex 785.8110103767225 239.7700527729948 33.077468074418924
  endloop
endfacet
facet normal 0.35378096095387185 -0.44773807960809486 0.8212001240473666
  outer loop
    vertex 785.8110103767225 239.7700527729948 33.077468074418924
    vertex 747.523665279536 311.31172476684685 88.57826895922956
    vertex 725.2400922221727 291.1942773528387 87.20973119463928
  endloop
endfacet
facet normal -0.6669174796146692 0.4739512656627323 0.5749706715660473
  outer loop
    vertex 115.54172843798146 271.8409682642372 11.759803090273726
    vertex 66.8793764513808 207.8951434328623 8.026450012452374
    vertex 124.34174194177437 180.06969166422596 97.61460919391715
  endloop
endfacet
facet normal -0.07187678340346838 -0.040955469651286616 0.9965723142417782
  outer loop
    vertex 100.77814673270373 53.404166727568324 93.08963273977666
    vertex 78.45361909970995 56.61799006309584 91.61157482854587
    vertex 93.75833235833166 -2.848011597277548 90.27157727166144
  endloop
endfacet
facet normal -0.784210323932004 0.5846433113205443 0.20786141144188086
  outer loop
    vertex 115.02551314122428 272.6530577674857 7.528117876289717
    vertex 66.8793764513808 207.8951434328623 8.026450012452374
    vertex 115.54172843798146 271.8409682642372 11.759803090273726
  endloop
endfacet
facet normal -0.6878376959830705 0.45962655695016774 0.5618031079754147
  outer loop
    vertex 115.54172843798146 271.8409682642372 11.759803090273726
    vertex 124.34174194177437 180.06969166422596 97.61460919391715
    vertex 165.2130951592495 238.55427045236826 99.80717777934687
  endloop
endfacet
facet normal -0.5907796135094006 0.7546681092476735 0.28540408747287577
  outer loop
    vertex 270.87629429703856 406.19930724646287 22.51451133196299
    vertex 212.74546388972442 363.4429703553186 15.241785775029813
    vertex 213.83752216181293 363.03146511439405 18.590426134355695
  endloop
endfacet
facet normal 0.024187369837467783 -0.02303438888178331 0.9994420383740062
  outer loop
    vertex 622.9662873282679 378.4777377950262 102.135409032297
    vertex 563.0747995472897 393.84175291793224 103.93893359399529
    vertex 608.6566277577289 356.3204802100854 101.97105146759849
  endloop
endfacet
facet normal 0.40752982682500133 0.11820772454260638 0.9055089033833097
  outer loop
    vertex 837.0575056423315 286.1735836347101 18.148014242556236
    vertex 812.7546020327054 260.7978637878583 32.39830394472204
    vertex 817.0147585136978 260.6419570795697 30.501346941537978
  endloop
endfacet
facet normal -0.0979733095819143 0.8638815638141761 0.494074765912549
  outer loop
    vertex 506.833544160146 475.2795033176257 41.85371185871087
    vertex 432.1565799396899 469.6055314669771 36.96637531487342
    vertex 431.65809258537456 467.38425358425906 40.75139467656308
  endloop
endfacet
facet normal -0.9102145775979219 0.25097395467286926 0.3294260111225242
  outer loop
    vertex 27.7820904664063 136.2221429160867 3.4862366452537
    vertex 7.902501666944442 66.77063006977927 1.4700914033888521
    vertex 9.154996652295562 66.63038980611437 5.037617366522727
  endloop
endfacet
facet normal -3.238742043744045e-05 -0.01694188837915186 0.9998564753849442
  outer loop
    vertex 427.3760889711779 370.06297121519646 105.2281156591123
    vertex 425.2510393303943 392.5798422039475 105.60957989868346
    vertex 348.7326501523251 372.55497282453604 105.26779350884884
  endloop
endfacet
facet normal -0.9130110366888813 0.2515380419896618 0.32115332835937027
  outer loop
    vertex 27.7820904664063 136.2221429160867 3.4862366452537
    vertex 9.154996652295562 66.63038980611437 5.037617366522727
    vertex 28.974121799932707 136.08702917408456 6.980903866767949
  endloop
endfacet
facet normal -0.025160609279790632 -0.036134979444815626 0.9990301331797719
  outer loop
    vertex 124.34174194177437 180.06969166422596 97.61460919391715
    vertex 95.86328391922797 119.02833218692956 94.68950861072376
    vertex 117.60839997006642 113.38806350706375 95.03315127422978
  endloop
endfacet
facet normal -0.6482271643531049 0.7306083578697206 0.21450634211053826
  outer loop
    vertex 212.74546388972442 363.4429703553186 15.241785775029813
    vertex 160.11795822981145 318.1287318038656 10.544407903613477
    vertex 160.5916694665513 317.3250922124362 14.713134502226726
  endloop
endfacet
facet normal 0.29610732676726376 0.49736662862592507 0.8154427556634654
  outer loop
    vertex 696.8825666600211 426.0529553724028 46.27682529510729
    vertex 622.9662873282679 378.4777377950262 102.135409032297
    vertex 683.2936243330719 350.0404899548333 97.57392586260804
  endloop
endfacet
facet normal 0.6927388471518466 0.4830564426747187 0.5355085086505881
  outer loop
    vertex 697.3305461130598 429.0192757850143 43.02154003252948
    vertex 696.8825666600211 426.0529553724028 46.27682529510729
    vertex 772.0010186051063 337.26765107390713 29.19183710864403
  endloop
endfacet
facet normal -0.4738480231413497 0.8341671511179228 0.28219357710770776
  outer loop
    vertex 336.5535876949784 441.97822597342514 27.034305688769358
    vertex 270.87629429703856 406.19930724646287 22.51451133196299
    vertex 271.97216830440556 405.7011602125601 25.827186388895836
  endloop
endfacet
facet normal -0.7485479712118315 0.32143864409035094 0.5799595959030318
  outer loop
    vertex 66.8793764513808 207.8951434328623 8.026450012452374
    vertex 95.86328391922797 119.02833218692956 94.68950861072376
    vertex 124.34174194177437 180.06969166422596 97.61460919391715
  endloop
endfacet
facet normal -0.5876724773717412 0.7486011615994629 0.3069810420721375
  outer loop
    vertex 271.97216830440556 405.7011602125601 25.827186388895836
    vertex 270.87629429703856 406.19930724646287 22.51451133196299
    vertex 213.83752216181293 363.03146511439405 18.590426134355695
  endloop
endfacet
facet normal -0.5506805966025656 0.6254054376454619 0.5528281098939621
  outer loop
    vertex 246.80495212840452 316.1954843278592 101.86942048406371
    vertex 160.5916694665513 317.3250922124362 14.713134502226726
    vertex 202.33549333673224 278.30279509445563 100.44008975671953
  endloop
endfacet
facet normal 0.27322147705390876 0.5232425152300226 0.8071971845418194
  outer loop
    vertex 696.8825666600211 426.0529553724028 46.27682529510729
    vertex 638.76498656967 453.61555217557026 48.08189675153373
    vertex 622.9662873282679 378.4777377950262 102.135409032297
  endloop
endfacet
facet normal 0.13694037866021166 0.5782072845950359 0.8043156524236198
  outer loop
    vertex 638.76498656967 453.61555217557026 48.08189675153373
    vertex 580.0514860542349 469.8788754412237 46.3868868549011
    vertex 563.0747995472897 393.84175291793224 103.93893359399529
  endloop
endfacet
facet normal 0.5278542357560647 0.515559401991044 0.6749580793004987
  outer loop
    vertex 841.1986604766264 286.07400602491856 14.985465318835523
    vertex 771.1218543627986 334.9983444223844 32.419046231935305
    vertex 837.0575056423315 286.1735836347101 18.148014242556236
  endloop
endfacet
facet normal -0.8651371159386364 0.4535621009300859 0.21405417824762357
  outer loop
    vertex 66.32965672481362 208.68607880660545 4.128739369931867
    vertex 28.974121799932707 136.08702917408456 6.980903866767949
    vertex 66.8793764513808 207.8951434328623 8.026450012452374
  endloop
endfacet
facet normal 0.024958253905630327 0.8745574653989462 0.4842791811310429
  outer loop
    vertex 507.0038468985646 473.5025921870429 45.05385032428746
    vertex 580.3120755494288 472.09795953025684 43.812389961484485
    vertex 506.833544160146 475.2795033176257 41.85371185871087
  endloop
endfacet
facet normal -0.0878306266173701 -0.9961354230364465 -8.378005036650878e-16
  outer loop
    vertex 555.4587732492886 371.28270840062 103.51980246783349
    vertex 495.12499015457496 376.602420814071 -8.053944
    vertex 555.4587732492887 371.2827084006201 -8.053944
  endloop
endfacet
facet normal -0.0878306266173701 -0.9961354230364465 -8.378005036650878e-16
  outer loop
    vertex 495.12499015457496 376.602420814071 -8.053944
    vertex 555.4587732492886 371.28270840062 103.51980246783349
    vertex 495.12499015457496 376.6024208140709 104.93134390582152
  endloop
endfacet
facet normal -0.6472022007969124 -0.76231837921149 1.9975978258110087e-16
  outer loop
    vertex 785.8110103767225 239.7700527729948 -8.053943999999996
    vertex 725.2400922221727 291.1942773528387 87.20973119463928
    vertex 725.2400922221728 291.1942773528385 -8.053944
  endloop
endfacet
facet normal -0.6472022007969124 -0.76231837921149 1.9975978258110087e-16
  outer loop
    vertex 725.2400922221727 291.1942773528387 87.20973119463928
    vertex 785.8110103767225 239.7700527729948 -8.053943999999996
    vertex 785.8110103767225 239.7700527729948 33.077468074418924
  endloop
endfacet
facet normal 0.9058636522292439 -0.42356940820825983 5.154852822269206e-17
  outer loop
    vertex 117.60839997006642 113.38806350706376 -8.053944
    vertex 144.4032374190504 170.69264887620193 97.46804091857548
    vertex 117.60839997006642 113.38806350706375 95.03315127422978
  endloop
endfacet
facet normal 0.9058636522292439 -0.42356940820825983 5.154852822269206e-17
  outer loop
    vertex 144.4032374190504 170.69264887620193 97.46804091857548
    vertex 117.60839997006642 113.38806350706376 -8.053944
    vertex 144.4032374190504 170.69264887620193 -8.053944
  endloop
endfacet
facet normal -0.7956768426676459 0.6057213567660019 6.431449497344606e-16
  outer loop
    vertex 115.02551314122428 272.6530577674857 7.528117876289717
    vertex 66.32965672481359 208.68607880660545 -8.053944
    vertex 66.32965672481362 208.68607880660545 4.128739369931867
  endloop
endfacet
facet normal -0.7956768426676459 0.6057213567660019 6.431449497344606e-16
  outer loop
    vertex 66.32965672481359 208.68607880660545 -8.053944
    vertex 115.02551314122428 272.6530577674857 7.528117876289717
    vertex 115.02551314122428 272.6530577674857 -8.053944
  endloop
endfacet
facet normal -0.7100924681283023 0.7041084339130274 -1.0242164720175143e-15
  outer loop
    vertex 160.11795822981145 318.1287318038656 10.544407903613477
    vertex 115.02551314122428 272.6530577674857 -8.053944
    vertex 115.02551314122428 272.6530577674857 7.528117876289717
  endloop
endfacet
facet normal -0.7100924681283023 0.7041084339130274 -1.0242164720175143e-15
  outer loop
    vertex 115.02551314122428 272.6530577674857 -8.053944
    vertex 160.11795822981145 318.1287318038656 10.544407903613477
    vertex 160.11795822981148 318.1287318038656 -8.053944
  endloop
endfacet
facet normal 0.2556301376717635 0.9667746545673999 2.096052332475344e-15
  outer loop
    vertex 580.3120755494288 472.09795953025684 43.812389961484485
    vertex 639.3725999666719 456.4814454683506 -8.053944
    vertex 580.3120755494289 472.09795953025696 -8.053944
  endloop
endfacet
facet normal 0.2556301376717635 0.9667746545673999 2.096052332475344e-15
  outer loop
    vertex 639.3725999666719 456.4814454683506 -8.053944
    vertex 580.3120755494288 472.09795953025684 43.812389961484485
    vertex 639.3725999666719 456.4814454683505 44.83341782575214
  endloop
endfacet
facet normal -0.2707511377404633 -0.9626493761553293 -5.323061091761435e-16
  outer loop
    vertex 608.6566277577289 356.3204802100854 101.97105146759849
    vertex 555.4587732492887 371.2827084006201 -8.053944
    vertex 608.656627757729 356.3204802100854 -8.053944
  endloop
endfacet
facet normal -0.2707511377404633 -0.9626493761553293 -5.323061091761435e-16
  outer loop
    vertex 555.4587732492887 371.2827084006201 -8.053944
    vertex 608.6566277577289 356.3204802100854 101.97105146759849
    vertex 555.4587732492886 371.28270840062 103.51980246783349
  endloop
endfacet
endsolid FLA Mould
