solid V2 Mould parts + mirrored
facet normal 0.4702663386299051 -0.8825245439938899 2.1874202642784853e-16
  outer loop
    vertex 888.6690430770246 695.1344112041414 2.18344190654281
    vertex 838.5857070948913 668.4467601932112 0.0
    vertex 888.6690430770246 695.1344112041414 0.0
  endloop
endfacet
facet normal 0.4702663386299051 -0.8825245439938899 2.1874202642784853e-16
  outer loop
    vertex 838.5857070948913 668.4467601932112 0.0
    vertex 888.6690430770246 695.1344112041414 2.18344190654281
    vertex 838.5857070948913 668.4467601932112 3.716801304247923
  endloop
endfacet
facet normal -0.6365620709561985 -0.4279266738101682 0.641613194737859
  outer loop
    vertex 864.6851224041305 756.413328544206 88.28042827750392
    vertex 853.7348624959384 778.7631682864289 92.3226962322208
    vertex 838.5857070948913 668.4467601932112 3.716801304247923
  endloop
endfacet
facet normal 0.612010829073631 -0.49066454782180213 0.620234670594472
  outer loop
    vertex 969.8732994084857 783.8553590394644 10.786017110736118
    vertex 887.066139101696 783.6219305126077 92.31055310861669
    vertex 937.2163593692428 734.1305076604864 3.672869494013662
  endloop
endfacet
facet normal 0.025205960070002906 -0.1704519140914478 0.985043554651017
  outer loop
    vertex 887.066139101696 783.6219305126077 92.31055310861669
    vertex 871.9228783428414 800.5757410674086 95.631736086547
    vertex 853.7348624959384 778.7631682864289 92.3226962322208
  endloop
endfacet
facet normal 0.5034960772267797 -0.625237145099421 0.5962970841830189
  outer loop
    vertex 864.6851224041305 756.413328544206 88.28042827750392
    vertex 888.7178628252127 696.8991424552773 5.585289162842477
    vertex 937.2163593692428 734.1305076604864 3.672869494013662
  endloop
endfacet
facet normal 0.02459255937715126 -0.166242127992707 0.9857782513850354
  outer loop
    vertex 887.066139101696 783.6219305126077 92.31055310861669
    vertex 853.7348624959384 778.7631682864289 92.3226962322208
    vertex 864.6851224041305 756.413328544206 88.28042827750392
  endloop
endfacet
facet normal 0.8300442337460282 -0.55769756143 0.0
  outer loop
    vertex 971.3147257631123 783.0741462987355 7.574447373349394
    vertex 937.9077211529324 733.3531264106339 0.0
    vertex 971.3147257631123 783.0741462987355 0.0
  endloop
endfacet
facet normal 0.7807190064798527 -0.5651668266568192 0.2665788644431
  outer loop
    vertex 971.3147257631123 783.0741462987355 7.574447373349394
    vertex 937.2163593692428 734.1305076604864 3.672869494013662
    vertex 937.9077211529324 733.3531264106339 0.0
  endloop
endfacet
facet normal 0.5927018301711168 -0.7580954302295306 0.27202179908402846
  outer loop
    vertex 888.7178628252127 696.8991424552773 5.585289162842477
    vertex 937.9077211529324 733.3531264106339 0.0
    vertex 937.2163593692428 734.1305076604864 3.672869494013662
  endloop
endfacet
facet normal 0.5568346004067593 -0.5502052656437917 0.622261515319475
  outer loop
    vertex 937.2163593692428 734.1305076604864 3.672869494013662
    vertex 887.066139101696 783.6219305126077 92.31055310861669
    vertex 864.6851224041305 756.413328544206 88.28042827750392
  endloop
endfacet
facet normal 0.0668913428008514 -0.13394025752743915 0.9887292630805372
  outer loop
    vertex 907.9244069321645 817.4299249000023 95.47928093739827
    vertex 871.9228783428414 800.5757410674086 95.631736086547
    vertex 887.066139101696 783.6219305126077 92.31055310861669
  endloop
endfacet
facet normal 0.4388944908540153 -0.8001631892576683 0.40879150731759534
  outer loop
    vertex 888.7178628252127 696.8991424552773 5.585289162842477
    vertex 838.5857070948913 668.4467601932112 3.716801304247923
    vertex 888.6690430770246 695.1344112041414 2.18344190654281
  endloop
endfacet
facet normal 0.7151098522560447 -0.5341502823866462 0.45088953750625443
  outer loop
    vertex 969.8732994084857 783.8553590394644 10.786017110736118
    vertex 937.2163593692428 734.1305076604864 3.672869494013662
    vertex 971.3147257631123 783.0741462987355 7.574447373349394
  endloop
endfacet
facet normal 0.5801549596974547 -0.7263845525393386 0.36849111871342266
  outer loop
    vertex 888.7178628252127 696.8991424552773 5.585289162842477
    vertex 888.6690430770246 695.1344112041414 2.18344190654281
    vertex 937.9077211529324 733.3531264106339 0.0
  endloop
endfacet
facet normal 0.6281384335210618 -0.4472177961279373 0.6367404111254267
  outer loop
    vertex 969.8732994084857 783.8553590394644 10.786017110736118
    vertex 907.9244069321645 817.4299249000023 95.47928093739827
    vertex 887.066139101696 783.6219305126077 92.31055310861669
  endloop
endfacet
facet normal 0.06489775849855192 -0.12967550183741283 0.989430414513865
  outer loop
    vertex 907.9244069321645 817.4299249000023 95.47928093739827
    vertex 888.5174946693376 827.9479281745083 98.1306977724807
    vertex 871.9228783428414 800.5757410674086 95.631736086547
  endloop
endfacet
facet normal 0.37342694221204314 -0.6980857436740491 0.6109243924653962
  outer loop
    vertex 864.6851224041305 756.413328544206 88.28042827750392
    vertex 838.5857070948913 668.4467601932112 3.716801304247923
    vertex 888.7178628252127 696.8991424552773 5.585289162842477
  endloop
endfacet
facet normal 0.6131602578397148 -0.7899585420804908 1.1843623995968417e-15
  outer loop
    vertex 888.6690430770246 695.1344112041414 2.18344190654281
    vertex 888.6690430770246 695.1344112041414 0.0
    vertex 937.9077211529324 733.3531264106339 0.0
  endloop
endfacet
facet normal -0.990702276547116 0.13604778294541137 5.640241770590318e-17
  outer loop
    vertex 853.7348624959384 778.7631682864289 92.3226962322208
    vertex 838.5857070948913 668.4467601932112 0.0
    vertex 838.5857070948913 668.4467601932112 3.716801304247923
  endloop
endfacet
facet normal -0.990702276547116 0.13604778294541137 5.640241770590318e-17
  outer loop
    vertex 838.5857070948913 668.4467601932112 0.0
    vertex 853.7348624959384 778.7631682864289 92.3226962322208
    vertex 853.7348624959384 778.7631682864289 0.0
  endloop
endfacet
facet normal -0.8551228802154159 0.5184253656333682 -2.457996600783461e-18
  outer loop
    vertex 888.5174946693376 827.9479281745083 98.1306977724807
    vertex 871.9228783428414 800.5757410674086 0.0
    vertex 871.9228783428414 800.5757410674086 95.631736086547
  endloop
endfacet
facet normal -0.8551228802154159 0.5184253656333682 -2.457996600783461e-18
  outer loop
    vertex 871.9228783428414 800.5757410674086 0.0
    vertex 888.5174946693376 827.9479281745083 98.1306977724807
    vertex 888.5174946693376 827.9479281745083 0.0
  endloop
endfacet
facet normal 0.0 0.0 -1.0
  outer loop
    vertex 853.7348624959384 778.7631682864289 0.0
    vertex 888.6690430770246 695.1344112041414 0.0
    vertex 838.5857070948913 668.4467601932112 0.0
  endloop
endfacet
facet normal 0.0 0.0 -1.0
  outer loop
    vertex 888.6690430770246 695.1344112041414 0.0
    vertex 853.7348624959384 778.7631682864289 0.0
    vertex 871.9228783428414 800.5757410674086 0.0
  endloop
endfacet
facet normal 0.0 0.0 -1.0
  outer loop
    vertex 888.6690430770246 695.1344112041414 0.0
    vertex 871.9228783428414 800.5757410674086 0.0
    vertex 888.5174946693376 827.9479281745083 0.0
  endloop
endfacet
facet normal 0.0 0.0 -1.0
  outer loop
    vertex 888.6690430770246 695.1344112041414 0.0
    vertex 888.5174946693376 827.9479281745083 0.0
    vertex 971.3147257631123 783.0741462987355 0.0
  endloop
endfacet
facet normal 0.0 0.0 -1.0
  outer loop
    vertex 888.6690430770246 695.1344112041414 0.0
    vertex 971.3147257631123 783.0741462987355 0.0
    vertex 937.9077211529324 733.3531264106339 0.0
  endloop
endfacet
facet normal 0.47649069076474126 0.8791795161481754 -8.01320999590051e-17
  outer loop
    vertex 888.5174946693376 827.9479281745083 98.1306977724807
    vertex 971.3147257631123 783.0741462987355 0.0
    vertex 888.5174946693376 827.9479281745083 0.0
  endloop
endfacet
facet normal 0.47649069076474126 0.8791795161481754 -8.01320999590051e-17
  outer loop
    vertex 971.3147257631123 783.0741462987355 0.0
    vertex 888.5174946693376 827.9479281745083 98.1306977724807
    vertex 971.3147257631123 783.0741462987355 7.574447373349394
  endloop
endfacet
facet normal 0.47649069076474126 0.8791795161481754 -8.01320999590051e-17
  outer loop
    vertex 971.3147257631123 783.0741462987355 7.574447373349394
    vertex 888.5174946693376 827.9479281745083 98.1306977724807
    vertex 969.8732994084857 783.8553590394644 10.786017110736118
  endloop
endfacet
facet normal 0.47649069076474126 0.8791795161481754 -8.01320999590051e-17
  outer loop
    vertex 969.8732994084857 783.8553590394644 10.786017110736118
    vertex 888.5174946693376 827.9479281745083 98.1306977724807
    vertex 907.9244069321645 817.4299249000023 95.47928093739827
  endloop
endfacet
facet normal -0.76803298191212 0.6404102893420569 -1.5831888009564581e-18
  outer loop
    vertex 871.9228783428414 800.5757410674086 95.631736086547
    vertex 853.7348624959384 778.7631682864289 0.0
    vertex 853.7348624959384 778.7631682864289 92.3226962322208
  endloop
endfacet
facet normal -0.76803298191212 0.6404102893420569 -1.5831888009564581e-18
  outer loop
    vertex 853.7348624959384 778.7631682864289 0.0
    vertex 871.9228783428414 800.5757410674086 95.631736086547
    vertex 871.9228783428414 800.5757410674086 0.0
  endloop
endfacet
endsolid V2 Mould parts + mirrored
