solid V2 Mould parts + mirrored
facet normal -0.1502274111267063 -0.033758822992755774 0.9880749297580176
  outer loop
    vertex 241.58164544040463 303.5486825341388 120.73150026312646
    vertex 183.7085436548798 349.0666798567289 113.48762429284291
    vertex 221.72273918528444 288.47797757456635 117.1972325366129
  endloop
endfacet
facet normal 0.409531573661057 -0.7174815687399495 0.5634750115960416
  outer loop
    vertex 758.1743467827789 62.684780878328944 26.364300565640075
    vertex 761.1234986393797 62.577605050467106 24.08439914061513
    vertex 828.2538993635224 89.8337918739398 9.999999999999998
  endloop
endfacet
facet normal -0.7135080318205625 -0.6236001699881621 0.31941996887840696
  outer loop
    vertex 161.88275718023385 236.89298949281178 38.8327254978705
    vertex 160.96736867099867 236.18379575805866 35.40341457855506
    vertex 219.2232562237785 172.6971638412215 41.58890517692479
  endloop
endfacet
facet normal -0.04175923683027666 -0.025855986568635577 0.9987930887315528
  outer loop
    vertex 292.47146029175315 248.69602294605068 121.43920460052884
    vertex 241.58164544040463 303.5486825341388 120.73150026312646
    vertex 275.69126987958185 231.93395966204773 120.30370652649519
  endloop
endfacet
facet normal 0.15672459666795127 0.10876579963576266 0.9816350654030556
  outer loop
    vertex 711.4066179476999 152.87876707204373 81.94311499457129
    vertex 646.3901702202735 157.38215945986443 91.8244464736441
    vertex 659.35937715933 131.9148656136723 92.57561855286322
  endloop
endfacet
facet normal 0.0727181590090117 0.009978494423457595 0.9973026115474587
  outer loop
    vertex 470.5026350648254 147.87500180779523 114.09331092302875
    vertex 407.5479549452893 143.37576383153777 118.72865831590963
    vertex 468.1087587472957 124.396482442749 114.50277395714993
  endloop
endfacet
facet normal 0.10881840301529178 0.08462967236821228 0.9904526105372485
  outer loop
    vertex 659.35937715933 131.9148656136723 92.57561855286322
    vertex 646.3901702202735 157.38215945986443 91.8244464736441
    vertex 598.1088058646515 120.21049032748562 100.30514212255031
  endloop
endfacet
facet normal 0.24786786970410185 -0.44114430817376027 0.8625272277060273
  outer loop
    vertex 716.0573663319395 145.88199688112945 83.42565890050969
    vertex 659.35937715933 131.9148656136723 92.57561855286322
    vertex 702.7306819047275 42.87208174667159 34.57041176830162
  endloop
endfacet
facet normal 0.12016408362382537 0.04749574521292929 0.9916172382494745
  outer loop
    vertex 598.1088058646515 120.21049032748562 100.30514212255031
    vertex 588.9627164534268 146.17274671002224 100.1699435234487
    vertex 532.4256788643972 117.92242999164846 108.37420908471881
  endloop
endfacet
facet normal -0.03816814686337489 0.015040500493605419 0.9991581335854288
  outer loop
    vertex 161.94401249193683 496.79141373712457 110.42283911584067
    vertex 136.67040695545668 493.70573087444984 109.50382895879059
    vertex 152.4530668325107 426.1448454016852 111.12373711644683
  endloop
endfacet
facet normal 0.026293675516506035 -0.025812912825037452 0.9993209375167318
  outer loop
    vertex 414.3452592396922 164.88168041669482 118.17177621434762
    vertex 347.75257887877336 203.72449170719153 120.92725979077301
    vertex 335.38369412837284 184.49879966684693 120.75609588927867
  endloop
endfacet
facet normal -0.1359458655948356 -0.0003233768384669558 0.9907162141880446
  outer loop
    vertex 205.27924064731295 362.2576323720867 118.35168007104693
    vertex 176.132064729181 434.51612686752344 114.37569655536237
    vertex 152.4530668325107 426.1448454016852 111.12373711644683
  endloop
endfacet
facet normal 0.5904835381356351 0.5227737742156517 0.6148469502104934
  outer loop
    vertex 770.4004471665156 118.74170628094264 54.31197054620671
    vertex 711.4066179476999 152.87876707204373 81.94311499457129
    vertex 716.0573663319395 145.88199688112945 83.42565890050969
  endloop
endfacet
facet normal -0.03416302219811689 -0.03346466744287507 0.998855847431064
  outer loop
    vertex 335.38369412837284 184.49879966684693 120.75609588927867
    vertex 292.47146029175315 248.69602294605068 121.43920460052884
    vertex 275.69126987958185 231.93395966204773 120.30370652649519
  endloop
endfacet
facet normal 0.1288295887839883 0.03003581695423497 0.9912117769445842
  outer loop
    vertex 588.9627164534268 146.17274671002224 100.1699435234487
    vertex 528.6189592233355 142.86728875156862 108.11309325487456
    vertex 532.4256788643972 117.92242999164846 108.37420908471881
  endloop
endfacet
facet normal -0.9927779748837557 -0.119966214350995 3.076398532143928e-16
  outer loop
    vertex 39.9931389740294 574.2889657035695 18.11636234828278
    vertex 49.38385432346466 496.57629119968504 9.999999999999998
    vertex 49.38385432346466 496.57629119968504 20.342847520742
  endloop
endfacet
facet normal -0.9927779748837557 -0.119966214350995 3.076398532143928e-16
  outer loop
    vertex 49.38385432346466 496.57629119968504 9.999999999999998
    vertex 39.9931389740294 574.2889657035695 18.11636234828278
    vertex 39.993138974029385 574.2889657035695 10.000000000000004
  endloop
endfacet
facet normal 0.1587216312622063 -0.9873233734544445 0.0
  outer loop
    vertex 703.5659517886186 40.8231450288786 30.711914907099903
    vertex 635.8315806068313 29.93420005345712 9.999999999999998
    vertex 703.5659517886186 40.8231450288786 9.999999999999998
  endloop
endfacet
facet normal 0.1587216312622063 -0.9873233734544445 0.0
  outer loop
    vertex 635.8315806068313 29.93420005345712 9.999999999999998
    vertex 703.5659517886186 40.8231450288786 30.711914907099903
    vertex 635.8315806068313 29.93420005345712 39.17242357982422
  endloop
endfacet
facet normal -0.5060345216477218 -0.8625132247686187 -1.905141710652648e-17
  outer loop
    vertex 371.98704991829317 59.42338599064762 45.54764081640589
    vertex 289.6980848465695 107.70213219552649 9.999999999999998
    vertex 371.98704991829317 59.42338599064762 9.999999999999998
  endloop
endfacet
facet normal -0.5060345216477218 -0.8625132247686187 -1.905141710652648e-17
  outer loop
    vertex 289.6980848465695 107.70213219552649 9.999999999999998
    vertex 371.98704991829317 59.42338599064762 45.54764081640589
    vertex 289.6980848465695 107.70213219552649 44.75679088745083
  endloop
endfacet
facet normal -0.6701594648925403 -0.7422171458642977 -2.697021214095471e-17
  outer loop
    vertex 289.6980848465695 107.70213219552649 44.75679088745083
    vertex 218.44492334743805 172.0377256916247 9.999999999999998
    vertex 289.6980848465695 107.70213219552649 9.999999999999998
  endloop
endfacet
facet normal -0.6701594648925403 -0.7422171458642977 -2.697021214095471e-17
  outer loop
    vertex 218.44492334743805 172.0377256916247 9.999999999999998
    vertex 289.6980848465695 107.70213219552649 44.75679088745083
    vertex 218.44492334743805 172.0377256916247 38.21087381779352
  endloop
endfacet
facet normal -0.9418263357545579 -0.1046586916295704 0.3193895921058317
  outer loop
    vertex 39.9931389740294 574.2889657035695 18.11636234828278
    vertex 49.38385432346466 496.57629119968504 20.342847520742
    vertex 41.238980869734135 573.9657446302941 21.684226928376734
  endloop
endfacet
facet normal -0.2853530775732096 -0.9584224648449648 1.4255479088381522e-17
  outer loop
    vertex 461.0899941800209 32.894584445880945 45.776658580673775
    vertex 371.98704991829317 59.42338599064762 9.999999999999998
    vertex 461.0899941800209 32.894584445880945 9.999999999999998
  endloop
endfacet
facet normal -0.2853530775732096 -0.9584224648449648 1.4255479088381522e-17
  outer loop
    vertex 371.98704991829317 59.42338599064762 9.999999999999998
    vertex 461.0899941800209 32.894584445880945 45.776658580673775
    vertex 371.98704991829317 59.42338599064762 45.54764081640589
  endloop
endfacet
facet normal -0.7447582006316477 -0.667334415860527 -5.803633564255262e-17
  outer loop
    vertex 160.96736867099867 236.18379575805866 35.40341457855506
    vertex 218.44492334743805 172.0377256916247 9.999999999999998
    vertex 218.44492334743805 172.0377256916247 38.21087381779352
  endloop
endfacet
facet normal -0.7447582006316477 -0.667334415860527 -5.803633564255262e-17
  outer loop
    vertex 218.44492334743805 172.0377256916247 9.999999999999998
    vertex 160.96736867099867 236.18379575805866 35.40341457855506
    vertex 160.96736867099867 236.18379575805866 9.999999999999998
  endloop
endfacet
facet normal -0.6723828678847329 -0.06379916038261277 0.7374489447477538
  outer loop
    vertex 136.061791995481 549.3783573194586 106.01356180926179
    vertex 41.238980869734135 573.9657446302941 21.684226928376734
    vertex 50.55986929828184 496.27621776889634 23.461541978965347
  endloop
endfacet
facet normal -0.07982962897709174 -0.9968085224040673 0.0
  outer loop
    vertex 550.5675270358964 25.728756617239384 44.227907580439876
    vertex 461.0899941800209 32.894584445880945 9.999999999999998
    vertex 550.5675270358964 25.728756617239384 9.999999999999998
  endloop
endfacet
facet normal -0.07982962897709174 -0.9968085224040673 0.0
  outer loop
    vertex 461.0899941800209 32.894584445880945 9.999999999999998
    vertex 550.5675270358964 25.728756617239384 44.227907580439876
    vertex 461.0899941800209 32.894584445880945 45.776658580673775
  endloop
endfacet
facet normal 0.04926269919230511 -0.9987858561615139 -6.277833964231429e-18
  outer loop
    vertex 635.8315806068313 29.93420005345712 39.17242357982422
    vertex 550.5675270358964 25.728756617239384 9.999999999999998
    vertex 635.8315806068313 29.93420005345712 9.999999999999998
  endloop
endfacet
facet normal 0.04926269919230511 -0.9987858561615139 -6.277833964231429e-18
  outer loop
    vertex 550.5675270358964 25.728756617239384 9.999999999999998
    vertex 635.8315806068313 29.93420005345712 39.17242357982422
    vertex 550.5675270358964 25.728756617239384 44.227907580439876
  endloop
endfacet
facet normal 0.3535498661958808 -0.9354156787829007 0.0
  outer loop
    vertex 761.1234986393797 62.577605050467106 24.08439914061513
    vertex 703.5659517886186 40.8231450288786 9.999999999999998
    vertex 761.1234986393797 62.577605050467106 9.999999999999998
  endloop
endfacet
facet normal 0.3535498661958808 -0.9354156787829007 0.0
  outer loop
    vertex 703.5659517886186 40.8231450288786 9.999999999999998
    vertex 761.1234986393797 62.577605050467106 24.08439914061513
    vertex 703.5659517886186 40.8231450288786 30.711914907099903
  endloop
endfacet
facet normal -0.9076799093594133 -0.4196631770185314 0.0
  outer loop
    vertex 78.74041133717539 389.85580091588673 28.968023137109487
    vertex 120.47257499660141 299.5942564151943 9.999999999999998
    vertex 120.47257499660141 299.5942564151943 33.9511898092581
  endloop
endfacet
facet normal -0.9076799093594133 -0.4196631770185314 0.0
  outer loop
    vertex 120.47257499660141 299.5942564151943 9.999999999999998
    vertex 78.74041133717539 389.85580091588673 28.968023137109487
    vertex 78.74041133717539 389.85580091588673 9.999999999999998
  endloop
endfacet
facet normal 0.3761929566680726 -0.926541342495484 -4.3105955931436897e-16
  outer loop
    vertex 761.1234986393797 62.577605050467106 24.08439914061513
    vertex 761.1234986393797 62.577605050467106 9.999999999999998
    vertex 828.2538993635224 89.8337918739398 9.999999999999998
  endloop
endfacet
facet normal -0.9641859361779386 -0.2652272242373933 -6.705115327345465e-17
  outer loop
    vertex 49.38385432346466 496.57629119968504 20.342847520742
    vertex 78.74041133717539 389.85580091588673 9.999999999999998
    vertex 78.74041133717539 389.85580091588673 28.968023137109487
  endloop
endfacet
facet normal -0.9641859361779386 -0.2652272242373933 -6.705115327345465e-17
  outer loop
    vertex 78.74041133717539 389.85580091588673 9.999999999999998
    vertex 49.38385432346466 496.57629119968504 20.342847520742
    vertex 49.38385432346466 496.57629119968504 9.999999999999998
  endloop
endfacet
facet normal -0.8428014410671495 -0.5382246101165724 -6.356782277897794e-17
  outer loop
    vertex 120.47257499660141 299.5942564151943 33.9511898092581
    vertex 160.96736867099867 236.18379575805866 9.999999999999998
    vertex 160.96736867099867 236.18379575805866 35.40341457855506
  endloop
endfacet
facet normal -0.8428014410671495 -0.5382246101165724 -6.356782277897794e-17
  outer loop
    vertex 160.96736867099867 236.18379575805866 9.999999999999998
    vertex 120.47257499660141 299.5942564151943 33.9511898092581
    vertex 120.47257499660141 299.5942564151943 9.999999999999998
  endloop
endfacet
facet normal 0.718941385688753 0.6950707042768639 6.149954307546463e-16
  outer loop
    vertex 804.5623099552233 114.33901704537337 12.05350274951218
    vertex 828.2538993635224 89.8337918739398 9.999999999999998
    vertex 804.5623099552233 114.33901704537337 10.000000000000004
  endloop
endfacet
facet normal 1.5868900215172664e-16 3.835723843355873e-16 -1.0
  outer loop
    vertex 828.2538993635224 89.8337918739398 9.999999999999998
    vertex 711.4066179476999 152.87876707204373 10.000000000000004
    vertex 804.5623099552233 114.33901704537337 10.000000000000004
  endloop
endfacet
facet normal 0.9750157241827473 0.2221358539191569 -9.801962799710799e-17
  outer loop
    vertex 161.9440124919368 496.7914137371245 10.000000000000004
    vertex 176.132064729181 434.51612686752344 114.37569655536237
    vertex 176.132064729181 434.51612686752344 10.000000000000004
  endloop
endfacet
facet normal 0.9750157241827473 0.2221358539191569 -9.801962799710799e-17
  outer loop
    vertex 176.132064729181 434.51612686752344 114.37569655536237
    vertex 161.9440124919368 496.7914137371245 10.000000000000004
    vertex 161.94401249193683 496.79141373712457 110.42283911584067
  endloop
endfacet
facet normal 0.9979134301779546 0.064566135632147 -2.958547509275235e-17
  outer loop
    vertex 158.9262504531876 543.432973404041 10.000000000000004
    vertex 161.94401249193683 496.79141373712457 110.42283911584067
    vertex 161.9440124919368 496.7914137371245 10.000000000000004
  endloop
endfacet
facet normal 0.9979134301779546 0.064566135632147 -2.958547509275235e-17
  outer loop
    vertex 161.94401249193683 496.79141373712457 110.42283911584067
    vertex 158.9262504531876 543.432973404041 10.000000000000004
    vertex 158.9262504531876 543.432973404041 106.69635856874629
  endloop
endfacet
facet normal 0.5038427756897866 0.863795379349306 -1.919788205929252e-16
  outer loop
    vertex 347.75257887877336 203.72449170719153 120.92725979077301
    vertex 414.3452592396922 164.88168041669482 10.000000000000004
    vertex 347.75257887877336 203.72449170719148 10.000000000000004
  endloop
endfacet
facet normal 0.5038427756897866 0.863795379349306 -1.919788205929252e-16
  outer loop
    vertex 414.3452592396922 164.88168041669482 10.000000000000004
    vertex 347.75257887877336 203.72449170719153 120.92725979077301
    vertex 414.3452592396922 164.88168041669482 118.17177621434762
  endloop
endfacet
facet normal 7.223137723977332e-18 1.4908356863194852e-17 -1.0
  outer loop
    vertex 44.090247924763716 573.2260122445882 10.000000000000004
    vertex 49.38385432346466 496.57629119968504 9.999999999999998
    vertex 39.993138974029385 574.2889657035695 10.000000000000004
  endloop
endfacet
facet normal 7.223137723977332e-18 1.4908356863194852e-17 -1.0
  outer loop
    vertex 49.38385432346466 496.57629119968504 9.999999999999998
    vertex 44.090247924763716 573.2260122445882 10.000000000000004
    vertex 158.9262504531876 543.432973404041 10.000000000000004
  endloop
endfacet
facet normal 7.223137723977332e-18 1.4908356863194852e-17 -1.0
  outer loop
    vertex 49.38385432346466 496.57629119968504 9.999999999999998
    vertex 158.9262504531876 543.432973404041 10.000000000000004
    vertex 78.74041133717539 389.85580091588673 9.999999999999998
  endloop
endfacet
facet normal 7.223137723977332e-18 1.4908356863194852e-17 -1.0
  outer loop
    vertex 78.74041133717539 389.85580091588673 9.999999999999998
    vertex 158.9262504531876 543.432973404041 10.000000000000004
    vertex 120.47257499660141 299.5942564151943 9.999999999999998
  endloop
endfacet
facet normal 7.223137723977332e-18 1.4908356863194852e-17 -1.0
  outer loop
    vertex 120.47257499660141 299.5942564151943 9.999999999999998
    vertex 158.9262504531876 543.432973404041 10.000000000000004
    vertex 160.96736867099867 236.18379575805866 9.999999999999998
  endloop
endfacet
facet normal 7.223137723977332e-18 1.4908356863194852e-17 -1.0
  outer loop
    vertex 160.96736867099867 236.18379575805866 9.999999999999998
    vertex 158.9262504531876 543.432973404041 10.000000000000004
    vertex 161.9440124919368 496.7914137371245 10.000000000000004
  endloop
endfacet
facet normal 7.223137723977332e-18 1.4908356863194852e-17 -1.0
  outer loop
    vertex 160.96736867099867 236.18379575805866 9.999999999999998
    vertex 161.9440124919368 496.7914137371245 10.000000000000004
    vertex 218.44492334743805 172.0377256916247 9.999999999999998
  endloop
endfacet
facet normal 7.223137723977332e-18 1.4908356863194852e-17 -1.0
  outer loop
    vertex 218.44492334743805 172.0377256916247 9.999999999999998
    vertex 161.9440124919368 496.7914137371245 10.000000000000004
    vertex 176.132064729181 434.51612686752344 10.000000000000004
  endloop
endfacet
facet normal 7.223137723977332e-18 1.4908356863194852e-17 -1.0
  outer loop
    vertex 218.44492334743805 172.0377256916247 9.999999999999998
    vertex 176.132064729181 434.51612686752344 10.000000000000004
    vertex 205.27924064731295 362.2576323720867 10.000000000000004
  endloop
endfacet
facet normal 7.223137723977332e-18 1.4908356863194852e-17 -1.0
  outer loop
    vertex 218.44492334743805 172.0377256916247 9.999999999999998
    vertex 205.27924064731295 362.2576323720867 10.000000000000004
    vertex 241.58164544040463 303.5486825341388 10.000000000000004
  endloop
endfacet
facet normal 7.223137723977332e-18 1.4908356863194852e-17 -1.0
  outer loop
    vertex 218.44492334743805 172.0377256916247 9.999999999999998
    vertex 241.58164544040463 303.5486825341388 10.000000000000004
    vertex 289.6980848465695 107.70213219552649 9.999999999999998
  endloop
endfacet
facet normal 7.223137723977332e-18 1.4908356863194852e-17 -1.0
  outer loop
    vertex 289.6980848465695 107.70213219552649 9.999999999999998
    vertex 241.58164544040463 303.5486825341388 10.000000000000004
    vertex 292.47146029175315 248.69602294605068 10.000000000000004
  endloop
endfacet
facet normal 7.223137723977332e-18 1.4908356863194852e-17 -1.0
  outer loop
    vertex 289.6980848465695 107.70213219552649 9.999999999999998
    vertex 292.47146029175315 248.69602294605068 10.000000000000004
    vertex 371.98704991829317 59.42338599064762 9.999999999999998
  endloop
endfacet
facet normal 7.223137723977332e-18 1.4908356863194852e-17 -1.0
  outer loop
    vertex 371.98704991829317 59.42338599064762 9.999999999999998
    vertex 292.47146029175315 248.69602294605068 10.000000000000004
    vertex 347.75257887877336 203.72449170719148 10.000000000000004
  endloop
endfacet
facet normal 7.223137723977332e-18 1.4908356863194852e-17 -1.0
  outer loop
    vertex 371.98704991829317 59.42338599064762 9.999999999999998
    vertex 347.75257887877336 203.72449170719148 10.000000000000004
    vertex 414.3452592396922 164.88168041669482 10.000000000000004
  endloop
endfacet
facet normal 7.223137723977332e-18 1.4908356863194852e-17 -1.0
  outer loop
    vertex 371.98704991829317 59.42338599064762 9.999999999999998
    vertex 414.3452592396922 164.88168041669482 10.000000000000004
    vertex 461.0899941800209 32.894584445880945 9.999999999999998
  endloop
endfacet
facet normal 7.223137723977332e-18 1.4908356863194852e-17 -1.0
  outer loop
    vertex 461.0899941800209 32.894584445880945 9.999999999999998
    vertex 414.3452592396922 164.88168041669482 10.000000000000004
    vertex 470.5026350648254 147.87500180779523 10.000000000000004
  endloop
endfacet
facet normal 7.223137723977332e-18 1.4908356863194852e-17 -1.0
  outer loop
    vertex 461.0899941800209 32.894584445880945 9.999999999999998
    vertex 470.5026350648254 147.87500180779523 10.000000000000004
    vertex 550.5675270358964 25.728756617239384 9.999999999999998
  endloop
endfacet
facet normal 7.223137723977332e-18 1.4908356863194852e-17 -1.0
  outer loop
    vertex 550.5675270358964 25.728756617239384 9.999999999999998
    vertex 470.5026350648254 147.87500180779523 10.000000000000004
    vertex 528.6189592233355 142.86728875156862 10.000000000000004
  endloop
endfacet
facet normal 7.223137723977332e-18 1.4908356863194852e-17 -1.0
  outer loop
    vertex 550.5675270358964 25.728756617239384 9.999999999999998
    vertex 528.6189592233355 142.86728875156862 10.000000000000004
    vertex 588.9627164534268 146.17274671002224 10.000000000000004
  endloop
endfacet
facet normal 7.223137723977332e-18 1.4908356863194852e-17 -1.0
  outer loop
    vertex 550.5675270358964 25.728756617239384 9.999999999999998
    vertex 588.9627164534268 146.17274671002224 10.000000000000004
    vertex 635.8315806068313 29.93420005345712 9.999999999999998
  endloop
endfacet
facet normal 7.223137723977332e-18 1.4908356863194852e-17 -1.0
  outer loop
    vertex 635.8315806068313 29.93420005345712 9.999999999999998
    vertex 588.9627164534268 146.17274671002224 10.000000000000004
    vertex 646.3901702202735 157.38215945986443 10.000000000000004
  endloop
endfacet
facet normal 7.223137723977332e-18 1.4908356863194852e-17 -1.0
  outer loop
    vertex 635.8315806068313 29.93420005345712 9.999999999999998
    vertex 646.3901702202735 157.38215945986443 10.000000000000004
    vertex 703.5659517886186 40.8231450288786 9.999999999999998
  endloop
endfacet
facet normal 7.223137723977332e-18 1.4908356863194852e-17 -1.0
  outer loop
    vertex 703.5659517886186 40.8231450288786 9.999999999999998
    vertex 646.3901702202735 157.38215945986443 10.000000000000004
    vertex 711.4066179476999 152.87876707204373 10.000000000000004
  endloop
endfacet
facet normal 7.223137723977332e-18 1.4908356863194852e-17 -1.0
  outer loop
    vertex 703.5659517886186 40.8231450288786 9.999999999999998
    vertex 711.4066179476999 152.87876707204373 10.000000000000004
    vertex 761.1234986393797 62.577605050467106 9.999999999999998
  endloop
endfacet
facet normal 7.223137723977332e-18 1.4908356863194852e-17 -1.0
  outer loop
    vertex 761.1234986393797 62.577605050467106 9.999999999999998
    vertex 711.4066179476999 152.87876707204373 10.000000000000004
    vertex 828.2538993635224 89.8337918739398 9.999999999999998
  endloop
endfacet
facet normal 0.06909987086196072 0.997609747269372 9.18692358048666e-19
  outer loop
    vertex 646.3901702202735 157.38215945986443 91.8244464736441
    vertex 711.4066179476999 152.87876707204373 10.000000000000004
    vertex 646.3901702202735 157.38215945986443 10.000000000000004
  endloop
endfacet
facet normal 0.06909987086196072 0.997609747269372 9.18692358048666e-19
  outer loop
    vertex 711.4066179476999 152.87876707204373 10.000000000000004
    vertex 646.3901702202735 157.38215945986443 91.8244464736441
    vertex 711.4066179476999 152.87876707204373 81.94311499457129
  endloop
endfacet
facet normal 0.25113396383201875 0.9679523368205123 -7.650965859301379e-05
  outer loop
    vertex 39.9931389740294 574.2889657035695 18.11636234828278
    vertex 44.090247924763716 573.2260122445882 10.000000000000004
    vertex 39.993138974029385 574.2889657035695 10.000000000000004
  endloop
endfacet
facet normal 0.25113396383201875 0.9679523368205123 -7.650965859301379e-05
  outer loop
    vertex 44.090247924763716 573.2260122445882 10.000000000000004
    vertex 39.9931389740294 574.2889657035695 18.11636234828278
    vertex 158.9262504531876 543.432973404041 10.000000000000004
  endloop
endfacet
facet normal 0.25113396383201875 0.9679523368205123 -7.650965859301379e-05
  outer loop
    vertex 158.9262504531876 543.432973404041 10.000000000000004
    vertex 39.9931389740294 574.2889657035695 18.11636234828278
    vertex 158.9262504531876 543.432973404041 106.69635856874629
  endloop
endfacet
facet normal 0.25113396383201875 0.9679523368205123 -7.650965859301379e-05
  outer loop
    vertex 158.9262504531876 543.432973404041 106.69635856874629
    vertex 39.9931389740294 574.2889657035695 18.11636234828278
    vertex 41.238980869734135 573.9657446302941 21.684226928376734
  endloop
endfacet
facet normal 0.25113396383201875 0.9679523368205123 -7.650965859301379e-05
  outer loop
    vertex 158.9262504531876 543.432973404041 106.69635856874629
    vertex 41.238980869734135 573.9657446302941 21.684226928376734
    vertex 136.061791995481 549.3783573194586 106.01356180926179
  endloop
endfacet
facet normal 0.7330919554178023 0.6801295353840349 1.254564134773404e-17
  outer loop
    vertex 241.58164544040463 303.5486825341388 10.000000000000004
    vertex 292.47146029175315 248.69602294605068 121.43920460052884
    vertex 292.47146029175315 248.69602294605068 10.000000000000004
  endloop
endfacet
facet normal 0.7330919554178023 0.6801295353840349 1.254564134773404e-17
  outer loop
    vertex 292.47146029175315 248.69602294605068 121.43920460052884
    vertex 241.58164544040463 303.5486825341388 10.000000000000004
    vertex 241.58164544040463 303.5486825341388 120.73150026312646
  endloop
endfacet
facet normal 0.0858489499034816 0.9963081640739826 -6.661974949839932e-19
  outer loop
    vertex 470.5026350648254 147.87500180779523 114.09331092302875
    vertex 528.6189592233355 142.86728875156862 10.000000000000004
    vertex 470.5026350648254 147.87500180779523 10.000000000000004
  endloop
endfacet
facet normal 0.0858489499034816 0.9963081640739826 -6.661974949839932e-19
  outer loop
    vertex 528.6189592233355 142.86728875156862 10.000000000000004
    vertex 470.5026350648254 147.87500180779523 114.09331092302875
    vertex 528.6189592233355 142.86728875156862 108.11309325487456
  endloop
endfacet
facet normal 0.9273938959638708 0.37408630251447805 3.626294329082828e-18
  outer loop
    vertex 176.132064729181 434.51612686752344 10.000000000000004
    vertex 205.27924064731295 362.2576323720867 118.35168007104693
    vertex 205.27924064731295 362.2576323720867 10.000000000000004
  endloop
endfacet
facet normal 0.9273938959638708 0.37408630251447805 3.626294329082828e-18
  outer loop
    vertex 205.27924064731295 362.2576323720867 118.35168007104693
    vertex 176.132064729181 434.51612686752344 10.000000000000004
    vertex 176.132064729181 434.51612686752344 114.37569655536237
  endloop
endfacet
facet normal 0.3822888413358769 0.9240428787616258 -3.790419468634903e-16
  outer loop
    vertex 711.4066179476999 152.87876707204373 81.94311499457129
    vertex 804.5623099552233 114.33901704537337 10.000000000000004
    vertex 711.4066179476999 152.87876707204373 10.000000000000004
  endloop
endfacet
facet normal 0.3822888413358769 0.9240428787616258 -3.790419468634903e-16
  outer loop
    vertex 804.5623099552233 114.33901704537337 10.000000000000004
    vertex 711.4066179476999 152.87876707204373 81.94311499457129
    vertex 804.5623099552233 114.33901704537337 12.05350274951218
  endloop
endfacet
facet normal 0.3822888413358769 0.9240428787616258 -3.790419468634903e-16
  outer loop
    vertex 804.5623099552233 114.33901704537337 12.05350274951218
    vertex 711.4066179476999 152.87876707204373 81.94311499457129
    vertex 747.588167172686 137.9099784488428 62.13729644920146
  endloop
endfacet
facet normal 0.6310626583363328 0.7757318616980233 -1.5312935190433422e-16
  outer loop
    vertex 292.47146029175315 248.69602294605068 121.43920460052884
    vertex 347.75257887877336 203.72449170719148 10.000000000000004
    vertex 292.47146029175315 248.69602294605068 10.000000000000004
  endloop
endfacet
facet normal 0.6310626583363328 0.7757318616980233 -1.5312935190433422e-16
  outer loop
    vertex 347.75257887877336 203.72449170719148 10.000000000000004
    vertex 292.47146029175315 248.69602294605068 121.43920460052884
    vertex 347.75257887877336 203.72449170719153 120.92725979077301
  endloop
endfacet
facet normal 0.8505323631041317 0.525922712299537 -4.27592919326957e-18
  outer loop
    vertex 205.27924064731295 362.2576323720867 10.000000000000004
    vertex 241.58164544040463 303.5486825341388 120.73150026312646
    vertex 241.58164544040463 303.5486825341388 10.000000000000004
  endloop
endfacet
facet normal 0.8505323631041317 0.525922712299537 -4.27592919326957e-18
  outer loop
    vertex 241.58164544040463 303.5486825341388 120.73150026312646
    vertex 205.27924064731295 362.2576323720867 10.000000000000004
    vertex 205.27924064731295 362.2576323720867 118.35168007104693
  endloop
endfacet
facet normal 0.22053070342513897 -0.4732952671415429 0.8528527416548705
  outer loop
    vertex 770.4004471665156 118.74170628094264 54.31197054620671
    vertex 716.0573663319395 145.88199688112945 83.42565890050969
    vertex 758.1743467827789 62.684780878328944 26.364300565640075
  endloop
endfacet
facet normal 0.36557546611993613 -0.47793489826771884 0.798706962276539
  outer loop
    vertex 824.7435280010918 91.60141568075693 13.198282191903717
    vertex 770.4004471665156 118.74170628094264 54.31197054620671
    vertex 758.1743467827789 62.684780878328944 26.364300565640075
  endloop
endfacet
facet normal 0.3562387291900631 -0.7906404730874793 0.4979775197145509
  outer loop
    vertex 702.7306819047275 42.87208174667159 34.57041176830162
    vertex 761.1234986393797 62.577605050467106 24.08439914061513
    vertex 758.1743467827789 62.684780878328944 26.364300565640075
  endloop
endfacet
facet normal -0.4912762887289007 -0.8410921084736015 0.2262999628727088
  outer loop
    vertex 372.2628294875381 60.73745086955362 49.44295377209909
    vertex 290.273067010596 108.26205459032352 48.08609506269544
    vertex 289.6980848465695 107.70213219552649 44.75679088745083
  endloop
endfacet
facet normal -0.9338600884502881 -0.10421422989265203 0.34211800520800056
  outer loop
    vertex 41.238980869734135 573.9657446302941 21.684226928376734
    vertex 49.38385432346466 496.57629119968504 20.342847520742
    vertex 50.55986929828184 496.27621776889634 23.461541978965347
  endloop
endfacet
facet normal 0.35626036912247505 -0.7911097051702213 0.4972162344274403
  outer loop
    vertex 702.7306819047275 42.87208174667159 34.57041176830162
    vertex 703.5659517886186 40.8231450288786 30.711914907099903
    vertex 761.1234986393797 62.577605050467106 24.08439914061513
  endloop
endfacet
facet normal -0.9354739955316411 -0.23607531892299372 0.26297689533393237
  outer loop
    vertex 49.38385432346466 496.57629119968504 20.342847520742
    vertex 78.74041133717539 389.85580091588673 28.968023137109487
    vertex 79.58896382326249 390.43067392486074 32.50260024256855
  endloop
endfacet
facet normal 0.10294203791906557 0.006850838141331372 0.994663763714066
  outer loop
    vertex 528.6189592233355 142.86728875156862 108.11309325487456
    vertex 470.5026350648254 147.87500180779523 114.09331092302875
    vertex 468.1087587472957 124.396482442749 114.50277395714993
  endloop
endfacet
facet normal -0.013571873188087693 0.06241630617559755 0.9979579194442822
  outer loop
    vertex 158.9262504531876 543.432973404041 106.69635856874629
    vertex 136.061791995481 549.3783573194586 106.01356180926179
    vertex 136.67040695545668 493.70573087444984 109.50382895879059
  endloop
endfacet
facet normal 0.1977763243429083 -0.8473758141561363 0.4927867237584978
  outer loop
    vertex 635.8315806068313 29.93420005345712 39.17242357982422
    vertex 703.5659517886186 40.8231450288786 30.711914907099903
    vertex 702.7306819047275 42.87208174667159 34.57041176830162
  endloop
endfacet
facet normal -0.04557339524507499 0.07662930850851848 0.9960175775172557
  outer loop
    vertex 161.94401249193683 496.79141373712457 110.42283911584067
    vertex 158.9262504531876 543.432973404041 106.69635856874629
    vertex 136.67040695545668 493.70573087444984 109.50382895879059
  endloop
endfacet
facet normal 0.0750007904936492 -0.8817202788578029 0.465772724916612
  outer loop
    vertex 550.0971955401279 27.38287328589544 47.43492972754924
    vertex 550.5675270358964 25.728756617239384 44.227907580439876
    vertex 634.8012553198362 31.9254679640299 42.39475998472759
  endloop
endfacet
facet normal -0.6920909652737418 -0.14472150342090764 0.707153294720496
  outer loop
    vertex 152.4530668325107 426.1448454016852 111.12373711644683
    vertex 136.67040695545668 493.70573087444984 109.50382895879059
    vertex 79.58896382326249 390.43067392486074 32.50260024256855
  endloop
endfacet
facet normal -0.06354266487925897 -0.8907171348983178 0.4500947848382318
  outer loop
    vertex 550.0971955401279 27.38287328589544 47.43492972754924
    vertex 461.0899941800209 32.894584445880945 45.776658580673775
    vertex 550.5675270358964 25.728756617239384 44.227907580439876
  endloop
endfacet
facet normal 0.5580035999312465 0.35856468376540784 0.74837380367032
  outer loop
    vertex 770.4004471665156 118.74170628094264 54.31197054620671
    vertex 747.588167172686 137.9099784488428 62.13729644920146
    vertex 711.4066179476999 152.87876707204373 81.94311499457129
  endloop
endfacet
facet normal -0.16877245030138263 -0.5686725183985744 0.8050636166400085
  outer loop
    vertex 468.1087587472957 124.396482442749 114.50277395714993
    vertex 372.2628294875381 60.73745086955362 49.44295377209909
    vertex 460.78987851124 34.71573196891429 49.62069197618245
  endloop
endfacet
facet normal 0.6756967458553583 0.6198204371473299 0.39906958457764247
  outer loop
    vertex 804.5623099552233 114.33901704537337 12.05350274951218
    vertex 824.7435280010918 91.60141568075693 13.198282191903717
    vertex 828.2538993635224 89.8337918739398 9.999999999999998
  endloop
endfacet
facet normal -0.06385080381388869 -0.9037870368380779 0.4231927065720379
  outer loop
    vertex 460.78987851124 34.71573196891429 49.62069197618245
    vertex 461.0899941800209 32.894584445880945 45.776658580673775
    vertex 550.0971955401279 27.38287328589544 47.43492972754924
  endloop
endfacet
facet normal -0.6092683137922071 -0.36368401514714316 0.7046460522384649
  outer loop
    vertex 221.72273918528444 288.47797757456635 117.1972325366129
    vertex 121.45978116792095 300.3129184643471 36.61370501261706
    vertex 161.88275718023385 236.89298949281178 38.8327254978705
  endloop
endfacet
facet normal 0.3875289748848487 -0.5580437057951058 0.7337632561304523
  outer loop
    vertex 828.2538993635224 89.8337918739398 9.999999999999998
    vertex 824.7435280010918 91.60141568075693 13.198282191903717
    vertex 758.1743467827789 62.684780878328944 26.364300565640075
  endloop
endfacet
facet normal -0.6632976339472405 -0.7107990811304176 0.23409595268638633
  outer loop
    vertex 290.273067010596 108.26205459032352 48.08609506269544
    vertex 218.44492334743805 172.0377256916247 38.21087381779352
    vertex 289.6980848465695 107.70213219552649 44.75679088745083
  endloop
endfacet
facet normal 0.28352499112969975 -0.44063851998461706 0.8517342743547837
  outer loop
    vertex 758.1743467827789 62.684780878328944 26.364300565640075
    vertex 716.0573663319395 145.88199688112945 83.42565890050969
    vertex 702.7306819047275 42.87208174667159 34.57041176830162
  endloop
endfacet
facet normal -0.2976898699076368 -0.5604979442870538 0.7728019123969357
  outer loop
    vertex 407.5479549452893 143.37576383153777 118.72865831590963
    vertex 335.38369412837284 184.49879966684693 120.75609588927867
    vertex 290.273067010596 108.26205459032352 48.08609506269544
  endloop
endfacet
facet normal -0.5337733489862178 -0.44592502885876384 0.7184962634205888
  outer loop
    vertex 275.69126987958185 231.93395966204773 120.30370652649519
    vertex 161.88275718023385 236.89298949281178 38.8327254978705
    vertex 219.2232562237785 172.6971638412215 41.58890517692479
  endloop
endfacet
facet normal 0.6568322138129313 0.5900242109581668 0.46951344323756744
  outer loop
    vertex 747.588167172686 137.9099784488428 62.13729644920146
    vertex 770.4004471665156 118.74170628094264 54.31197054620671
    vertex 804.5623099552233 114.33901704537337 12.05350274951218
  endloop
endfacet
facet normal 0.19931956827986316 -0.478210817831589 0.8553280793996955
  outer loop
    vertex 659.35937715933 131.9148656136723 92.57561855286322
    vertex 598.1088058646515 120.21049032748562 100.30514212255031
    vertex 634.8012553198362 31.9254679640299 42.39475998472759
  endloop
endfacet
facet normal 0.07340412474346528 -0.8377190757160856 0.541145622408639
  outer loop
    vertex 550.5675270358964 25.728756617239384 44.227907580439876
    vertex 635.8315806068313 29.93420005345712 39.17242357982422
    vertex 634.8012553198362 31.9254679640299 42.39475998472759
  endloop
endfacet
facet normal 0.12122528517355811 -0.537861083145787 0.834272069214732
  outer loop
    vertex 598.1088058646515 120.21049032748562 100.30514212255031
    vertex 532.4256788643972 117.92242999164846 108.37420908471881
    vertex 550.0971955401279 27.38287328589544 47.43492972754924
  endloop
endfacet
facet normal 0.17592903253390033 -0.4757244259450747 0.8618208897856418
  outer loop
    vertex 702.7306819047275 42.87208174667159 34.57041176830162
    vertex 659.35937715933 131.9148656136723 92.57561855286322
    vertex 634.8012553198362 31.9254679640299 42.39475998472759
  endloop
endfacet
facet normal -0.8368275183027818 -0.3643455362237852 0.40862211742025173
  outer loop
    vertex 78.74041133717539 389.85580091588673 28.968023137109487
    vertex 120.47257499660141 299.5942564151943 33.9511898092581
    vertex 121.45978116792095 300.3129184643471 36.61370501261706
  endloop
endfacet
facet normal -0.8767332048923944 -0.3948194464285212 0.2746934512524587
  outer loop
    vertex 79.58896382326249 390.43067392486074 32.50260024256855
    vertex 78.74041133717539 389.85580091588673 28.968023137109487
    vertex 121.45978116792095 300.3129184643471 36.61370501261706
  endloop
endfacet
facet normal -0.7058043995685378 0.03663662214441188 0.7074587673267918
  outer loop
    vertex 136.67040695545668 493.70573087444984 109.50382895879059
    vertex 136.061791995481 549.3783573194586 106.01356180926179
    vertex 50.55986929828184 496.27621776889634 23.461541978965347
  endloop
endfacet
facet normal -0.4354008371337578 -0.5410466162913822 0.7195100207939211
  outer loop
    vertex 335.38369412837284 184.49879966684693 120.75609588927867
    vertex 275.69126987958185 231.93395966204773 120.30370652649519
    vertex 219.2232562237785 172.6971638412215 41.58890517692479
  endloop
endfacet
facet normal 0.018032338998574343 -0.5870294748917512 0.8093647078780714
  outer loop
    vertex 532.4256788643972 117.92242999164846 108.37420908471881
    vertex 468.1087587472957 124.396482442749 114.50277395714993
    vertex 460.78987851124 34.71573196891429 49.62069197618245
  endloop
endfacet
facet normal -0.4730524726360916 -0.4449381903741194 0.760428408779869
  outer loop
    vertex 335.38369412837284 184.49879966684693 120.75609588927867
    vertex 219.2232562237785 172.6971638412215 41.58890517692479
    vertex 290.273067010596 108.26205459032352 48.08609506269544
  endloop
endfacet
facet normal -0.31783321687418775 -0.5258016248408997 0.7889960060520431
  outer loop
    vertex 407.5479549452893 143.37576383153777 118.72865831590963
    vertex 290.273067010596 108.26205459032352 48.08609506269544
    vertex 372.2628294875381 60.73745086955362 49.44295377209909
  endloop
endfacet
facet normal -0.025876794843946012 -0.5616553563599678 0.826966536300449
  outer loop
    vertex 550.0971955401279 27.38287328589544 47.43492972754924
    vertex 532.4256788643972 117.92242999164846 108.37420908471881
    vertex 460.78987851124 34.71573196891429 49.62069197618245
  endloop
endfacet
facet normal -0.6538747359941218 -0.24317572229603585 0.716458929537778
  outer loop
    vertex 183.7085436548798 349.0666798567289 113.48762429284291
    vertex 152.4530668325107 426.1448454016852 111.12373711644683
    vertex 79.58896382326249 390.43067392486074 32.50260024256855
  endloop
endfacet
facet normal -0.48326180616478415 -0.8186140161968865 0.3103693270739788
  outer loop
    vertex 372.2628294875381 60.73745086955362 49.44295377209909
    vertex 289.6980848465695 107.70213219552649 44.75679088745083
    vertex 371.98704991829317 59.42338599064762 45.54764081640589
  endloop
endfacet
facet normal -0.9187862184320187 -0.22423448055713766 0.32488579924130523
  outer loop
    vertex 49.38385432346466 496.57629119968504 20.342847520742
    vertex 79.58896382326249 390.43067392486074 32.50260024256855
    vertex 50.55986929828184 496.27621776889634 23.461541978965347
  endloop
endfacet
facet normal -0.26293189714380427 -0.8796952635311791 0.3962361174668071
  outer loop
    vertex 460.78987851124 34.71573196891429 49.62069197618245
    vertex 371.98704991829317 59.42338599064762 45.54764081640589
    vertex 461.0899941800209 32.894584445880945 45.776658580673775
  endloop
endfacet
facet normal 0.1942883229418932 -0.8054772362327143 0.559873619202883
  outer loop
    vertex 634.8012553198362 31.9254679640299 42.39475998472759
    vertex 635.8315806068313 29.93420005345712 39.17242357982422
    vertex 702.7306819047275 42.87208174667159 34.57041176830162
  endloop
endfacet
facet normal -0.7192200290008482 -0.631800319696683 0.2890517357069289
  outer loop
    vertex 160.96736867099867 236.18379575805866 35.40341457855506
    vertex 218.44492334743805 172.0377256916247 38.21087381779352
    vertex 219.2232562237785 172.6971638412215 41.58890517692479
  endloop
endfacet
facet normal -0.26730603502127764 -0.9071675070486199 0.32495322401292753
  outer loop
    vertex 460.78987851124 34.71573196891429 49.62069197618245
    vertex 372.2628294875381 60.73745086955362 49.44295377209909
    vertex 371.98704991829317 59.42338599064762 45.54764081640589
  endloop
endfacet
facet normal -0.13391483452499764 -0.6024962092667426 0.7868069235291133
  outer loop
    vertex 468.1087587472957 124.396482442749 114.50277395714993
    vertex 407.5479549452893 143.37576383153777 118.72865831590963
    vertex 372.2628294875381 60.73745086955362 49.44295377209909
  endloop
endfacet
facet normal 0.6509526997987725 0.6011075855291794 0.4636057088129627
  outer loop
    vertex 770.4004471665156 118.74170628094264 54.31197054620671
    vertex 824.7435280010918 91.60141568075693 13.198282191903717
    vertex 804.5623099552233 114.33901704537337 12.05350274951218
  endloop
endfacet
facet normal -0.054695136202936506 0.9985031006840902 -1.7840424295047148e-19
  outer loop
    vertex 528.6189592233355 142.86728875156862 108.11309325487456
    vertex 588.9627164534268 146.17274671002224 10.000000000000004
    vertex 528.6189592233355 142.86728875156862 10.000000000000004
  endloop
endfacet
facet normal -0.054695136202936506 0.9985031006840902 -1.7840424295047148e-19
  outer loop
    vertex 588.9627164534268 146.17274671002224 10.000000000000004
    vertex 528.6189592233355 142.86728875156862 108.11309325487456
    vertex 588.9627164534268 146.17274671002224 100.1699435234487
  endloop
endfacet
facet normal 0.2898402457149266 0.9570750398813622 1.8668580063920195e-18
  outer loop
    vertex 414.3452592396922 164.88168041669482 118.17177621434762
    vertex 470.5026350648254 147.87500180779523 10.000000000000004
    vertex 414.3452592396922 164.88168041669482 10.000000000000004
  endloop
endfacet
facet normal 0.2898402457149266 0.9570750398813622 1.8668580063920195e-18
  outer loop
    vertex 470.5026350648254 147.87500180779523 10.000000000000004
    vertex 414.3452592396922 164.88168041669482 118.17177621434762
    vertex 470.5026350648254 147.87500180779523 114.09331092302875
  endloop
endfacet
facet normal -0.1915771352509053 0.9814775602371438 9.276122834363694e-19
  outer loop
    vertex 588.9627164534268 146.17274671002224 100.1699435234487
    vertex 646.3901702202735 157.38215945986443 10.000000000000004
    vertex 588.9627164534268 146.17274671002224 10.000000000000004
  endloop
endfacet
facet normal -0.1915771352509053 0.9814775602371438 9.276122834363694e-19
  outer loop
    vertex 646.3901702202735 157.38215945986443 10.000000000000004
    vertex 588.9627164534268 146.17274671002224 100.1699435234487
    vertex 646.3901702202735 157.38215945986443 91.8244464736441
  endloop
endfacet
facet normal -0.5285129975844847 -0.46543555660904273 0.7099603890558213
  outer loop
    vertex 275.69126987958185 231.93395966204773 120.30370652649519
    vertex 221.72273918528444 288.47797757456635 117.1972325366129
    vertex 161.88275718023385 236.89298949281178 38.8327254978705
  endloop
endfacet
facet normal -0.7025340779646718 -0.13295931029815428 0.6991192252422813
  outer loop
    vertex 50.55986929828184 496.27621776889634 23.461541978965347
    vertex 79.58896382326249 390.43067392486074 32.50260024256855
    vertex 136.67040695545668 493.70573087444984 109.50382895879059
  endloop
endfacet
facet normal -0.1918527738510778 -0.04773363009552752 0.9802622168193318
  outer loop
    vertex 205.27924064731295 362.2576323720867 118.35168007104693
    vertex 152.4530668325107 426.1448454016852 111.12373711644683
    vertex 183.7085436548798 349.0666798567289 113.48762429284291
  endloop
endfacet
facet normal -0.6130412115913549 -0.3409964641503861 0.7126723541204177
  outer loop
    vertex 221.72273918528444 288.47797757456635 117.1972325366129
    vertex 183.7085436548798 349.0666798567289 113.48762429284291
    vertex 121.45978116792095 300.3129184643471 36.61370501261706
  endloop
endfacet
facet normal 0.13362463491441268 0.052227463962948834 0.9896548635519298
  outer loop
    vertex 646.3901702202735 157.38215945986443 91.8244464736441
    vertex 588.9627164534268 146.17274671002224 100.1699435234487
    vertex 598.1088058646515 120.21049032748562 100.30514212255031
  endloop
endfacet
facet normal 0.07856137751096273 -0.523750914234926 0.8482411743140387
  outer loop
    vertex 634.8012553198362 31.9254679640299 42.39475998472759
    vertex 598.1088058646515 120.21049032748562 100.30514212255031
    vertex 550.0971955401279 27.38287328589544 47.43492972754924
  endloop
endfacet
facet normal -0.6577199982606252 -0.6962535788632673 0.2874636634570275
  outer loop
    vertex 290.273067010596 108.26205459032352 48.08609506269544
    vertex 219.2232562237785 172.6971638412215 41.58890517692479
    vertex 218.44492334743805 172.0377256916247 38.21087381779352
  endloop
endfacet
facet normal 0.0901115502665239 0.2634100049350083 0.9604660732210706
  outer loop
    vertex 716.0573663319395 145.88199688112945 83.42565890050969
    vertex 711.4066179476999 152.87876707204373 81.94311499457129
    vertex 659.35937715933 131.9148656136723 92.57561855286322
  endloop
endfacet
facet normal -0.12609350074290776 -0.06597025837453455 0.989822385117853
  outer loop
    vertex 275.69126987958185 231.93395966204773 120.30370652649519
    vertex 241.58164544040463 303.5486825341388 120.73150026312646
    vertex 221.72273918528444 288.47797757456635 117.1972325366129
  endloop
endfacet
facet normal -0.1462115892854114 0.0294528752163191 0.9888147952473842
  outer loop
    vertex 176.132064729181 434.51612686752344 114.37569655536237
    vertex 161.94401249193683 496.79141373712457 110.42283911584067
    vertex 152.4530668325107 426.1448454016852 111.12373711644683
  endloop
endfacet
facet normal -0.7734071088283148 -0.4784070125407894 0.4158944269470614
  outer loop
    vertex 121.45978116792095 300.3129184643471 36.61370501261706
    vertex 120.47257499660141 299.5942564151943 33.9511898092581
    vertex 161.88275718023385 236.89298949281178 38.8327254978705
  endloop
endfacet
facet normal 0.07324066360256264 0.0026757941096582326 0.9973107065107338
  outer loop
    vertex 470.5026350648254 147.87500180779523 114.09331092302875
    vertex 414.3452592396922 164.88168041669482 118.17177621434762
    vertex 407.5479549452893 143.37576383153777 118.72865831590963
  endloop
endfacet
facet normal -0.6558428676279295 -0.2726059233148764 0.7039574870368365
  outer loop
    vertex 183.7085436548798 349.0666798567289 113.48762429284291
    vertex 79.58896382326249 390.43067392486074 32.50260024256855
    vertex 121.45978116792095 300.3129184643471 36.61370501261706
  endloop
endfacet
facet normal 0.09734751533063155 0.025270400104039536 0.9949295794866763
  outer loop
    vertex 532.4256788643972 117.92242999164846 108.37420908471881
    vertex 528.6189592233355 142.86728875156862 108.11309325487456
    vertex 468.1087587472957 124.396482442749 114.50277395714993
  endloop
endfacet
facet normal -0.1782432534363041 -0.07043141341997013 0.9814625609813687
  outer loop
    vertex 241.58164544040463 303.5486825341388 120.73150026312646
    vertex 205.27924064731295 362.2576323720867 118.35168007104693
    vertex 183.7085436548798 349.0666798567289 113.48762429284291
  endloop
endfacet
facet normal -0.8021858233797504 -0.5049912173022271 0.3185620429620688
  outer loop
    vertex 120.47257499660141 299.5942564151943 33.9511898092581
    vertex 160.96736867099867 236.18379575805866 35.40341457855506
    vertex 161.88275718023385 236.89298949281178 38.8327254978705
  endloop
endfacet
facet normal 0.0013247682946116125 -0.00975473410907584 0.9999515439017168
  outer loop
    vertex 347.75257887877336 203.72449170719153 120.92725979077301
    vertex 292.47146029175315 248.69602294605068 121.43920460052884
    vertex 335.38369412837284 184.49879966684693 120.75609588927867
  endloop
endfacet
facet normal 0.03628307863694358 0.014406754698362285 0.9992377012621605
  outer loop
    vertex 414.3452592396922 164.88168041669482 118.17177621434762
    vertex 335.38369412837284 184.49879966684693 120.75609588927867
    vertex 407.5479549452893 143.37576383153777 118.72865831590963
  endloop
endfacet
endsolid V2 Mould parts + mirrored
