solid V2 Mould parts + mirrored
facet normal 0.2948854512983598 0.912912567364326 0.2821935771076969
  outer loop
    vertex 736.7106368750631 532.7307872463732 37.03430568876936
    vertex 665.9607146797526 556.9812800806902 32.514511331962986
    vertex 666.3338039094155 555.8367737530015 35.82718638889583
  endloop
endfacet
facet normal 0.5707304901270422 0.6558634258195674 0.49407476591257643
  outer loop
    vertex 876.3023850888593 429.6852513064255 51.85371185871087
    vertex 821.6680684718726 480.90960478736474 46.96637531487342
    vertex 819.6935974549922 479.7764546304299 50.7513946765631
  endloop
endfacet
facet normal 0.3309668782708174 -0.2500014679749154 0.9099231788992176
  outer loop
    vertex 959.4078520123322 53.12197237188624 26.14801424255624
    vertex 924.8472041038098 59.23489310434549 40.39830394472203
    vertex 927.610377622599 55.98864723422334 38.50134694153799
  endloop
endfacet
facet normal 0.1549008997594448 0.9390252132195467 0.3069810420721437
  outer loop
    vertex 666.3338039094155 555.8367737530015 35.82718638889583
    vertex 665.9607146797526 556.9812800806902 32.514511331962986
    vertex 595.5992070878034 569.870902667147 28.590426134355695
  endloop
endfacet
facet normal -0.12280568245492714 0.05415070499025246 0.9909523023364133
  outer loop
    vertex 278.2234570617009 462.6764429375894 95.61157482854593
    vertex 230.58395526447103 427.6180831231332 91.62352553399452
    vertex 244.72023613468488 411.21797629782463 94.27157727166153
  endloop
endfacet
facet normal -0.5648444788331393 0.754989275491592 0.33307943290512626
  outer loop
    vertex 238.78790175258396 520.5330259613456 15.037617366522726
    vertex 238.0451243735018 521.5512070773595 11.470091403388851
    vertex 184.68370112705463 480.868940125317 13.192713370887974
  endloop
endfacet
facet normal -0.47681944880421023 0.5720103084547677 0.6674184746195829
  outer loop
    vertex 278.2234570617009 462.6764429375894 95.61157482854593
    vertex 184.68370112705463 480.868940125317 13.192713370887974
    vertex 230.58395526447103 427.6180831231332 91.62352553399452
  endloop
endfacet
facet normal -0.4610144010025236 0.598371307031041 0.6552995505799223
  outer loop
    vertex 278.2234570617009 462.6764429375894 95.61157482854593
    vertex 238.78790175258396 520.5330259613456 15.037617366522726
    vertex 184.68370112705463 480.868940125317 13.192713370887974
  endloop
endfacet
facet normal -0.10058656161934718 0.7923008419848391 0.6017821195513477
  outer loop
    vertex 400.2431652808236 512.2469306525913 101.61460919391719
    vertex 461.95884473809804 580.7347569839183 21.759803090273724
    vertex 381.93722882459974 573.4112331855306 18.026450012452372
  endloop
endfacet
facet normal 0.028294940872077998 0.9759860033802215 0.2159877717069833
  outer loop
    vertex 461.95884473809804 580.7347569839183 21.759803090273724
    vertex 526.201028107278 579.141272777763 20.544407903613497
    vertex 462.20882992479375 581.6639905392318 17.528117876289716
  endloop
endfacet
facet normal 0.6530975692161163 0.3539294872379097 0.6694755284157223
  outer loop
    vertex 951.9850912900588 319.2674254128992 54.83341782575214
    vertex 921.7859491164625 372.05471079175925 56.38688685490113
    vertex 949.4616354545434 317.7792355553762 58.08189675153373
  endloop
endfacet
facet normal 0.44450226734607956 0.8043110682203432 0.3943367087432329
  outer loop
    vertex 821.6680684718726 480.90960478736474 46.96637531487342
    vertex 736.7106368750631 532.7307872463732 37.03430568876936
    vertex 736.2103489861654 531.4603048601547 40.18958420727525
  endloop
endfacet
facet normal -0.5149060008379395 0.6965421232904616 0.4997007912572235
  outer loop
    vertex 184.68370112705463 480.868940125317 13.192713370887974
    vertex 238.0451243735018 521.5512070773595 11.470091403388851
    vertex 183.47779931666895 482.2679586290333 9.999999999999998
  endloop
endfacet
facet normal -0.1241369246018408 0.7985716970156614 0.5889594796553695
  outer loop
    vertex 470.97480577993406 521.6250169263808 103.80717777934696
    vertex 461.95884473809804 580.7347569839183 21.759803090273724
    vertex 400.2431652808236 512.2469306525913 101.61460919391719
  endloop
endfacet
facet normal -0.7574497546818186 -0.6528934592507822 -1.0592982770016317e-13
  outer loop
    vertex 183.47779931666895 482.2679586290333 9.999999999999998
    vertex 184.68370112705475 480.8689401253173 9.999999999999998
    vertex 184.68370112705463 480.868940125317 13.192713370887974
  endloop
endfacet
facet normal 0.3934653995013899 0.48918185253983326 0.7783868540391139
  outer loop
    vertex 875.1073636451619 428.35922719736885 55.05385032428747
    vertex 819.6935974549922 479.7764546304299 50.7513946765631
    vertex 760.2134578121294 433.96310197606977 109.60957989868348
  endloop
endfacet
facet normal 0.8474232405724684 0.10742693305684177 0.5199358666140059
  outer loop
    vertex 903.1812010519151 214.97498230387947 105.57392586260806
    vertex 918.0205468943565 141.45485425761473 96.57826895922959
    vertex 951.4268602141432 140.05889254756372 42.419046231935305
  endloop
endfacet
facet normal 0.356130552576117 -0.14021458559307484 0.9238565362158738
  outer loop
    vertex 959.4078520123322 53.12197237188624 26.14801424255624
    vertex 951.4268602141432 140.05889254756372 42.419046231935305
    vertex 924.8472041038098 59.23489310434549 40.39830394472203
  endloop
endfacet
facet normal -0.008046913513333762 -0.015458121394335325 0.9998481353014902
  outer loop
    vertex 795.6398240649423 371.6524321660671 108.9313439058216
    vertex 760.2134578121294 433.96310197606977 109.60957989868348
    vertex 745.0479418642567 417.1841734901781 109.22811565911233
  endloop
endfacet
facet normal 0.3100753134428431 0.6438094673169775 0.699544616008409
  outer loop
    vertex 819.6935974549922 479.7764546304299 50.7513946765631
    vertex 736.2103489861654 531.4603048601547 40.18958420727525
    vertex 693.7545010148792 476.849770504764 109.26779350884892
  endloop
endfacet
facet normal -0.03488656676114409 -0.030655640391723686 0.998920997462659
  outer loop
    vertex 745.0479418642567 417.1841734901781 109.22811565911233
    vertex 693.7545010148792 476.849770504764 109.26779350884892
    vertex 683.9168875555248 456.8413363144617 108.31018832836995
  endloop
endfacet
facet normal -0.05791440584228277 -0.13275565295945926 0.9894553341122798
  outer loop
    vertex 918.0205468943565 141.45485425761473 96.57826895922959
    vertex 903.1812010519151 214.97498230387947 105.57392586260806
    vertex 888.1338450932963 144.29287718083444 95.20973119463932
  endloop
endfacet
facet normal -0.025571788955674597 -0.006207760549810389 0.9996537137021815
  outer loop
    vertex 634.060480908349 477.4934100290621 106.94064508220706
    vertex 583.3405727623011 513.9228337164454 105.86942048406377
    vertex 580.2727480643877 492.02235662983077 105.65494353022508
  endloop
endfacet
facet normal -0.021783215749376708 -0.140504011364127 0.9898404489119473
  outer loop
    vertex 903.1812010519151 214.97498230387947 105.57392586260806
    vertex 876.2944091916951 214.42413493269382 104.9040431012705
    vertex 888.1338450932963 144.29287718083444 95.20973119463932
  endloop
endfacet
facet normal -0.35717004160811533 0.6752444417620961 0.6453483596066952
  outer loop
    vertex 335.99898696210755 492.0045076175041 98.68950861072382
    vertex 303.3863147228363 552.845059565484 16.980903866767946
    vertex 238.78790175258396 520.5330259613456 15.037617366522726
  endloop
endfacet
facet normal -0.0035014102680165607 -0.03559389855365222 0.9993602025855779
  outer loop
    vertex 854.2562187619318 333.20130161545313 107.93893359399533
    vertex 814.1937644745743 385.14739323868093 109.64871633526461
    vertex 832.4786337113534 323.57575563245683 107.51980246783351
  endloop
endfacet
facet normal -0.0344446494726242 -0.0009748855597898429 0.9994061315205413
  outer loop
    vertex 346.53133215833475 472.1618160784764 99.03315127422984
    vertex 335.99898696210755 492.0045076175041 98.68950861072382
    vertex 290.9362102104018 444.0458470843038 97.08963273977672
  endloop
endfacet
facet normal 0.8137406439060463 -0.2803352552633002 0.5091545041653205
  outer loop
    vertex 918.0205468943565 141.45485425761473 96.57826895922959
    vertex 924.8472041038098 59.23489310434549 40.39830394472203
    vertex 951.4268602141432 140.05889254756372 42.419046231935305
  endloop
endfacet
facet normal -0.2639166880419366 0.7499522521709822 0.6065637651860246
  outer loop
    vertex 400.2431652808236 512.2469306525913 101.61460919391719
    vertex 381.93722882459974 573.4112331855306 18.026450012452372
    vertex 335.99898696210755 492.0045076175041 98.68950861072382
  endloop
endfacet
facet normal 0.7242523558694263 0.20384060293798503 0.6587165806410712
  outer loop
    vertex 949.4616354545434 317.7792355553762 58.08189675153373
    vertex 968.404025487294 256.3094403878341 56.27682529510729
    vertex 970.8936768329161 257.98317231316236 53.02154003252948
  endloop
endfacet
facet normal -0.0756295322079673 -0.5502898114778318 0.8315415186517726
  outer loop
    vertex 927.610377622599 55.98864723422334 38.50134694153799
    vertex 924.8472041038098 59.23489310434549 40.39830394472203
    vertex 891.1410489190469 64.8936093953343 41.07746807441892
  endloop
endfacet
facet normal 0.25776266018856936 0.6745902851848418 0.6917270835717987
  outer loop
    vertex 736.2103489861654 531.4603048601547 40.18958420727525
    vertex 641.0021471074141 498.6770757828563 107.63868132756953
    vertex 693.7545010148792 476.849770504764 109.26779350884892
  endloop
endfacet
facet normal -0.011106193715699746 -0.03784749848612203 0.9992218068674704
  outer loop
    vertex 832.4786337113534 323.57575563245683 107.51980246783351
    vertex 814.1937644745743 385.14739323868093 109.64871633526461
    vertex 795.6398240649423 371.6524321660671 108.9313439058216
  endloop
endfacet
facet normal 0.1754844719589367 0.7391686426143896 0.6502575781003201
  outer loop
    vertex 641.0021471074141 498.6770757828563 107.63868132756953
    vertex 666.3338039094155 555.8367737530015 35.82718638889583
    vertex 583.3405727623011 513.9228337164454 105.86942048406377
  endloop
endfacet
facet normal 0.821908313287914 -0.03146227282687325 0.5687502526916219
  outer loop
    vertex 953.6939233315715 140.9438260282229 39.19183710864405
    vertex 951.4268602141432 140.05889254756372 42.419046231935305
    vertex 961.4328492570454 50.14649195384022 22.985465318835548
  endloop
endfacet
facet normal -0.2034297412146372 0.7446675123955745 0.635678091782258
  outer loop
    vertex 335.99898696210755 492.0045076175041 98.68950861072382
    vertex 381.93722882459974 573.4112331855306 18.026450012452372
    vertex 303.3863147228363 552.845059565484 16.980903866767946
  endloop
endfacet
facet normal -0.12055565223092378 -0.6979427851984665 0.7059335686200112
  outer loop
    vertex 927.610377622599 55.98864723422334 38.50134694153799
    vertex 891.1410489190469 64.8936093953343 41.07746807441892
    vertex 891.3734261813988 62.24785559413491 38.50134694153799
  endloop
endfacet
facet normal 0.010237329732130875 -0.06660637035822661 0.9977268105587112
  outer loop
    vertex 857.3872715303571 274.2458482868258 103.97105146759858
    vertex 854.2562187619318 333.20130161545313 107.93893359399533
    vertex 832.4786337113534 323.57575563245683 107.51980246783351
  endloop
endfacet
facet normal -0.016668198154494062 -0.02365103571578577 0.9995813121901855
  outer loop
    vertex 525.3600208621016 521.1092280774448 104.44008975671956
    vertex 472.32936738138886 500.3949101613388 103.0656737921688
    vertex 524.0787278671886 499.55830263155593 103.90880876288173
  endloop
endfacet
facet normal 0.5745969733576495 0.49185023105240516 0.654157219957041
  outer loop
    vertex 923.5980812349426 373.3617755431686 53.81238996148451
    vertex 875.1073636451619 428.35922719736885 55.05385032428747
    vertex 921.7859491164625 372.05471079175925 56.38688685490113
  endloop
endfacet
facet normal -0.01927154335685031 -0.03612730892411497 0.9991613609255247
  outer loop
    vertex 472.32936738138886 500.3949101613388 103.0656737921688
    vertex 470.97480577993406 521.6250169263808 103.80717777934696
    vertex 406.8830340414878 491.12100641069486 101.46804091857553
  endloop
endfacet
facet normal -0.027487076519315617 -0.023002289769903705 0.999357471223267
  outer loop
    vertex 583.3405727623011 513.9228337164454 105.86942048406377
    vertex 525.3600208621016 521.1092280774448 104.44008975671956
    vertex 524.0787278671886 499.55830263155593 103.90880876288173
  endloop
endfacet
facet normal -0.24062454449579976 0.9216367676559579 0.3044429291195095
  outer loop
    vertex 303.3863147228363 552.845059565484 16.980903866767946
    vertex 382.14898228634087 574.3508772748836 14.128739369931887
    vertex 302.68060632660416 553.81519877347 13.48623664525372
  endloop
endfacet
facet normal -0.031772965727186034 -0.005337405251977662 0.999480860624192
  outer loop
    vertex 583.3405727623011 513.9228337164454 105.86942048406377
    vertex 524.0787278671886 499.55830263155593 103.90880876288173
    vertex 580.2727480643877 492.02235662983077 105.65494353022508
  endloop
endfacet
facet normal 0.5734139430528253 0.6587422896517775 0.4870883346344328
  outer loop
    vertex 875.1073636451619 428.35922719736885 55.05385032428747
    vertex 876.3023850888593 429.6852513064255 51.85371185871087
    vertex 819.6935974549922 479.7764546304299 50.7513946765631
  endloop
endfacet
facet normal -0.06927750602542906 0.03183194510168946 0.9970894415396945
  outer loop
    vertex 335.99898696210755 492.0045076175041 98.68950861072382
    vertex 278.2234570617009 462.6764429375894 95.61157482854593
    vertex 290.9362102104018 444.0458470843038 97.08963273977672
  endloop
endfacet
facet normal 0.0009292872881421497 0.8128029910039095 0.5825379251518604
  outer loop
    vertex 525.3600208621016 521.1092280774448 104.44008975671956
    vertex 525.928557522333 578.2490851802996 24.713134502226726
    vertex 470.97480577993406 521.6250169263808 103.80717777934696
  endloop
endfacet
facet normal 0.02822713595126492 0.977086980201521 0.21096033256672073
  outer loop
    vertex 525.928557522333 578.2490851802996 24.713134502226726
    vertex 526.201028107278 579.141272777763 20.544407903613497
    vertex 461.95884473809804 580.7347569839183 21.759803090273724
  endloop
endfacet
facet normal 0.28022965056490845 0.8742425197189415 0.3964484325353625
  outer loop
    vertex 736.2103489861654 531.4603048601547 40.18958420727525
    vertex 736.7106368750631 532.7307872463732 37.03430568876936
    vertex 666.3338039094155 555.8367737530015 35.82718638889583
  endloop
endfacet
facet normal 0.5180532989459535 0.1798623253680246 0.83622384764154
  outer loop
    vertex 968.404025487294 256.3094403878341 56.27682529510729
    vertex 883.3907812737668 278.66488684000245 104.13540903229708
    vertex 903.1812010519151 214.97498230387947 105.57392586260806
  endloop
endfacet
facet normal -0.03617317929751259 -0.0210691682877895 0.9991234114198161
  outer loop
    vertex 683.9168875555248 456.8413363144617 108.31018832836995
    vertex 641.0021471074141 498.6770757828563 107.63868132756953
    vertex 634.060480908349 477.4934100290621 106.94064508220706
  endloop
endfacet
facet normal 0.10072505979397303 0.9715150495611127 0.21450634211083283
  outer loop
    vertex 595.1648167011474 570.9540613927835 25.24178577502981
    vertex 526.201028107278 579.141272777763 20.544407903613497
    vertex 525.928557522333 578.2490851802996 24.713134502226726
  endloop
endfacet
facet normal -0.098171288141643 0.9686555167366812 0.228186082135182
  outer loop
    vertex 381.93722882459974 573.4112331855306 18.026450012452372
    vertex 462.20882992479375 581.6639905392318 17.528117876289716
    vertex 382.14898228634087 574.3508772748836 14.128739369931887
  endloop
endfacet
facet normal -0.07864312852538555 -0.5668612014769772 0.8200509963385312
  outer loop
    vertex 924.8472041038098 59.23489310434549 40.39830394472203
    vertex 918.0205468943565 141.45485425761473 96.57826895922959
    vertex 891.1410489190469 64.8936093953343 41.07746807441892
  endloop
endfacet
facet normal -0.04363976265783274 -0.005862091262985642 0.9990301331797719
  outer loop
    vertex 400.2431652808236 512.2469306525913 101.61460919391719
    vertex 335.99898696210755 492.0045076175041 98.68950861072382
    vertex 346.53133215833475 472.1618160784764 99.03315127422984
  endloop
endfacet
facet normal -0.42989464654426646 0.8406361258407261 0.3294260111224905
  outer loop
    vertex 238.78790175258396 520.5330259613456 15.037617366522726
    vertex 302.68060632660416 553.81519877347 13.48623664525372
    vertex 238.0451243735018 521.5512070773595 11.470091403388851
  endloop
endfacet
facet normal -0.04206425398966193 -0.02711822662339124 0.9987468149241306
  outer loop
    vertex 693.7545010148792 476.849770504764 109.26779350884892
    vertex 641.0021471074141 498.6770757828563 107.63868132756953
    vertex 683.9168875555248 456.8413363144617 108.31018832836995
  endloop
endfacet
facet normal 0.4260022162030459 0.7813208303261816 0.45613580421679206
  outer loop
    vertex 819.6935974549922 479.7764546304299 50.7513946765631
    vertex 821.6680684718726 480.90960478736474 46.96637531487342
    vertex 736.2103489861654 531.4603048601547 40.18958420727525
  endloop
endfacet
facet normal -0.03622296727658405 -0.021052805213947 0.9991219525334748
  outer loop
    vertex 641.0021471074141 498.6770757828563 107.63868132756953
    vertex 583.3405727623011 513.9228337164454 105.86942048406377
    vertex 634.060480908349 477.4934100290621 106.94064508220706
  endloop
endfacet
facet normal -0.028859529698302223 -0.01600459849979599 0.9994553418599819
  outer loop
    vertex 470.97480577993406 521.6250169263808 103.80717777934696
    vertex 400.2431652808236 512.2469306525913 101.61460919391719
    vertex 406.8830340414878 491.12100641069486 101.46804091857553
  endloop
endfacet
facet normal 0.40176031766709125 0.4449074009595675 0.8004036804759465
  outer loop
    vertex 875.1073636451619 428.35922719736885 55.05385032428747
    vertex 760.2134578121294 433.96310197606977 109.60957989868348
    vertex 814.1937644745743 385.14739323868093 109.64871633526461
  endloop
endfacet
facet normal -0.03470938601560733 -0.017841699122697098 0.999238175959483
  outer loop
    vertex 406.8830340414878 491.12100641069486 101.46804091857553
    vertex 400.2431652808236 512.2469306525913 101.61460919391719
    vertex 346.53133215833475 472.1618160784764 99.03315127422984
  endloop
endfacet
facet normal -0.43136801812747005 0.8430789836192835 0.32115332835929794
  outer loop
    vertex 303.3863147228363 552.845059565484 16.980903866767946
    vertex 302.68060632660416 553.81519877347 13.48623664525372
    vertex 238.78790175258396 520.5330259613456 15.037617366522726
  endloop
endfacet
facet normal -0.09876055200530487 0.973159795203847 0.20786141144140838
  outer loop
    vertex 461.95884473809804 580.7347569839183 21.759803090273724
    vertex 462.20882992479375 581.6639905392318 17.528117876289716
    vertex 381.93722882459974 573.4112331855306 18.026450012452372
  endloop
endfacet
facet normal -0.02520638756430114 0.014744226180387236 0.9995735319726607
  outer loop
    vertex 903.1812010519151 214.97498230387947 105.57392586260806
    vertex 883.3907812737668 278.66488684000245 104.13540903229708
    vertex 876.2944091916951 214.42413493269382 104.9040431012705
  endloop
endfacet
facet normal 0.8241541491548195 -0.18439244993633877 0.5355085086507688
  outer loop
    vertex 970.8936768329161 257.98317231316236 53.02154003252948
    vertex 968.404025487294 256.3094403878341 56.27682529510729
    vertex 953.6939233315715 140.9438260282229 39.19183710864405
  endloop
endfacet
facet normal -0.09109618606064192 -0.5633221468660747 0.8212001240473613
  outer loop
    vertex 918.0205468943565 141.45485425761473 96.57826895922959
    vertex 888.1338450932963 144.29287718083444 95.20973119463932
    vertex 891.1410489190469 64.8936093953343 41.07746807441892
  endloop
endfacet
facet normal 0.09790239235523635 0.9505415074940602 0.29476425173694454
  outer loop
    vertex 595.5992070878034 569.870902667147 28.590426134355695
    vertex 595.1648167011474 570.9540613927835 25.24178577502981
    vertex 525.928557522333 578.2490851802996 24.713134502226726
  endloop
endfacet
facet normal -0.021741212669916726 -0.023240074624449283 0.9994934810208076
  outer loop
    vertex 814.1937644745743 385.14739323868093 109.64871633526461
    vertex 760.2134578121294 433.96310197606977 109.60957989868348
    vertex 795.6398240649423 371.6524321660671 108.9313439058216
  endloop
endfacet
facet normal 0.6659384531047025 0.3617777724571576 0.6524130746945934
  outer loop
    vertex 923.5980812349426 373.3617755431686 53.81238996148451
    vertex 921.7859491164625 372.05471079175925 56.38688685490113
    vertex 951.9850912900588 319.2674254128992 54.83341782575214
  endloop
endfacet
facet normal 0.15727477201577525 0.9454148046975345 0.2854040874726727
  outer loop
    vertex 665.9607146797526 556.9812800806902 32.514511331962986
    vertex 595.1648167011474 570.9540613927835 25.24178577502981
    vertex 595.5992070878034 569.870902667147 28.590426134355695
  endloop
endfacet
facet normal 0.8273244063730284 -0.18408519683568705 0.5307042179269753
  outer loop
    vertex 968.404025487294 256.3094403878341 56.27682529510729
    vertex 951.4268602141432 140.05889254756372 42.419046231935305
    vertex 953.6939233315715 140.9438260282229 39.19183710864405
  endloop
endfacet
facet normal 0.3443701468921644 0.5397720301455289 0.7681506085410877
  outer loop
    vertex 819.6935974549922 479.7764546304299 50.7513946765631
    vertex 693.7545010148792 476.849770504764 109.26779350884892
    vertex 760.2134578121294 433.96310197606977 109.60957989868348
  endloop
endfacet
facet normal -0.012512750968811841 -0.011421895376386076 0.9998564753849442
  outer loop
    vertex 760.2134578121294 433.96310197606977 109.60957989868348
    vertex 693.7545010148792 476.849770504764 109.26779350884892
    vertex 745.0479418642567 417.1841734901781 109.22811565911233
  endloop
endfacet
facet normal 0.004565059192432898 0.8115966246985769 0.5842003757380227
  outer loop
    vertex 470.97480577993406 521.6250169263808 103.80717777934696
    vertex 525.928557522333 578.2490851802996 24.713134502226726
    vertex 461.95884473809804 580.7347569839183 21.759803090273724
  endloop
endfacet
facet normal 0.6616529509146523 0.5724413046497938 0.4842791811308584
  outer loop
    vertex 876.3023850888593 429.6852513064255 51.85371185871087
    vertex 875.1073636451619 428.35922719736885 55.05385032428747
    vertex 923.5980812349426 373.3617755431686 53.81238996148451
  endloop
endfacet
facet normal 0.08601650532119233 0.8095034522082429 0.5807799253377016
  outer loop
    vertex 583.3405727623011 513.9228337164454 105.86942048406377
    vertex 525.928557522333 578.2490851802996 24.713134502226726
    vertex 525.3600208621016 521.1092280774448 104.44008975671956
  endloop
endfacet
facet normal -0.9860477272470977 -0.16646284747904933 -6.855733860540916e-15
  outer loop
    vertex 876.2944091916951 214.42413493269382 104.9040431012705
    vertex 888.133845093297 144.2928771808345 10.000000000000004
    vertex 888.1338450932963 144.29287718083444 95.20973119463932
  endloop
endfacet
facet normal -0.9860477272470977 -0.16646284747904933 -6.855733860540916e-15
  outer loop
    vertex 888.133845093297 144.2928771808345 10.000000000000004
    vertex 876.2944091916951 214.42413493269382 104.9040431012705
    vertex 876.2944091916953 214.42413493269362 10.000000000000004
  endloop
endfacet
facet normal -0.7937655830699869 -0.6082238067796785 -6.0690859308043456e-15
  outer loop
    vertex 795.6398240649423 371.6524321660671 108.9313439058216
    vertex 832.4786337113537 323.5757556324573 10.000000000000004
    vertex 832.4786337113534 323.57575563245683 107.51980246783351
  endloop
endfacet
facet normal -0.7937655830699869 -0.6082238067796785 -6.0690859308043456e-15
  outer loop
    vertex 832.4786337113537 323.5757556324573 10.000000000000004
    vertex 795.6398240649423 371.6524321660671 108.9313439058216
    vertex 795.639824064943 371.6524321660675 10.000000000000004
  endloop
endfacet
facet normal -0.9535090830857016 -0.30136427869451393 -3.508323496405339e-15
  outer loop
    vertex 876.2944091916951 214.42413493269382 104.9040431012705
    vertex 857.3872715303571 274.2458482868259 10.000000000000004
    vertex 876.2944091916953 214.42413493269362 10.000000000000004
  endloop
endfacet
facet normal -0.9535090830857016 -0.30136427869451393 -3.508323496405339e-15
  outer loop
    vertex 857.3872715303571 274.2458482868259 10.000000000000004
    vertex 876.2944091916951 214.42413493269382 104.9040431012705
    vertex 857.3872715303571 274.2458482868258 103.97105146759858
  endloop
endfacet
facet normal -0.8926563856919768 -0.4507378141262798 -3.730308625991004e-15
  outer loop
    vertex 832.4786337113534 323.57575563245683 107.51980246783351
    vertex 857.3872715303571 274.2458482868259 10.000000000000004
    vertex 857.3872715303571 274.2458482868258 103.97105146759858
  endloop
endfacet
facet normal -0.8926563856919768 -0.4507378141262798 -3.730308625991004e-15
  outer loop
    vertex 857.3872715303571 274.2458482868259 10.000000000000004
    vertex 832.4786337113534 323.57575563245683 107.51980246783351
    vertex 832.4786337113537 323.5757556324573 10.000000000000004
  endloop
endfacet
facet normal 0.039391673011800715 0.9992238468418033 -3.2748298582929934e-15
  outer loop
    vertex 462.20882992479375 581.6639905392318 17.528117876289716
    vertex 526.2010281072778 579.1412727777631 10.000000000000004
    vertex 462.20882992479363 581.6639905392315 10.000000000000004
  endloop
endfacet
facet normal 0.039391673011800715 0.9992238468418033 -3.2748298582929934e-15
  outer loop
    vertex 526.2010281072778 579.1412727777631 10.000000000000004
    vertex 462.20882992479375 581.6639905392318 17.528117876289716
    vertex 526.201028107278 579.141272777763 20.544407903613497
  endloop
endfacet
facet normal 0.9963873425739544 0.0849250467083366 3.5804353183373565e-14
  outer loop
    vertex 953.6939233315723 140.9438260282231 10.000000000000004
    vertex 961.4328492570454 50.14649195384022 22.985465318835548
    vertex 961.4328492570459 50.14649195384022 10.000000000000004
  endloop
endfacet
facet normal 0.9963873425739544 0.0849250467083366 3.5804353183373565e-14
  outer loop
    vertex 961.4328492570454 50.14649195384022 22.985465318835548
    vertex 953.6939233315723 140.9438260282231 10.000000000000004
    vertex 953.6939233315715 140.9438260282229 39.19183710864405
  endloop
endfacet
facet normal 0.88548226039746 0.4646731824857175 1.7645234857715196e-14
  outer loop
    vertex 951.9850912900594 319.2674254128994 10.000000000000004
    vertex 923.5980812349426 373.3617755431686 53.81238996148451
    vertex 951.9850912900588 319.2674254128992 54.83341782575214
  endloop
endfacet
facet normal 0.88548226039746 0.4646731824857175 1.7645234857715196e-14
  outer loop
    vertex 923.5980812349426 373.3617755431686 53.81238996148451
    vertex 951.9850912900594 319.2674254128994 10.000000000000004
    vertex 923.5980812349438 373.36177554316924 10.000000000000004
  endloop
endfacet
facet normal -0.008512713859303146 0.01290382789206584 0.9998805053247523
  outer loop
    vertex 883.3907812737668 278.66488684000245 104.13540903229708
    vertex 857.3872715303571 274.2458482868258 103.97105146759858
    vertex 876.2944091916951 214.42413493269382 104.9040431012705
  endloop
endfacet
facet normal 0.6839743985243688 0.7295060124243172 1.0517903107868552e-14
  outer loop
    vertex 821.6680684718726 480.90960478736474 46.96637531487342
    vertex 876.3023850888604 429.68525130642536 10.000000000000004
    vertex 821.6680684718727 480.90960478736474 10.000000000000004
  endloop
endfacet
facet normal 0.6839743985243688 0.7295060124243172 1.0517903107868552e-14
  outer loop
    vertex 876.3023850888604 429.68525130642536 10.000000000000004
    vertex 821.6680684718726 480.90960478736474 46.96637531487342
    vertex 876.3023850888593 429.6852513064255 51.85371185871087
  endloop
endfacet
facet normal 0.9555512972514978 0.2948248943372661 1.4318472829402133e-14
  outer loop
    vertex 951.9850912900594 319.2674254128994 10.000000000000004
    vertex 970.8936768329161 257.98317231316236 53.02154003252948
    vertex 970.8936768329165 257.9831723131623 10.000000000000004
  endloop
endfacet
facet normal 0.9555512972514978 0.2948248943372661 1.4318472829402133e-14
  outer loop
    vertex 970.8936768329161 257.98317231316236 53.02154003252948
    vertex 951.9850912900594 319.2674254128994 10.000000000000004
    vertex 951.9850912900588 319.2674254128992 54.83341782575214
  endloop
endfacet
facet normal 0.3242450798101739 0.9459731117843119 7.535426713043574e-15
  outer loop
    vertex 665.9607146797526 556.9812800806902 32.514511331962986
    vertex 736.7106368750634 532.7307872463733 10.000000000000004
    vertex 665.9607146797529 556.9812800806905 10.000000000000004
  endloop
endfacet
facet normal 0.3242450798101739 0.9459731117843119 7.535426713043574e-15
  outer loop
    vertex 736.7106368750634 532.7307872463733 10.000000000000004
    vertex 665.9607146797526 556.9812800806902 32.514511331962986
    vertex 736.7106368750631 532.7307872463732 37.03430568876936
  endloop
endfacet
facet normal -0.999283533632156 -0.03784731709952496 -1.0253850960584091e-14
  outer loop
    vertex 888.1338450932963 144.29287718083444 95.20973119463932
    vertex 891.1410489190478 64.89360939533432 10.000000000000004
    vertex 891.1410489190469 64.8936093953343 41.07746807441892
  endloop
endfacet
facet normal -0.999283533632156 -0.03784731709952496 -1.0253850960584091e-14
  outer loop
    vertex 891.1410489190478 64.89360939533432 10.000000000000004
    vertex 888.1338450932963 144.29287718083444 95.20973119463932
    vertex 888.133845093297 144.2928771808345 10.000000000000004
  endloop
endfacet
facet normal -0.5842535396117716 0.8115711930885152 3.933883432153414e-14
  outer loop
    vertex 238.0451243735018 521.5512070773595 11.470091403388851
    vertex 238.04512437350172 521.5512070773595 10.000000000000004
    vertex 183.47779931666895 482.2679586290333 9.999999999999998
  endloop
endfacet
facet normal 3.4349557641616497e-18 2.6936528926908455e-18 -1.0
  outer loop
    vertex 970.8936768329165 257.9831723131623 10.000000000000004
    vertex 953.6939233315723 140.9438260282231 10.000000000000004
    vertex 951.9850912900594 319.2674254128994 10.000000000000004
  endloop
endfacet
facet normal 3.4349557641616497e-18 2.6936528926908455e-18 -1.0
  outer loop
    vertex 238.04512437350172 521.5512070773595 10.000000000000004
    vertex 184.68370112705475 480.8689401253173 9.999999999999998
    vertex 183.47779931666895 482.2679586290333 9.999999999999998
  endloop
endfacet
facet normal 3.4349557641616497e-18 2.6936528926908455e-18 -1.0
  outer loop
    vertex 184.68370112705475 480.8689401253173 9.999999999999998
    vertex 238.04512437350172 521.5512070773595 10.000000000000004
    vertex 244.72023613468488 411.2179762978249 10.000000000000004
  endloop
endfacet
facet normal 3.4349557641616497e-18 2.6936528926908455e-18 -1.0
  outer loop
    vertex 244.72023613468488 411.2179762978249 10.000000000000004
    vertex 238.04512437350172 521.5512070773595 10.000000000000004
    vertex 302.68060632660416 553.8151987734703 10.000000000000004
  endloop
endfacet
facet normal 3.4349557641616497e-18 2.6936528926908455e-18 -1.0
  outer loop
    vertex 244.72023613468488 411.2179762978249 10.000000000000004
    vertex 302.68060632660416 553.8151987734703 10.000000000000004
    vertex 290.93621021040184 444.04584708430383 10.000000000000004
  endloop
endfacet
facet normal 3.4349557641616497e-18 2.6936528926908455e-18 -1.0
  outer loop
    vertex 290.93621021040184 444.04584708430383 10.000000000000004
    vertex 302.68060632660416 553.8151987734703 10.000000000000004
    vertex 346.53133215833475 472.1618160784764 10.000000000000004
  endloop
endfacet
facet normal 3.4349557641616497e-18 2.6936528926908455e-18 -1.0
  outer loop
    vertex 346.53133215833475 472.1618160784764 10.000000000000004
    vertex 302.68060632660416 553.8151987734703 10.000000000000004
    vertex 382.14898228634115 574.3508772748839 10.000000000000004
  endloop
endfacet
facet normal 3.4349557641616497e-18 2.6936528926908455e-18 -1.0
  outer loop
    vertex 346.53133215833475 472.1618160784764 10.000000000000004
    vertex 382.14898228634115 574.3508772748839 10.000000000000004
    vertex 406.88303404148826 491.1210064106956 10.000000000000004
  endloop
endfacet
facet normal 3.4349557641616497e-18 2.6936528926908455e-18 -1.0
  outer loop
    vertex 406.88303404148826 491.1210064106956 10.000000000000004
    vertex 382.14898228634115 574.3508772748839 10.000000000000004
    vertex 462.20882992479363 581.6639905392315 10.000000000000004
  endloop
endfacet
facet normal 3.4349557641616497e-18 2.6936528926908455e-18 -1.0
  outer loop
    vertex 406.88303404148826 491.1210064106956 10.000000000000004
    vertex 462.20882992479363 581.6639905392315 10.000000000000004
    vertex 472.32936738138915 500.3949101613388 10.000000000000004
  endloop
endfacet
facet normal 3.4349557641616497e-18 2.6936528926908455e-18 -1.0
  outer loop
    vertex 472.32936738138915 500.3949101613388 10.000000000000004
    vertex 462.20882992479363 581.6639905392315 10.000000000000004
    vertex 526.2010281072778 579.1412727777631 10.000000000000004
  endloop
endfacet
facet normal 3.4349557641616497e-18 2.6936528926908455e-18 -1.0
  outer loop
    vertex 472.32936738138915 500.3949101613388 10.000000000000004
    vertex 526.2010281072778 579.1412727777631 10.000000000000004
    vertex 524.078727867189 499.5583026315563 10.000000000000004
  endloop
endfacet
facet normal 3.4349557641616497e-18 2.6936528926908455e-18 -1.0
  outer loop
    vertex 524.078727867189 499.5583026315563 10.000000000000004
    vertex 526.2010281072778 579.1412727777631 10.000000000000004
    vertex 580.2727480643874 492.02235662983094 10.000000000000004
  endloop
endfacet
facet normal 3.4349557641616497e-18 2.6936528926908455e-18 -1.0
  outer loop
    vertex 580.2727480643874 492.02235662983094 10.000000000000004
    vertex 526.2010281072778 579.1412727777631 10.000000000000004
    vertex 595.1648167011475 570.9540613927844 10.000000000000004
  endloop
endfacet
facet normal 3.4349557641616497e-18 2.6936528926908455e-18 -1.0
  outer loop
    vertex 580.2727480643874 492.02235662983094 10.000000000000004
    vertex 595.1648167011475 570.9540613927844 10.000000000000004
    vertex 634.0604809083499 477.49341002906266 10.000000000000004
  endloop
endfacet
facet normal 3.4349557641616497e-18 2.6936528926908455e-18 -1.0
  outer loop
    vertex 634.0604809083499 477.49341002906266 10.000000000000004
    vertex 595.1648167011475 570.9540613927844 10.000000000000004
    vertex 665.9607146797529 556.9812800806905 10.000000000000004
  endloop
endfacet
facet normal 3.4349557641616497e-18 2.6936528926908455e-18 -1.0
  outer loop
    vertex 634.0604809083499 477.49341002906266 10.000000000000004
    vertex 665.9607146797529 556.9812800806905 10.000000000000004
    vertex 683.9168875555248 456.8413363144621 10.000000000000004
  endloop
endfacet
facet normal 3.4349557641616497e-18 2.6936528926908455e-18 -1.0
  outer loop
    vertex 683.9168875555248 456.8413363144621 10.000000000000004
    vertex 665.9607146797529 556.9812800806905 10.000000000000004
    vertex 736.7106368750634 532.7307872463733 10.000000000000004
  endloop
endfacet
facet normal 3.4349557641616497e-18 2.6936528926908455e-18 -1.0
  outer loop
    vertex 683.9168875555248 456.8413363144621 10.000000000000004
    vertex 736.7106368750634 532.7307872463733 10.000000000000004
    vertex 745.0479418642568 417.1841734901783 10.000000000000004
  endloop
endfacet
facet normal 3.4349557641616497e-18 2.6936528926908455e-18 -1.0
  outer loop
    vertex 745.0479418642568 417.1841734901783 10.000000000000004
    vertex 736.7106368750634 532.7307872463733 10.000000000000004
    vertex 821.6680684718727 480.90960478736474 10.000000000000004
  endloop
endfacet
facet normal 3.4349557641616497e-18 2.6936528926908455e-18 -1.0
  outer loop
    vertex 745.0479418642568 417.1841734901783 10.000000000000004
    vertex 821.6680684718727 480.90960478736474 10.000000000000004
    vertex 795.639824064943 371.6524321660675 10.000000000000004
  endloop
endfacet
facet normal 3.4349557641616497e-18 2.6936528926908455e-18 -1.0
  outer loop
    vertex 795.639824064943 371.6524321660675 10.000000000000004
    vertex 821.6680684718727 480.90960478736474 10.000000000000004
    vertex 832.4786337113537 323.5757556324573 10.000000000000004
  endloop
endfacet
facet normal 3.4349557641616497e-18 2.6936528926908455e-18 -1.0
  outer loop
    vertex 832.4786337113537 323.5757556324573 10.000000000000004
    vertex 821.6680684718727 480.90960478736474 10.000000000000004
    vertex 876.3023850888604 429.68525130642536 10.000000000000004
  endloop
endfacet
facet normal 3.4349557641616497e-18 2.6936528926908455e-18 -1.0
  outer loop
    vertex 832.4786337113537 323.5757556324573 10.000000000000004
    vertex 876.3023850888604 429.68525130642536 10.000000000000004
    vertex 857.3872715303571 274.2458482868259 10.000000000000004
  endloop
endfacet
facet normal 3.4349557641616497e-18 2.6936528926908455e-18 -1.0
  outer loop
    vertex 857.3872715303571 274.2458482868259 10.000000000000004
    vertex 876.3023850888604 429.68525130642536 10.000000000000004
    vertex 876.2944091916953 214.42413493269362 10.000000000000004
  endloop
endfacet
facet normal 3.4349557641616497e-18 2.6936528926908455e-18 -1.0
  outer loop
    vertex 876.2944091916953 214.42413493269362 10.000000000000004
    vertex 876.3023850888604 429.68525130642536 10.000000000000004
    vertex 888.133845093297 144.2928771808345 10.000000000000004
  endloop
endfacet
facet normal 3.4349557641616497e-18 2.6936528926908455e-18 -1.0
  outer loop
    vertex 888.133845093297 144.2928771808345 10.000000000000004
    vertex 876.3023850888604 429.68525130642536 10.000000000000004
    vertex 923.5980812349438 373.36177554316924 10.000000000000004
  endloop
endfacet
facet normal 3.4349557641616497e-18 2.6936528926908455e-18 -1.0
  outer loop
    vertex 888.133845093297 144.2928771808345 10.000000000000004
    vertex 923.5980812349438 373.36177554316924 10.000000000000004
    vertex 891.1410489190478 64.89360939533432 10.000000000000004
  endloop
endfacet
facet normal 3.4349557641616497e-18 2.6936528926908455e-18 -1.0
  outer loop
    vertex 891.1410489190478 64.89360939533432 10.000000000000004
    vertex 923.5980812349438 373.36177554316924 10.000000000000004
    vertex 891.3734261813997 62.247855594134975 10.000000000000004
  endloop
endfacet
facet normal 3.4349557641616497e-18 2.6936528926908455e-18 -1.0
  outer loop
    vertex 891.3734261813997 62.247855594134975 10.000000000000004
    vertex 923.5980812349438 373.36177554316924 10.000000000000004
    vertex 961.4328492570459 50.14649195384022 10.000000000000004
  endloop
endfacet
facet normal 3.4349557641616497e-18 2.6936528926908455e-18 -1.0
  outer loop
    vertex 961.4328492570459 50.14649195384022 10.000000000000004
    vertex 923.5980812349438 373.36177554316924 10.000000000000004
    vertex 953.6939233315723 140.9438260282231 10.000000000000004
  endloop
endfacet
facet normal 3.4349557641616497e-18 2.6936528926908455e-18 -1.0
  outer loop
    vertex 953.6939233315723 140.9438260282231 10.000000000000004
    vertex 923.5980812349438 373.36177554316924 10.000000000000004
    vertex 951.9850912900594 319.2674254128994 10.000000000000004
  endloop
endfacet
facet normal 0.005059706447097715 -0.06688277453158688 0.9977480111940219
  outer loop
    vertex 883.3907812737668 278.66488684000245 104.13540903229708
    vertex 854.2562187619318 333.20130161545313 107.93893359399533
    vertex 857.3872715303571 274.2458482868258 103.97105146759858
  endloop
endfacet
facet normal -0.9961650951949306 -0.08749344612755372 -2.714300426205395e-14
  outer loop
    vertex 891.1410489190469 64.8936093953343 41.07746807441892
    vertex 891.3734261813997 62.247855594134975 10.000000000000004
    vertex 891.3734261813988 62.24785559413491 38.50134694153799
  endloop
endfacet
facet normal -0.9961650951949306 -0.08749344612755372 -2.714300426205395e-14
  outer loop
    vertex 891.3734261813997 62.247855594134975 10.000000000000004
    vertex 891.1410489190469 64.8936093953343 41.07746807441892
    vertex 891.1410489190478 64.89360939533432 10.000000000000004
  endloop
endfacet
facet normal 0.11788968743853842 0.9930266973227074 3.0547147075543677e-14
  outer loop
    vertex 526.201028107278 579.141272777763 20.544407903613497
    vertex 595.1648167011475 570.9540613927844 10.000000000000004
    vertex 526.2010281072778 579.1412727777631 10.000000000000004
  endloop
endfacet
facet normal 0.11788968743853842 0.9930266973227074 3.0547147075543677e-14
  outer loop
    vertex 595.1648167011475 570.9540613927844 10.000000000000004
    vertex 526.201028107278 579.141272777763 20.544407903613497
    vertex 595.1648167011474 570.9540613927835 25.24178577502981
  endloop
endfacet
facet normal 0.19363178758951072 0.9810742738625302 1.781645310948962e-14
  outer loop
    vertex 595.1648167011474 570.9540613927835 25.24178577502981
    vertex 665.9607146797529 556.9812800806905 10.000000000000004
    vertex 595.1648167011475 570.9540613927844 10.000000000000004
  endloop
endfacet
facet normal 0.19363178758951072 0.9810742738625302 1.781645310948962e-14
  outer loop
    vertex 665.9607146797529 556.9812800806905 10.000000000000004
    vertex 595.1648167011474 570.9540613927835 25.24178577502981
    vertex 665.9607146797526 556.9812800806902 32.514511331962986
  endloop
endfacet
facet normal 0.9893736289856658 -0.14539539974749557 2.269049528790986e-14
  outer loop
    vertex 953.6939233315723 140.9438260282231 10.000000000000004
    vertex 970.8936768329161 257.98317231316236 53.02154003252948
    vertex 953.6939233315715 140.9438260282229 39.19183710864405
  endloop
endfacet
facet normal 0.9893736289856658 -0.14539539974749557 2.269049528790986e-14
  outer loop
    vertex 970.8936768329161 257.98317231316236 53.02154003252948
    vertex 953.6939233315723 140.9438260282231 10.000000000000004
    vertex 970.8936768329165 257.9831723131623 10.000000000000004
  endloop
endfacet
facet normal -0.016164416659112973 -0.9998693472819691 -1.0087474201121462e-15
  outer loop
    vertex 524.0787278671886 499.55830263155593 103.90880876288173
    vertex 472.32936738138915 500.3949101613388 10.000000000000004
    vertex 524.078727867189 499.5583026315563 10.000000000000004
  endloop
endfacet
facet normal -0.016164416659112973 -0.9998693472819691 -1.0087474201121462e-15
  outer loop
    vertex 472.32936738138915 500.3949101613388 10.000000000000004
    vertex 524.0787278671886 499.55830263155593 103.90880876288173
    vertex 472.32936738138886 500.3949101613388 103.0656737921688
  endloop
endfacet
facet normal 0.45129761075691455 -0.8923735016937137 -1.0334469628486126e-15
  outer loop
    vertex 346.53133215833475 472.1618160784764 99.03315127422984
    vertex 290.93621021040184 444.04584708430383 10.000000000000004
    vertex 346.53133215833475 472.1618160784764 10.000000000000004
  endloop
endfacet
facet normal 0.45129761075691455 -0.8923735016937137 -1.0334469628486126e-15
  outer loop
    vertex 290.93621021040184 444.04584708430383 10.000000000000004
    vertex 346.53133215833475 472.1618160784764 99.03315127422984
    vertex 290.9362102104018 444.0458470843038 97.08963273977672
  endloop
endfacet
facet normal -0.09096685456734983 0.9958539206982733 1.363513792929838e-15
  outer loop
    vertex 382.14898228634087 574.3508772748836 14.128739369931887
    vertex 462.20882992479363 581.6639905392315 10.000000000000004
    vertex 382.14898228634115 574.3508772748839 10.000000000000004
  endloop
endfacet
facet normal -0.09096685456734983 0.9958539206982733 1.363513792929838e-15
  outer loop
    vertex 462.20882992479363 581.6639905392315 10.000000000000004
    vertex 382.14898228634087 574.3508772748836 14.128739369931887
    vertex 462.20882992479375 581.6639905392318 17.528117876289716
  endloop
endfacet
facet normal -0.668956998698518 -0.7433011058058983 -4.97342091875197e-15
  outer loop
    vertex 795.6398240649423 371.6524321660671 108.9313439058216
    vertex 745.0479418642568 417.1841734901783 10.000000000000004
    vertex 795.639824064943 371.6524321660675 10.000000000000004
  endloop
endfacet
facet normal -0.668956998698518 -0.7433011058058983 -4.97342091875197e-15
  outer loop
    vertex 745.0479418642568 417.1841734901783 10.000000000000004
    vertex 795.6398240649423 371.6524321660671 108.9313439058216
    vertex 745.0479418642567 417.1841734901781 109.22811565911233
  endloop
endfacet
facet normal -0.25019453417839554 0.968195587196748 6.945078919620172e-14
  outer loop
    vertex 302.68060632660416 553.81519877347 13.48623664525372
    vertex 382.14898228634115 574.3508772748839 10.000000000000004
    vertex 302.68060632660416 553.8151987734703 10.000000000000004
  endloop
endfacet
facet normal -0.25019453417839554 0.968195587196748 6.945078919620172e-14
  outer loop
    vertex 382.14898228634115 574.3508772748839 10.000000000000004
    vertex 302.68060632660416 553.81519877347 13.48623664525372
    vertex 382.14898228634087 574.3508772748836 14.128739369931887
  endloop
endfacet
facet normal 0.520738323548846 0.8537163453908667 5.003602805508307e-15
  outer loop
    vertex 736.7106368750631 532.7307872463732 37.03430568876936
    vertex 821.6680684718727 480.90960478736474 10.000000000000004
    vertex 736.7106368750634 532.7307872463733 10.000000000000004
  endloop
endfacet
facet normal 0.520738323548846 0.8537163453908667 5.003602805508307e-15
  outer loop
    vertex 821.6680684718727 480.90960478736474 10.000000000000004
    vertex 736.7106368750631 532.7307872463732 37.03430568876936
    vertex 821.6680684718726 480.90960478736474 46.96637531487342
  endloop
endfacet
facet normal -0.4466182716541243 0.894724605353336 5.807376495189387e-14
  outer loop
    vertex 238.0451243735018 521.5512070773595 11.470091403388851
    vertex 302.68060632660416 553.8151987734703 10.000000000000004
    vertex 238.04512437350172 521.5512070773595 10.000000000000004
  endloop
endfacet
facet normal -0.4466182716541243 0.894724605353336 5.807376495189387e-14
  outer loop
    vertex 302.68060632660416 553.8151987734703 10.000000000000004
    vertex 238.0451243735018 521.5512070773595 11.470091403388851
    vertex 302.68060632660416 553.81519877347 13.48623664525372
  endloop
endfacet
facet normal 0.5790923065417107 -0.8152619827418677 -1.8549555097672463e-15
  outer loop
    vertex 290.9362102104018 444.0458470843038 97.08963273977672
    vertex 244.72023613468488 411.2179762978249 10.000000000000004
    vertex 290.93621021040184 444.04584708430383 10.000000000000004
  endloop
endfacet
facet normal 0.5790923065417107 -0.8152619827418677 -1.8549555097672463e-15
  outer loop
    vertex 244.72023613468488 411.2179762978249 10.000000000000004
    vertex 290.9362102104018 444.0458470843038 97.08963273977672
    vertex 244.72023613468488 411.21797629782463 94.27157727166153
  endloop
endfacet
facet normal 0.7658121522656354 0.6430643416037586 2.050750815622396e-14
  outer loop
    vertex 923.5980812349438 373.36177554316924 10.000000000000004
    vertex 876.3023850888593 429.6852513064255 51.85371185871087
    vertex 923.5980812349426 373.3617755431686 53.81238996148451
  endloop
endfacet
facet normal 0.7658121522656354 0.6430643416037586 2.050750815622396e-14
  outer loop
    vertex 876.3023850888593 429.6852513064255 51.85371185871087
    vertex 923.5980812349438 373.36177554316924 10.000000000000004
    vertex 876.3023850888604 429.68525130642536 10.000000000000004
  endloop
endfacet
facet normal 0.2997044876430206 -0.9540320854597264 -2.7520065198943145e-15
  outer loop
    vertex 406.8830340414878 491.12100641069486 101.46804091857553
    vertex 346.53133215833475 472.1618160784764 10.000000000000004
    vertex 406.88303404148826 491.1210064106956 10.000000000000004
  endloop
endfacet
facet normal 0.2997044876430206 -0.9540320854597264 -2.7520065198943145e-15
  outer loop
    vertex 346.53133215833475 472.1618160784764 10.000000000000004
    vertex 406.8830340414878 491.12100641069486 101.46804091857553
    vertex 346.53133215833475 472.1618160784764 99.03315127422984
  endloop
endfacet
facet normal -0.13291595579471058 -0.9911273120518769 -1.9506805436645593e-15
  outer loop
    vertex 580.2727480643877 492.02235662983077 105.65494353022508
    vertex 524.078727867189 499.5583026315563 10.000000000000004
    vertex 580.2727480643874 492.02235662983094 10.000000000000004
  endloop
endfacet
facet normal -0.13291595579471058 -0.9911273120518769 -1.9506805436645593e-15
  outer loop
    vertex 524.078727867189 499.5583026315563 10.000000000000004
    vertex 580.2727480643877 492.02235662983077 105.65494353022508
    vertex 524.0787278671886 499.55830263155593 103.90880876288173
  endloop
endfacet
facet normal -0.2607705519414315 -0.9654008075613782 -2.67520178773279e-15
  outer loop
    vertex 634.060480908349 477.4934100290621 106.94064508220706
    vertex 580.2727480643874 492.02235662983094 10.000000000000004
    vertex 634.0604809083499 477.49341002906266 10.000000000000004
  endloop
endfacet
facet normal -0.2607705519414315 -0.9654008075613782 -2.67520178773279e-15
  outer loop
    vertex 580.2727480643874 492.02235662983094 10.000000000000004
    vertex 634.060480908349 477.4934100290621 106.94064508220706
    vertex 580.2727480643877 492.02235662983077 105.65494353022508
  endloop
endfacet
facet normal -0.7574497546818638 -0.6528934592507297 -4.147311597943665e-15
  outer loop
    vertex 230.58395526447103 427.6180831231332 91.62352553399452
    vertex 244.72023613468488 411.2179762978249 10.000000000000004
    vertex 244.72023613468488 411.21797629782463 94.27157727166153
  endloop
endfacet
facet normal -0.7574497546818638 -0.6528934592507297 -4.147311597943665e-15
  outer loop
    vertex 244.72023613468488 411.2179762978249 10.000000000000004
    vertex 230.58395526447103 427.6180831231332 91.62352553399452
    vertex 184.68370112705475 480.8689401253173 9.999999999999998
  endloop
endfacet
facet normal -0.7574497546818638 -0.6528934592507297 -4.147311597943665e-15
  outer loop
    vertex 184.68370112705475 480.8689401253173 9.999999999999998
    vertex 230.58395526447103 427.6180831231332 91.62352553399452
    vertex 184.68370112705463 480.868940125317 13.192713370887974
  endloop
endfacet
facet normal -0.5442354124357457 -0.8389325454712638 -3.321261627918305e-15
  outer loop
    vertex 745.0479418642567 417.1841734901781 109.22811565911233
    vertex 683.9168875555248 456.8413363144621 10.000000000000004
    vertex 745.0479418642568 417.1841734901783 10.000000000000004
  endloop
endfacet
facet normal -0.5442354124357457 -0.8389325454712638 -3.321261627918305e-15
  outer loop
    vertex 683.9168875555248 456.8413363144621 10.000000000000004
    vertex 745.0479418642567 417.1841734901781 109.22811565911233
    vertex 683.9168875555248 456.8413363144617 108.31018832836995
  endloop
endfacet
facet normal -0.38269725490368317 -0.9238738069071909 -3.7194465983729025e-15
  outer loop
    vertex 683.9168875555248 456.8413363144617 108.31018832836995
    vertex 634.0604809083499 477.49341002906266 10.000000000000004
    vertex 683.9168875555248 456.8413363144621 10.000000000000004
  endloop
endfacet
facet normal -0.38269725490368317 -0.9238738069071909 -3.7194465983729025e-15
  outer loop
    vertex 634.0604809083499 477.49341002906266 10.000000000000004
    vertex 683.9168875555248 456.8413363144617 108.31018832836995
    vertex 634.060480908349 477.4934100290621 106.94064508220706
  endloop
endfacet
facet normal 0.1403008293368158 -0.9901089219310176 -2.4002053062556915e-15
  outer loop
    vertex 472.32936738138886 500.3949101613388 103.0656737921688
    vertex 406.88303404148826 491.1210064106956 10.000000000000004
    vertex 472.32936738138915 500.3949101613388 10.000000000000004
  endloop
endfacet
facet normal 0.1403008293368158 -0.9901089219310176 -2.4002053062556915e-15
  outer loop
    vertex 406.88303404148826 491.1210064106956 10.000000000000004
    vertex 472.32936738138886 500.3949101613388 103.0656737921688
    vertex 406.8830340414878 491.12100641069486 101.46804091857553
  endloop
endfacet
facet normal -0.17020949916603895 -0.9854078984834892 -6.271267119407902e-15
  outer loop
    vertex 961.4328492570454 50.14649195384022 22.985465318835548
    vertex 891.3734261813997 62.247855594134975 10.000000000000004
    vertex 961.4328492570459 50.14649195384022 10.000000000000004
  endloop
endfacet
facet normal -0.17020949916603895 -0.9854078984834892 -6.271267119407902e-15
  outer loop
    vertex 891.3734261813997 62.247855594134975 10.000000000000004
    vertex 961.4328492570454 50.14649195384022 22.985465318835548
    vertex 891.3734261813988 62.24785559413491 38.50134694153799
  endloop
endfacet
facet normal -0.17020949916603895 -0.9854078984834892 -6.271267119407902e-15
  outer loop
    vertex 891.3734261813988 62.24785559413491 38.50134694153799
    vertex 961.4328492570454 50.14649195384022 22.985465318835548
    vertex 927.610377622599 55.98864723422334 38.50134694153799
  endloop
endfacet
facet normal 0.8295473051990121 -0.028228637112703972 0.5577225228407191
  outer loop
    vertex 951.4268602141432 140.05889254756372 42.419046231935305
    vertex 959.4078520123322 53.12197237188624 26.14801424255624
    vertex 961.4328492570454 50.14649195384022 22.985465318835548
  endloop
endfacet
facet normal 0.48064131914185904 0.27112857974877 0.8339503675741071
  outer loop
    vertex 949.4616354545434 317.7792355553762 58.08189675153373
    vertex 921.7859491164625 372.05471079175925 56.38688685490113
    vertex 854.2562187619318 333.20130161545313 107.93893359399533
  endloop
endfacet
facet normal 0.06369124605230081 0.8035339006744715 0.5918417826101616
  outer loop
    vertex 583.3405727623011 513.9228337164454 105.86942048406377
    vertex 595.5992070878034 569.870902667147 28.590426134355695
    vertex 525.928557522333 578.2490851802996 24.713134502226726
  endloop
endfacet
facet normal -0.25007710592125987 0.9442681027487904 0.21405417824758077
  outer loop
    vertex 381.93722882459974 573.4112331855306 18.026450012452372
    vertex 382.14898228634087 574.3508772748836 14.128739369931887
    vertex 303.3863147228363 552.845059565484 16.980903866767946
  endloop
endfacet
facet normal 0.5125357280545527 0.13303139928624852 0.8482981635436521
  outer loop
    vertex 968.404025487294 256.3094403878341 56.27682529510729
    vertex 949.4616354545434 317.7792355553762 58.08189675153373
    vertex 883.3907812737668 278.66488684000245 104.13540903229708
  endloop
endfacet
facet normal 0.09772171831171171 0.7987004751538423 0.5937406982507036
  outer loop
    vertex 583.3405727623011 513.9228337164454 105.86942048406377
    vertex 666.3338039094155 555.8367737530015 35.82718638889583
    vertex 595.5992070878034 569.870902667147 28.590426134355695
  endloop
endfacet
facet normal 0.23107428172858901 -0.6304063793992593 0.7410752142234511
  outer loop
    vertex 961.4328492570454 50.14649195384022 22.985465318835548
    vertex 959.4078520123322 53.12197237188624 26.14801424255624
    vertex 927.610377622599 55.98864723422334 38.50134694153799
  endloop
endfacet
facet normal 0.4796667332309022 0.19660869766541825 0.8551402487509888
  outer loop
    vertex 949.4616354545434 317.7792355553762 58.08189675153373
    vertex 854.2562187619318 333.20130161545313 107.93893359399533
    vertex 883.3907812737668 278.66488684000245 104.13540903229708
  endloop
endfacet
facet normal 0.21267576363067864 0.7265701812122568 0.6533489047494426
  outer loop
    vertex 641.0021471074141 498.6770757828563 107.63868132756953
    vertex 736.2103489861654 531.4603048601547 40.18958420727525
    vertex 666.3338039094155 555.8367737530015 35.82718638889583
  endloop
endfacet
facet normal -0.0787547906146023 0.025324009201476986 0.9965723142417784
  outer loop
    vertex 290.9362102104018 444.0458470843038 97.08963273977672
    vertex 278.2234570617009 462.6764429375894 95.61157482854593
    vertex 244.72023613468488 411.21797629782463 94.27157727166153
  endloop
endfacet
facet normal 0.4512781523884132 0.3206288230584926 0.8327936040826839
  outer loop
    vertex 921.7859491164625 372.05471079175925 56.38688685490113
    vertex 814.1937644745743 385.14739323868093 109.64871633526461
    vertex 854.2562187619318 333.20130161545313 107.93893359399533
  endloop
endfacet
facet normal 0.7254719992165803 0.20440630871100007 0.6571974127397654
  outer loop
    vertex 951.9850912900588 319.2674254128992 54.83341782575214
    vertex 949.4616354545434 317.7792355553762 58.08189675153373
    vertex 970.8936768329161 257.98317231316236 53.02154003252948
  endloop
endfacet
facet normal -0.011967590745607281 -0.035665855667997036 0.9992921112023329
  outer loop
    vertex 525.3600208621016 521.1092280774448 104.44008975671956
    vertex 470.97480577993406 521.6250169263808 103.80717777934696
    vertex 472.32936738138886 500.3949101613388 103.0656737921688
  endloop
endfacet
facet normal 0.44628674938036433 0.3890684513746664 0.8058870128451177
  outer loop
    vertex 921.7859491164625 372.05471079175925 56.38688685490113
    vertex 875.1073636451619 428.35922719736885 55.05385032428747
    vertex 814.1937644745743 385.14739323868093 109.64871633526461
  endloop
endfacet
facet normal -0.3696589065982222 0.6595295358858331 0.6545021650589283
  outer loop
    vertex 335.99898696210755 492.0045076175041 98.68950861072382
    vertex 238.78790175258396 520.5330259613456 15.037617366522726
    vertex 278.2234570617009 462.6764429375894 95.61157482854593
  endloop
endfacet
facet normal 0.6640671984754246 -0.18338470634552612 0.7248343296144066
  outer loop
    vertex 968.404025487294 256.3094403878341 56.27682529510729
    vertex 903.1812010519151 214.97498230387947 105.57392586260806
    vertex 951.4268602141432 140.05889254756372 42.419046231935305
  endloop
endfacet
endsolid V2 Mould parts + mirrored
