solid V2 Mould parts + mirrored
facet normal 0.07972068249947484 -0.048687995873092436 0.99562748648261
  outer loop
    vertex 513.1731010116054 283.91398256146914 127.05227340916832
    vertex 482.3432791440191 334.8529507211981 132.01184993673732
    vertex 465.9101328811121 320.7885294079268 132.63988919572134
  endloop
endfacet
facet normal 0.6836380662666527 0.22970261036500456 0.6927306151331084
  outer loop
    vertex 675.2591188858833 249.19437273301813 14.360618889442728
    vertex 647.4313543749681 298.298898959192 25.54055102278529
    vertex 585.2344964150516 232.60251398341248 108.70530448613549
  endloop
endfacet
facet normal 0.8296030571793274 0.4847482016333434 0.2770883406640443
  outer loop
    vertex 618.1632117134116 345.2215617005107 31.081254202886786
    vertex 647.4313543749681 298.298898959192 25.54055102278529
    vertex 650.1820010505426 296.08400009971245 21.179932133342557
  endloop
endfacet
facet normal 0.8700080022554422 0.4930376010118243 4.0019182559481066e-16
  outer loop
    vertex 650.1820010505426 296.08400009971245 21.179932133342557
    vertex 678.0097655614569 246.97947387353756 9.999999999999998
    vertex 650.1820010505426 296.08400009971245 10.000000000000004
  endloop
endfacet
facet normal 0.5127476918884037 0.4635787760676554 0.7226233616779416
  outer loop
    vertex 617.1736615695501 344.6940711253678 34.77616694675413
    vertex 557.9106568197985 399.5278109194692 41.650025698443145
    vertex 529.479803064839 299.2387433924803 126.16118470193206
  endloop
endfacet
facet normal 0.09267978354778927 -0.04077011642510693 0.9948609226058779
  outer loop
    vertex 529.479803064839 299.2387433924803 126.16118470193206
    vertex 482.3432791440191 334.8529507211981 132.01184993673732
    vertex 513.1731010116054 283.91398256146914 127.05227340916832
  endloop
endfacet
facet normal 0.7138943063641741 -0.32969613763509953 0.6177826285752235
  outer loop
    vertex 675.2591188858833 249.19437273301813 14.360618889442728
    vertex 587.732563180385 229.974019085136 105.2466859542078
    vertex 678.0097655614569 246.97947387353756 9.999999999999998
  endloop
endfacet
facet normal -0.6151296158564635 -0.7884259988713461 -1.1349596648366262e-18
  outer loop
    vertex 513.1731010116054 283.91398256146914 127.05227340916832
    vertex 465.9101328811121 320.7885294079268 10.000000000000004
    vertex 513.1731010116054 283.91398256146914 10.000000000000004
  endloop
endfacet
facet normal -0.6151296158564635 -0.7884259988713461 -1.1349596648366262e-18
  outer loop
    vertex 465.9101328811121 320.7885294079268 10.000000000000004
    vertex 513.1731010116054 283.91398256146914 127.05227340916832
    vertex 465.9101328811121 320.7885294079268 132.63988919572134
  endloop
endfacet
facet normal 0.1381586110597409 -0.08965828089851649 0.9863435460610902
  outer loop
    vertex 558.0380330565746 227.64434421354977 115.653085182532
    vertex 529.479803064839 299.2387433924803 126.16118470193206
    vertex 513.1731010116054 283.91398256146914 127.05227340916832
  endloop
endfacet
facet normal 0.25422577355035886 -0.04041849648990032 0.966299954053718
  outer loop
    vertex 585.2344964150516 232.60251398341248 108.70530448613549
    vertex 529.479803064839 299.2387433924803 126.16118470193206
    vertex 558.0380330565746 227.64434421354977 115.653085182532
  endloop
endfacet
facet normal 0.46257447639447563 0.4909557959281611 0.7382325245022212
  outer loop
    vertex 557.9106568197985 399.5278109194692 41.650025698443145
    vertex 482.3432791440191 334.8529507211981 132.01184993673732
    vertex 529.479803064839 299.2387433924803 126.16118470193206
  endloop
endfacet
facet normal 0.8269686480245131 0.4815542244982679 0.2902212674019274
  outer loop
    vertex 618.1632117134116 345.2215617005107 31.081254202886786
    vertex 617.1736615695501 344.6940711253678 34.77616694675413
    vertex 647.4313543749681 298.298898959192 25.54055102278529
  endloop
endfacet
facet normal 0.6485569655402865 0.6391167063612222 0.4134050049275636
  outer loop
    vertex 559.1642914613961 400.6007427543266 38.024568527798756
    vertex 557.9106568197985 399.5278109194692 41.650025698443145
    vertex 618.1632117134116 345.2215617005107 31.081254202886786
  endloop
endfacet
facet normal 0.8514843507875104 0.4073619646297239 0.330197865130869
  outer loop
    vertex 650.1820010505426 296.08400009971245 21.179932133342557
    vertex 675.2591188858833 249.19437273301813 14.360618889442728
    vertex 678.0097655614569 246.97947387353756 9.999999999999998
  endloop
endfacet
facet normal 0.8514843507875104 0.4073619646297239 0.330197865130869
  outer loop
    vertex 675.2591188858833 249.19437273301813 14.360618889442728
    vertex 650.1820010505426 296.08400009971245 21.179932133342557
    vertex 647.4313543749681 298.298898959192 25.54055102278529
  endloop
endfacet
facet normal 0.6695928781677659 0.688871791470031 0.27767072662395936
  outer loop
    vertex 557.9106568197985 399.5278109194692 41.650025698443145
    vertex 617.1736615695501 344.6940711253678 34.77616694675413
    vertex 618.1632117134116 345.2215617005107 31.081254202886786
  endloop
endfacet
facet normal 0.648153220854805 0.28188710476800555 0.707415763509023
  outer loop
    vertex 647.4313543749681 298.298898959192 25.54055102278529
    vertex 617.1736615695501 344.6940711253678 34.77616694675413
    vertex 585.2344964150516 232.60251398341248 108.70530448613549
  endloop
endfacet
facet normal 0.6030534491488347 0.31229126708363264 0.7340304503036594
  outer loop
    vertex 617.1736615695501 344.6940711253678 34.77616694675413
    vertex 529.479803064839 299.2387433924803 126.16118470193206
    vertex 585.2344964150516 232.60251398341248 108.70530448613549
  endloop
endfacet
facet normal 0.7272661370230552 -0.18024264640648374 0.6622662261930244
  outer loop
    vertex 675.2591188858833 249.19437273301813 14.360618889442728
    vertex 585.2344964150516 232.60251398341248 108.70530448613549
    vertex 587.732563180385 229.974019085136 105.2466859542078
  endloop
endfacet
facet normal 0.6843862427932932 0.7291196545665737 3.148348419708607e-17
  outer loop
    vertex 559.1642914613961 400.6007427543266 38.024568527798756
    vertex 618.1632117134116 345.2215617005107 10.000000000000004
    vertex 559.1642914613961 400.6007427543266 10.000000000000004
  endloop
endfacet
facet normal 0.6843862427932932 0.7291196545665737 3.148348419708607e-17
  outer loop
    vertex 618.1632117134116 345.2215617005107 10.000000000000004
    vertex 559.1642914613961 400.6007427543266 38.024568527798756
    vertex 618.1632117134116 345.2215617005107 31.081254202886786
  endloop
endfacet
facet normal 0.8378246607995834 0.5459394085025031 0.0
  outer loop
    vertex 618.1632117134116 345.2215617005107 10.000000000000004
    vertex 650.1820010505426 296.08400009971245 21.179932133342557
    vertex 650.1820010505426 296.08400009971245 10.000000000000004
  endloop
endfacet
facet normal 0.8378246607995834 0.5459394085025031 0.0
  outer loop
    vertex 650.1820010505426 296.08400009971245 21.179932133342557
    vertex 618.1632117134116 345.2215617005107 10.000000000000004
    vertex 618.1632117134116 345.2215617005107 31.081254202886786
  endloop
endfacet
facet normal 0.0 0.0 -1.0
  outer loop
    vertex 560.3005665457005 224.80667266518847 10.000000000000004
    vertex 513.1731010116054 283.91398256146914 10.000000000000004
    vertex 558.5403774852227 227.09131355901573 10.000000000000004
  endloop
endfacet
facet normal 0.29745071531014916 -0.6443350388105393 0.7045249674230868
  outer loop
    vertex 587.732563180385 229.974019085136 105.2466859542078
    vertex 585.2344964150516 232.60251398341248 108.70530448613549
    vertex 558.0380330565746 227.64434421354977 115.653085182532
  endloop
endfacet
facet normal -0.6502279791407504 0.7597391494075689 -1.3404707336019305e-16
  outer loop
    vertex 465.9101328811121 320.7885294079268 132.63988919572134
    vertex 559.1642914613961 400.6007427543266 10.000000000000004
    vertex 465.9101328811121 320.7885294079268 10.000000000000004
  endloop
endfacet
facet normal -0.6502279791407504 0.7597391494075689 -1.3404707336019305e-16
  outer loop
    vertex 559.1642914613961 400.6007427543266 10.000000000000004
    vertex 465.9101328811121 320.7885294079268 132.63988919572134
    vertex 559.1642914613961 400.6007427543266 38.024568527798756
  endloop
endfacet
facet normal -0.6502279791407504 0.7597391494075689 -1.3404707336019305e-16
  outer loop
    vertex 559.1642914613961 400.6007427543266 38.024568527798756
    vertex 465.9101328811121 320.7885294079268 132.63988919572134
    vertex 557.9106568197985 399.5278109194692 41.650025698443145
  endloop
endfacet
facet normal -0.6502279791407504 0.7597391494075689 -1.3404707336019305e-16
  outer loop
    vertex 557.9106568197985 399.5278109194692 41.650025698443145
    vertex 465.9101328811121 320.7885294079268 132.63988919572134
    vertex 482.3432791440191 334.8529507211981 132.01184993673732
  endloop
endfacet
facet normal -1.5810782205474645e-17 7.303903370460373e-18 -1.0
  outer loop
    vertex 559.1642914613961 400.6007427543266 10.000000000000004
    vertex 513.1731010116054 283.91398256146914 10.000000000000004
    vertex 465.9101328811121 320.7885294079268 10.000000000000004
  endloop
endfacet
facet normal -1.5810782205474645e-17 7.303903370460373e-18 -1.0
  outer loop
    vertex 513.1731010116054 283.91398256146914 10.000000000000004
    vertex 559.1642914613961 400.6007427543266 10.000000000000004
    vertex 558.5403774852227 227.09131355901573 10.000000000000004
  endloop
endfacet
facet normal -1.5810782205474645e-17 7.303903370460373e-18 -1.0
  outer loop
    vertex 558.5403774852227 227.09131355901573 10.000000000000004
    vertex 559.1642914613961 400.6007427543266 10.000000000000004
    vertex 560.3005665457005 224.80667266518847 10.000000000000004
  endloop
endfacet
facet normal -1.5810782205474645e-17 7.303903370460373e-18 -1.0
  outer loop
    vertex 560.3005665457005 224.80667266518847 10.000000000000004
    vertex 559.1642914613961 400.6007427543266 10.000000000000004
    vertex 618.1632117134116 345.2215617005107 10.000000000000004
  endloop
endfacet
facet normal -1.5810782205474645e-17 7.303903370460373e-18 -1.0
  outer loop
    vertex 560.3005665457005 224.80667266518847 10.000000000000004
    vertex 618.1632117134116 345.2215617005107 10.000000000000004
    vertex 678.0097655614569 246.97947387353756 9.999999999999998
  endloop
endfacet
facet normal -1.5810782205474645e-17 7.303903370460373e-18 -1.0
  outer loop
    vertex 678.0097655614569 246.97947387353756 9.999999999999998
    vertex 618.1632117134116 345.2215617005107 10.000000000000004
    vertex 650.1820010505426 296.08400009971245 10.000000000000004
  endloop
endfacet
facet normal -0.7818897796151959 -0.6234166925366215 1.0098100158206482e-16
  outer loop
    vertex 558.0380330565746 227.64434421354977 115.653085182532
    vertex 560.3005665457005 224.80667266518847 10.000000000000004
    vertex 560.3005665457005 224.80667266518847 112.07822539926603
  endloop
endfacet
facet normal -0.7818897796151959 -0.6234166925366215 1.0098100158206482e-16
  outer loop
    vertex 560.3005665457005 224.80667266518847 10.000000000000004
    vertex 558.0380330565746 227.64434421354977 115.653085182532
    vertex 513.1731010116054 283.91398256146914 10.000000000000004
  endloop
endfacet
facet normal -0.7818897796151959 -0.6234166925366215 1.0098100158206482e-16
  outer loop
    vertex 513.1731010116054 283.91398256146914 10.000000000000004
    vertex 558.0380330565746 227.64434421354977 115.653085182532
    vertex 513.1731010116054 283.91398256146914 127.05227340916832
  endloop
endfacet
facet normal 0.1851137473214074 -0.9827171009769934 -1.031019467095031e-16
  outer loop
    vertex 587.732563180385 229.974019085136 105.2466859542078
    vertex 560.3005665457005 224.80667266518847 10.000000000000004
    vertex 678.0097655614569 246.97947387353756 9.999999999999998
  endloop
endfacet
facet normal 0.1851137473214074 -0.9827171009769934 -1.031019467095031e-16
  outer loop
    vertex 560.3005665457005 224.80667266518847 10.000000000000004
    vertex 587.732563180385 229.974019085136 105.2466859542078
    vertex 560.3005665457005 224.80667266518847 112.07822539926603
  endloop
endfacet
facet normal 0.29676628243756453 -0.6475624778959426 0.7018494217632829
  outer loop
    vertex 587.732563180385 229.974019085136 105.2466859542078
    vertex 558.0380330565746 227.64434421354977 115.653085182532
    vertex 560.3005665457005 224.80667266518847 112.07822539926603
  endloop
endfacet
endsolid V2 Mould parts + mirrored
